<?xml version="1.0" encoding="UTF-8"?>
<!DOCTYPE svg PUBLIC "-//W3C//DTD SVG 1.1//EN" "http://www.w3.org/Graphics/SVG/1.1/DTD/svg11.dtd">
<!-- Creator: CorelDRAW -->
<svg xmlns="http://www.w3.org/2000/svg" xml:space="preserve" width="6.4in" height="3in" version="1.1" style="shape-rendering:geometricPrecision; text-rendering:geometricPrecision; image-rendering:optimizeQuality; fill-rule:evenodd; clip-rule:evenodd"
viewBox="0 0 6400.02 3000.01"
 xmlns:xlink="http://www.w3.org/1999/xlink"
 xmlns:xodm="http://www.corel.com/coreldraw/odm/2003">
 <defs>
  <style type="text/css">
   <![CDATA[
    .fil2 {fill:#03989F}
    .fil0 {fill:#03989F;fill-rule:nonzero}
    .fil1 {fill:#0EB9C2;fill-rule:nonzero}
   ]]>
  </style>
 </defs>
 <g id="Layer_x0020_1">
  <metadata id="CorelCorpID_0Corel-Layer"/>
  <g id="_2285376944272">
   <path class="fil0" d="M2985.16 2202.95c1428.9,-157.26 1672.21,630.88 2341.82,553.58 586.74,-67.74 888.7,-458.2 1073.04,-866.75l0 -1889.77 -6400.02 0 0 2667.14c92.25,87.91 203.4,164.13 336.72,226.41 927.74,433.43 1735.62,-590.18 2648.45,-690.6l-0.01 -0.01zm3261.56 -802.07c68.25,0 123.58,67.06 123.58,149.78 0,82.76 -55.33,149.83 -123.58,149.83 -68.25,0 -123.57,-67.06 -123.57,-149.83 0,-82.71 55.32,-149.78 123.57,-149.78zm-253.67 401.45c78.72,176.66 -74.06,433.38 -341.24,573.35 -267.18,139.97 -547.6,110.19 -626.32,-66.47 -78.71,-176.66 74.06,-433.38 341.25,-573.35 267.19,-139.96 547.6,-110.19 626.32,66.47l-0.01 0zm-1898.64 118.99c36.57,-76.61 175.65,-77.3 310.6,-1.5 134.96,75.78 214.7,199.34 178.11,275.94 -36.59,76.61 -175.65,77.3 -310.61,1.51 -134.95,-75.78 -214.7,-199.33 -178.1,-275.94zm-2459.46 599.96c0,43.82 -30.35,79.37 -67.79,79.37 -37.43,0 -67.79,-35.55 -67.79,-79.37 0,-43.85 30.36,-79.37 67.79,-79.37 37.43,0 67.79,35.51 67.79,79.37zm297.45 -122.85c0,23.99 -27.64,43.48 -61.72,43.48 -34.09,0 -61.72,-19.5 -61.72,-43.48 0,-24.09 27.62,-43.53 61.72,-43.53 34.08,0 61.72,19.44 61.72,43.53zm-1189.91 182.95c0,-145.24 153.21,-262.96 342.2,-262.96 188.94,0 342.13,117.71 342.13,262.96 0,145.19 -153.19,262.91 -342.13,262.91 -188.99,0 -342.2,-117.71 -342.2,-262.91z"/>
   <path class="fil1" d="M6400.01 980.75c-292.22,169.98 -737.31,321.72 -1303.02,191.25 -1060.37,-244.56 -1226.93,-876.63 -2433.26,-313.01 -1206.32,563.62 -1714.25,981.96 -2231.9,514.91 -457.33,-412.68 -250,-1196.77 -195.47,-1373.9l6163.65 0 0 980.75 -0 0z"/>
   <ellipse class="fil2" cx="2495" cy="2759.17" rx="405" ry="145.4"/>
   <ellipse class="fil2" cx="3133.34" cy="2470.09" rx="183.33" ry="91.74"/>
  </g>
 </g>
</svg>
