<?xml version="1.0" encoding="UTF-8"?>
<!DOCTYPE svg PUBLIC "-//W3C//DTD SVG 1.1//EN" "http://www.w3.org/Graphics/SVG/1.1/DTD/svg11.dtd">
<!-- Creator: CorelDRAW -->
<svg xmlns="http://www.w3.org/2000/svg" xml:space="preserve" width="5.34104in" height="3.86234in" version="1.1" style="shape-rendering:geometricPrecision; text-rendering:geometricPrecision; image-rendering:optimizeQuality; fill-rule:evenodd; clip-rule:evenodd"
viewBox="0 0 33015.86 23875.19"
 xmlns:xlink="http://www.w3.org/1999/xlink"
 xmlns:xodm="http://www.corel.com/coreldraw/odm/2003">
 <defs>
  <style type="text/css">
   <![CDATA[
    .fil28 {fill:#008270;fill-rule:nonzero}
    .fil30 {fill:#231C9E;fill-rule:nonzero}
    .fil3 {fill:#444472;fill-rule:nonzero}
    .fil31 {fill:#4D00C6;fill-rule:nonzero}
    .fil32 {fill:#4D4FFF;fill-rule:nonzero}
    .fil21 {fill:#6200DD;fill-rule:nonzero}
    .fil36 {fill:#A59E9A;fill-rule:nonzero}
    .fil37 {fill:#C1B8B3;fill-rule:nonzero}
    .fil38 {fill:#DDDBDB;fill-rule:nonzero}
    .fil26 {fill:#E1E2EF;fill-rule:nonzero}
    .fil24 {fill:#EDEDED;fill-rule:nonzero}
    .fil39 {fill:#F2F0EF;fill-rule:nonzero}
    .fil34 {fill:#FBD1C8;fill-rule:nonzero}
    .fil27 {fill:#FD9946;fill-rule:nonzero}
    .fil29 {fill:#FDFDFD;fill-rule:nonzero}
    .fil25 {fill:#FFBA49;fill-rule:nonzero}
    .fil35 {fill:#FFDDDD;fill-rule:nonzero}
    .fil40 {fill:#FFDFB5;fill-rule:nonzero}
    .fil33 {fill:white;fill-rule:nonzero}
    .fil1 {fill:#444472;fill-rule:nonzero;fill-opacity:0.200000}
    .fil7 {fill:#444472;fill-rule:nonzero;fill-opacity:0.411765}
    .fil4 {fill:#444472;fill-rule:nonzero;fill-opacity:0.470588}
    .fil22 {fill:url(#id0);fill-rule:nonzero}
    .fil23 {fill:url(#id1);fill-rule:nonzero}
    .fil16 {fill:url(#id2);fill-rule:nonzero}
    .fil10 {fill:url(#id3);fill-rule:nonzero}
    .fil18 {fill:url(#id4);fill-rule:nonzero}
    .fil0 {fill:url(#id5);fill-rule:nonzero}
    .fil41 {fill:url(#id6);fill-rule:nonzero}
    .fil20 {fill:url(#id7);fill-rule:nonzero}
    .fil5 {fill:url(#id8);fill-rule:nonzero}
    .fil14 {fill:url(#id9);fill-rule:nonzero}
    .fil42 {fill:url(#id10);fill-rule:nonzero}
    .fil2 {fill:url(#id11);fill-rule:nonzero}
    .fil6 {fill:url(#id12);fill-rule:nonzero}
    .fil12 {fill:url(#id13);fill-rule:nonzero}
    .fil8 {fill:url(#id14);fill-rule:nonzero}
    .fil11 {fill:url(#id15);fill-rule:nonzero;fill-opacity:0.301961}
    .fil17 {fill:url(#id16);fill-rule:nonzero;fill-opacity:0.301961}
    .fil13 {fill:url(#id17);fill-rule:nonzero;fill-opacity:0.301961}
    .fil15 {fill:url(#id18);fill-rule:nonzero;fill-opacity:0.301961}
    .fil9 {fill:url(#id19);fill-rule:nonzero;fill-opacity:0.301961}
    .fil19 {fill:url(#id20);fill-rule:nonzero;fill-opacity:0.301961}
   ]]>
  </style>
  <linearGradient id="id0" gradientUnits="userSpaceOnUse" x1="9962.5" y1="5458.76" x2="9962.5" y2="29336.68">
   <stop offset="0" style="stop-opacity:1; stop-color:#85A5FF"/>
   <stop offset="1" style="stop-opacity:1; stop-color:#5969F9"/>
  </linearGradient>
  <linearGradient id="id1" gradientUnits="userSpaceOnUse" x1="9962.62" y1="5779.49" x2="9962.62" y2="20699.2">
   <stop offset="0" style="stop-opacity:1; stop-color:#6E87FB"/>
   <stop offset="1" style="stop-opacity:1; stop-color:#8249D3"/>
  </linearGradient>
  <linearGradient id="id2" gradientUnits="userSpaceOnUse" x1="32917.86" y1="21232.71" x2="26312.15" y2="18302.92">
   <stop offset="0" style="stop-opacity:1; stop-color:#56D6D4"/>
   <stop offset="0" style="stop-opacity:1; stop-color:#56D6D4"/>
   <stop offset="1" style="stop-opacity:1; stop-color:#00674B"/>
  </linearGradient>
  <linearGradient id="id3" gradientUnits="userSpaceOnUse" x1="15115.15" y1="3339.86" x2="18138.72" y2="12950.25">
   <stop offset="0" style="stop-opacity:1; stop-color:#B1DB90"/>
   <stop offset="1" style="stop-opacity:1; stop-color:#2ABA90"/>
  </linearGradient>
  <linearGradient id="id4" gradientUnits="userSpaceOnUse" xlink:href="#id3" x1="24284.39" y1="8868.05" x2="18353.47" y2="16938.14">
  </linearGradient>
  <linearGradient id="id5" gradientUnits="userSpaceOnUse" x1="-3457.69" y1="11195.11" x2="18494.99" y2="20523.19">
   <stop offset="0" style="stop-opacity:1; stop-color:#6BD3FF"/>
   <stop offset="1" style="stop-opacity:1; stop-color:#8582C8"/>
  </linearGradient>
  <linearGradient id="id6" gradientUnits="userSpaceOnUse" x1="14771.86" y1="23171.23" x2="3825.01" y2="23171.23">
   <stop offset="0" style="stop-opacity:1; stop-color:#FFB14B"/>
   <stop offset="1" style="stop-opacity:1; stop-color:#FFD64B"/>
  </linearGradient>
  <linearGradient id="id7" gradientUnits="userSpaceOnUse" xlink:href="#id2" x1="11385.95" y1="2159.94" x2="15218.61" y2="17490.61">
  </linearGradient>
  <linearGradient id="id8" gradientUnits="userSpaceOnUse" xlink:href="#id1" x1="-169.19" y1="18683.09" x2="15691.01" y2="21094.33">
  </linearGradient>
  <linearGradient id="id9" gradientUnits="userSpaceOnUse" xlink:href="#id3" x1="32730.32" y1="15256.47" x2="26769.93" y2="20522.27">
  </linearGradient>
  <linearGradient id="id10" gradientUnits="userSpaceOnUse" xlink:href="#id6" x1="14494.61" y1="23171.25" x2="4915.27" y2="23171.25">
  </linearGradient>
  <linearGradient id="id11" gradientUnits="userSpaceOnUse" xlink:href="#id5" x1="31907.66" y1="10026.28" x2="16467.52" y2="23593.59">
  </linearGradient>
  <linearGradient id="id12" gradientUnits="userSpaceOnUse" xlink:href="#id3" x1="24531.55" y1="-829.1" x2="22874.98" y2="14632.28">
  </linearGradient>
  <linearGradient id="id13" gradientUnits="userSpaceOnUse" xlink:href="#id2" x1="18572.28" y1="9506.65" x2="15636.49" y2="18633.81">
  </linearGradient>
  <linearGradient id="id14" gradientUnits="userSpaceOnUse" xlink:href="#id2" x1="5312.16" y1="4293.08" x2="13246.48" y2="19365.13">
  </linearGradient>
  <linearGradient id="id15" gradientUnits="userSpaceOnUse" x1="13681.1" y1="14857.17" x2="21248.57" y2="10107.62">
   <stop offset="0" style="stop-opacity:1; stop-color:#2A6464"/>
   <stop offset="1" style="stop-opacity:1; stop-color:#2ABA90"/>
  </linearGradient>
  <linearGradient id="id16" gradientUnits="userSpaceOnUse" xlink:href="#id15" x1="28952.2" y1="18228.62" x2="30891.45" y2="21328.35">
  </linearGradient>
  <linearGradient id="id17" gradientUnits="userSpaceOnUse" xlink:href="#id15" x1="16772.92" y1="13354.02" x2="17400.13" y2="13650.63">
  </linearGradient>
  <linearGradient id="id18" gradientUnits="userSpaceOnUse" xlink:href="#id15" x1="29718.94" y1="16029.83" x2="30891.32" y2="18864.46">
  </linearGradient>
  <linearGradient id="id19" gradientUnits="userSpaceOnUse" xlink:href="#id15" x1="14885.29" y1="12719.24" x2="5951.46" y2="12719.24">
  </linearGradient>
  <linearGradient id="id20" gradientUnits="userSpaceOnUse" xlink:href="#id3" x1="22990.39" y1="10887.84" x2="18562.77" y2="16302.85">
  </linearGradient>
 </defs>
 <g id="Layer_x0020_1">
  <metadata id="CorelCorpID_0Corel-Layer"/>
  <g id="_2285373315008">
   <g>
    <g>
     <g>
      <path class="fil0" d="M12372.27 20110.83c-0.92,-400.1 -269.65,-747.41 -382.99,-1133.48 -985.42,-3356.82 -2499.07,-1143.9 -2300.55,-3078.94 162.2,-1581.4 -2107.3,-2344.17 -2292.69,-1655.39 -147.19,546.8 -865.51,845.9 -1213.19,383.74 -437.79,-581.89 -266.2,-1413.67 -656.7,-2024.11 -227.31,-355.34 -642.42,-600.17 -1083.38,-638.99 -398.98,-35.12 -811.31,87.66 -1196.49,-16.16 -686.13,-184.91 -1037.94,-1015.96 -1745.21,-1106.54 -60.36,-7.74 -124.09,-9.08 -179.7,14.02 -113.29,46.99 -155.03,174.37 -184.13,286.91 -77.03,297.83 -147.38,635.7 33.34,892.06 162.2,230.13 486.1,327.18 643.44,560.21 158.07,234.07 105.57,539.59 10.78,801.19 -94.79,261.62 -228.23,521.83 -216.23,798 17.16,395.06 340.5,735.65 723.97,904.09 383.5,168.43 819.18,194.48 1242.56,197.32 111.19,0.75 225.09,0.54 329.59,36.09 333.56,113.51 411.39,569.89 200.73,835.89 -82.38,103.99 -196.59,186.78 -258.04,302.72 -159.67,301.19 129.28,670.4 473.98,769.11 344.71,98.71 713.82,18.08 1070.87,-26.21 357.04,-44.32 760.18,-38.18 1026.18,189.34 338.74,289.75 302.58,793.18 496.79,1181.79 208.93,417.96 679.43,676.59 1158.87,787.05 479.43,110.46 979.51,97.69 1472.47,121.29 1036.11,49.62 2080.06,270.53 2970.89,768.9l-145.14 -149.91z"/>
     </g>
     <g>
      <path class="fil1" d="M2080.18 11998.27c273.45,933.92 1123.21,1728.83 1888.14,2346.53 806.93,651.59 1708.25,1193.33 2617.78,1709.68 1904.89,1081.4 3900.01,2084.35 5374.53,3685.66 41.59,45.17 109.05,-17.98 70.36,-63.35 -1300.34,-1523.48 -3140.46,-2486.49 -4907.46,-3462.34 -896.64,-495.18 -1791.65,-999.83 -2617.39,-1595.23 -927.89,-669.07 -2043.34,-1548.35 -2390.41,-2629.44 -6.74,-21.03 -41.81,-12.95 -35.56,8.49z"/>
     </g>
    </g>
    <g>
     <path class="fil2" d="M24402.89 17558.85c408.76,203.63 879.41,235.12 1335.84,249.77 987.54,31.71 1989.7,-0.07 2938.88,-274.37 243.73,-70.43 487.15,-158.85 689.39,-312.02 202.24,-153.18 360.4,-380.16 380.58,-633.07 27.91,-349.21 -199.39,-659.19 -346.68,-977.02 -45.02,-97.2 -83.77,-205.72 -57.68,-309.61 61.28,-244.02 393.48,-270.6 643.68,-244.05 207.23,22 414.46,43.98 621.68,65.98 257.58,27.33 567.73,32.34 716.33,-179.82 125.77,-179.58 58.75,-445.07 -102.63,-593.45 -161.38,-148.41 -390.36,-199.76 -609.47,-207.69 -219.1,-7.93 -438.55,21.61 -657.41,8.54 -52.08,-3.12 -107.15,-9.83 -148.21,-42.05 -98.9,-77.51 -52.84,-237.43 20.35,-339.6 162.81,-227.35 421.12,-383.96 698,-423.19 270.92,-38.38 543.9,31.1 816.28,57.26 272.4,26.19 575.22,-2.36 770.33,-194.23 187.83,-184.74 240.64,-471.31 230.23,-734.56 -15.04,-380.6 -544.49,-854.68 -1037.23,-551.57 -272.43,167.56 -539.84,343.1 -809.76,514.63 -174.69,111 -431.05,211.9 -562.47,52.03 -106.28,-129.33 -30.64,-324.46 65.1,-461.77 376.3,-539.77 1006.45,-831.85 1507.64,-1258.14 773.52,-657.99 -419.69,-1811.26 -1404.67,-1155.36 -259.24,172.64 -473.76,410.66 -626.57,682.04 -176.81,313.99 -272.47,678.48 -511.34,948.28 -86.37,97.59 -196.35,183.04 -325.29,202.09 -128.94,19.06 -276.32,-46.85 -316.21,-170.92 -40.84,-127.09 36.38,-257.68 83.45,-382.57 137.6,-365.05 11.68,-788.07 -226.26,-1097.25 -138.23,-179.58 -340.06,-340.86 -565.98,-323 -271.7,21.51 -460.09,297.32 -503.53,566.34 -43.44,269.04 15.53,543.03 20.15,815.48 4.62,272.47 -63.37,574.27 -286.69,730.44 -36.68,25.63 -79.31,47.16 -123.95,44.12 -36.75,-2.53 -70.31,-21.47 -100.22,-42.93 -213.29,-153.13 -287.1,-429.79 -404.62,-664.56 -117.5,-234.83 -360.87,-464.86 -610.73,-384.23 -204.4,65.95 -295.91,313.07 -280.55,527.3 15.36,214.19 106.94,415.31 146.31,626.45 119.49,640.45 -323.44,1335.11 -954.54,1497 -177.44,45.51 -364.95,53.69 -535.17,121.42 -285.52,113.58 -486.08,384.4 -583.55,675.81 -97.47,291.41 -105.13,604.45 -101.73,911.7 8.74,791.36 136.7,1680.6 770.31,2154.8l338.57 505.55z"/>
     <g>
      <path class="fil3" d="M31067.75 10664.71c-32.39,12 -64.27,23.24 -96.15,34.44 30.96,-13.75 61.82,-27.7 91.26,-44.17 6.21,-3.46 11.37,7.33 4.89,9.73z"/>
      <path class="fil3" d="M30667.87 10791.02c100.73,-24.56 201.34,-55.9 303.72,-91.87 -95.98,42.61 -198.25,72.77 -303.72,91.87z"/>
      <path class="fil4" d="M25906.34 11757.02c-327.57,1215.72 -635.38,2475.29 -317.35,3721.72 441.59,-599.66 903.19,-1184.93 1388.7,-1748.5 72.35,-1073.57 403.07,-2098.58 730.35,-3117.59 3.36,-10.46 19.18,-5.4 16.21,5.11 -278.29,984.18 -528.91,1968.31 -638.09,2986.1 746.19,-854.66 1550.57,-1655.29 2423.65,-2379.14 -5.87,-5.67 -9.61,-13.02 -5.23,-22.97 222.73,-509.03 529.2,-960.89 920.49,-1354.92 3.89,-3.89 9.42,2.36 5.72,6.3 -367.49,389.68 -652.05,827.72 -858.65,1320.34 146.22,-120.13 294.89,-237.55 444.8,-353.49 -3.04,-13 3.02,-28.04 19.42,-25.5 3.85,0.58 7.89,0.88 11.75,1.44 252.3,-194.21 509.49,-382.79 774.13,-562.64 3.92,-2.68 8.69,4.19 4.77,6.94 -256.1,179.7 -505.11,366.8 -748.79,559.4 189.92,25.41 394.26,26.77 589.66,-8.59 -202.94,49.4 -407.45,71.4 -633.61,45.9 -1.12,-0.15 -1.44,-1.14 -2.46,-1.41 -788.97,628.03 -1515.38,1320.61 -2194.66,2058.31 1058.36,401.75 2128.2,-25.85 3195.32,-156.95 5.35,-0.63 7.23,7.52 1.75,8.32 -1067.22,155.61 -2159.94,627.33 -3225.89,219.61 -9.76,-3.72 -15.82,-10.22 -19.79,-17.6 -246.65,269.51 -486.44,545.53 -721.39,825.99 -2.73,21.49 -16.65,34.44 -33.17,38.96 -200.19,239.89 -396.23,483.52 -588.9,730.05 1104.57,334.31 2228.25,452.2 3372.3,264.1 5.38,-0.9 7.16,7.23 1.75,8.3 -1142.05,227.91 -2315.25,181.75 -3413.5,-221.27 -395.25,507.91 -775.76,1028.52 -1145.07,1557.16 1082.26,449.01 2249.93,781.06 3385.27,310.12 4.99,-2.07 8.86,5.38 3.82,7.57 -1138.64,497.91 -2329.08,181.63 -3433.28,-254.05 -114.29,164.18 -227.77,328.91 -339.98,494.47 -46.02,67.88 -153.69,-0.37 -107.62,-68.34 249.09,-367.49 504.87,-731.25 767.61,-1090.04 -365.2,-1286.9 -18.25,-2551.2 353.78,-3798.36 3.12,-10.54 19.03,-5.38 16.18,5.14z"/>
     </g>
    </g>
    <g>
     <path class="fil5" d="M7977.96 20443.42c-182.87,305.96 -478.85,524.87 -772.62,726.74 -635.58,436.72 -1307.52,837.94 -2046.77,1057.43 -189.8,56.36 -387,100.78 -584.42,85.32 -197.4,-15.5 -396.93,-98.05 -516.69,-255.73 -165.44,-217.72 -146.6,-517.13 -183.69,-788.05 -11.34,-82.82 -31.59,-170.45 -92.48,-227.72 -143.05,-134.56 -372.55,-12.12 -525.77,110.71 -126.92,101.73 -253.81,203.46 -380.72,305.16 -157.75,126.45 -359.45,260.38 -546.46,183.55 -158.29,-65.03 -226.04,-267.73 -182.5,-433.19 43.54,-165.49 172.38,-295.67 313.02,-393.16 140.64,-97.49 297.3,-170.5 435.6,-271.26 32.9,-24 66.27,-51.59 79.68,-90.05 32.34,-92.6 -65.27,-178.29 -156.39,-214.6 -202.75,-80.82 -438.45,-74.93 -636.92,15.89 -194.18,88.88 -344.29,249.5 -512.26,381.41 -167.97,131.91 -379,240.71 -588,196.79 -201.24,-42.3 -356.66,-208.35 -460.67,-385.74 -150.4,-256.41 -2.17,-790.94 449.31,-799.27 249.57,-4.62 499.22,-1.92 748.84,-2.87 161.55,-0.61 372.5,-42.3 391.53,-202.7 15.38,-129.74 -116.52,-226.11 -237.26,-276.03 -474.59,-196.18 -1011.7,-122.73 -1520.59,-191.8 -785.42,-106.6 -487.05,-1366.97 436.46,-1350.81 243.05,4.26 484.25,70.33 698.98,184.3 248.41,131.88 464.78,331.08 735.38,407.79 97.88,27.74 206.13,37.6 298.88,-4.19 92.75,-41.79 161.86,-147.16 135.8,-245.51 -26.7,-100.71 -132.44,-153.98 -215.99,-216.26 -244.15,-181.94 -339.57,-512.95 -313.41,-816.3 15.19,-176.25 79.87,-367.22 235.87,-450.62 187.59,-100.29 427.55,1.61 569.41,160.09 141.86,158.51 218.47,363.37 330.2,544.36 111.73,180.99 283.5,350.69 496.03,359.26 34.87,1.39 71.99,-2.41 100.02,-23.22 23.07,-17.11 37.16,-43.71 47.77,-70.41 75.69,-190.46 7.64,-403.36 -14.02,-607.13 -21.66,-203.8 41.37,-457.46 239.52,-509.71 162.11,-42.74 326.31,81.09 406.45,228.35 80.12,147.24 104.62,317.96 167.68,473.28 191.21,471.21 774.86,741.13 1257.72,581.72 135.77,-44.83 262.45,-118.42 402.8,-145.63 235.46,-45.58 481.33,47.89 668.09,198.34 186.78,150.45 323.65,352.93 450.84,556.27 327.55,523.68 617.96,1161.91 401.31,1740.37l-9.56 474.81z"/>
     <g>
      <path class="fil3" d="M694.79 18720.06c26.31,-5.72 52.01,-11.78 77.68,-17.84 -26.14,3.99 -52.3,7.84 -78.56,9.42 -5.57,0.32 -4.4,9.59 0.88,8.42z"/>
      <path class="fil3" d="M1010.75 18634.66c-76.54,26.31 -155.88,48.07 -238.28,67.56 81.02,-12.41 160.91,-35.7 238.28,-67.56z"/>
      <path class="fil4" d="M4546.5 17264.09c727.26,660.91 1460.04,1358.99 1776,2311.99 -542.73,-208.08 -1092.57,-398.27 -1648.96,-564.1 -499.68,-675 -1148.7,-1209.29 -1792.94,-1741.1 -6.62,-5.45 -14.87,4.55 -8.49,10.2 597.37,529.54 1176.54,1070.67 1676.92,1693.52 -850.28,-247.36 -1716.06,-434.7 -2594.64,-542.64 1.48,-6.21 0.85,-12.61 -6.23,-17.33 -360.77,-240.69 -752.44,-408.54 -1175.54,-502.68 -4.19,-0.92 -5.18,5.52 -1.07,6.55 405.57,101.29 777.07,269.31 1120.32,506.01 -146.7,-17.38 -293.84,-31.91 -441.2,-44.95 -3.46,-9.83 -13.77,-17.16 -23.48,-8.59 -2.29,2 -4.82,3.89 -7.13,5.91 -247.58,-21.39 -496.01,-36.99 -745.65,-43.71 -3.7,-0.1 -3.94,6.4 -0.19,6.57 243.95,10.22 486.37,28.3 727.62,52.23 -114.09,96.67 -247.8,183.65 -391.07,242.69 154.15,-53.01 297.81,-124.68 435.65,-236.7 0.71,-0.54 0.49,-1.34 1.05,-1.92 782.96,80.41 1551.98,229.59 2309.05,428.25 -526.28,709.73 -1409.39,879.31 -2165.83,1242.61 -3.8,1.83 -1.58,7.98 2.36,6.21 766.83,-347.24 1683.54,-497.44 2212.28,-1214.31 4.87,-6.57 6.08,-13.39 5.6,-19.91 275.59,73.23 549.43,153.64 821.9,238.96 10.85,12.97 25.46,15.62 38.23,11.63 232.56,73.33 464,150.86 694.45,231.73 -585.06,684.86 -1273.79,1235.58 -2104.81,1593.79 -3.89,1.68 -1.65,7.79 2.36,6.21 846.46,-331.22 1597.98,-855.66 2149.91,-1583.03 473.64,167.29 942.9,349.16 1408.27,540.98 -522.07,750.89 -1149.55,1460.84 -2093.94,1629.54 -4.16,0.73 -3.55,7.28 0.68,6.6 957.92,-152.37 1606.98,-861.57 2149.11,-1612.92 144.22,59.77 288.17,120.22 431.66,181.75 58.8,25.24 100.83,-64.98 41.93,-90.24 -318.47,-136.58 -639.74,-267.87 -963.49,-392.99 -302.02,-999.49 -1062.47,-1684.15 -1832.19,-2346.99 -6.52,-5.6 -14.8,4.45 -8.49,10.17z"/>
     </g>
    </g>
    <g>
     <g>
      <path class="fil6" d="M19950.11 19820.47c-237.38,-430.05 -184.94,-945.43 -305.52,-1420.05 -1048.35,-4126.49 1730.1,-2553.41 386.1,-4525.62 -1098.34,-1611.78 637.23,-3634.26 1226.33,-2993.11 467.66,508.95 1338.94,449.13 1399.17,-231.39 75.83,-856.87 -585.1,-1658.92 -571.87,-2521.39 7.71,-502.02 262.45,-985.03 664.81,-1260.55 364.05,-249.28 835.04,-336.16 1144.85,-651.91 551.93,-562.4 396.42,-1641.2 1024.92,-2113.55 53.66,-40.33 114.36,-75.54 181.77,-80.26 137.31,-9.64 253.42,104.99 348.55,210.42 251.69,278.9 520.81,604.31 499.12,975.39 -19.47,333.1 -274.2,609.05 -287.25,942.71 -13.12,335.07 219.52,635.29 466.8,865.85 247.26,230.59 530.98,439.21 683.89,742.08 218.74,433.19 109.59,970.36 -160.14,1354.56 -269.7,384.2 -674.59,643.24 -1081.4,870.84 -106.86,59.75 -216.86,119.91 -296.57,213.53 -254.22,298.76 -57.51,829.98 304.16,1003.82 141.42,67.97 300.95,96.3 429.28,188.17 333.46,238.67 274.54,788.32 0.71,1077.1 -273.79,288.78 -678,397.98 -1048.89,539.77 -370.89,141.79 -756.24,362.18 -877.39,747.5 -154.27,490.73 180.46,1012.04 224.48,1532.24 47.34,559.55 -252.64,1086.71 -649.45,1459.55 -396.81,372.86 -886.95,624.36 -1348.55,911.14 -970.21,602.77 -1795.18,1155.66 -2357.92,2163.15z"/>
     </g>
     <g>
      <path class="fil7" d="M25049.37 5652.53c292.41,1147.72 -54.12,2451.78 -424.34,3520.6 -390.53,1127.5 -937.57,2187.07 -1507.66,3223.79 -1193.99,2171.25 -2521.78,4306.07 -2990.84,6807.24 -13.24,70.55 -115.94,38.53 -105.6,-30.69 347.36,-2325.23 1549.35,-4335.01 2673.15,-6319.77 570.23,-1007.15 1133.29,-2023.6 1575.44,-3100.72 496.86,-1210.41 1049.47,-2745.99 740.52,-4090.69 -6.04,-26.16 32.61,-36.04 39.33,-9.76z"/>
     </g>
    </g>
    <g>
     <g>
      <path class="fil8" d="M13942.36 19625.92c-1149.5,-309.2 -2307.44,-621.59 -3375.56,-1147.06 -1711.73,-842.17 -3148.69,-2232.24 -4047.08,-3915.15 -97.57,-182.7 -169.68,-450.45 4.58,-562.47 76.76,-49.35 175.37,-44.68 265.98,-33.95 228.64,27.06 454,81.6 669.7,162.08 148.77,55.49 329.47,119.25 453.22,19.79 84.3,-67.75 104.89,-187.78 101,-295.86 -18.79,-520.37 -455.39,-936.6 -924.58,-1162.54 -469.14,-225.99 -992.57,-322.39 -1460.33,-551.23 -467.78,-228.84 -900.05,-651.84 -909.22,-1172.47 -2.24,-127.31 31.32,-270.24 139.86,-336.77 48.89,-29.98 107.15,-40.45 164.22,-45.85 634.82,-60.04 1172.86,418.32 1707.13,766.41 58.92,38.35 126.94,77.03 195.59,61.86 97.13,-21.49 139.86,-136.92 144.97,-236.29 27.89,-539.64 -513.68,-906.45 -964.3,-1204.74 -614.33,-406.67 -1206.79,-937.33 -1395.08,-1649.59 -41.4,-156.63 -60.18,-330.49 13.39,-474.83 170.92,-335.26 704.74,-262.86 961.98,11.83 257.29,274.66 351.11,661.67 549.11,981.7 48.31,78.1 111.19,157.95 201.12,176.68 148.75,31.08 279.05,-133.78 273.74,-285.62 -5.35,-151.86 -99.71,-284.16 -190.22,-406.2 -716.86,-967 -1463.71,-2065.58 -1328.23,-3261.66 13.85,-122.34 40.28,-250.45 122.83,-341.76 158.6,-175.44 449.01,-137.55 656.46,-23.92 541.69,296.69 782.28,947.89 870.5,1559.16 88.25,611.29 71.5,1247.48 293.57,1823.8 78.32,203.26 191.7,402.41 371.45,525.46 179.75,123.05 437.4,151.06 611.68,20.35 228.4,-171.28 222.75,-509.44 194.86,-793.57 -22.27,-226.92 -44.54,-453.81 -66.8,-680.7 -13.12,-133.78 -13.87,-295.5 98.1,-369.85 145.73,-96.74 334.36,45.19 426.89,193.57 268.48,430.61 278.22,978.85 169.82,1474.64 -108.4,495.74 -323.34,960.86 -481.55,1443.02 -41.86,127.6 -80.24,260.55 -67.12,394.21 17.16,175.01 121.61,331.05 248.5,452.76 246.34,236.26 590.12,367.63 931.2,355.95 254.34,-8.71 505.91,-92.94 758.84,-64.83 423.29,47.02 776.05,449.91 766.75,875.71 -8.23,376.12 -259.14,704.55 -542.37,952.2 -283.21,247.68 -610.95,446.56 -860.52,728.06 -111.73,126.04 -209.64,276.93 -217.21,445.19 -10.68,237.02 160.74,446.34 356.58,580.26 294.57,201.44 666.32,286.91 1019.27,234.34 323.39,-48.16 619.93,-204.84 936.04,-288.27 316.13,-83.45 691.75,-77.29 923.87,152.93 338.82,335.97 176.64,915.01 -75.98,1319.83 -252.59,404.79 -589.12,820 -536.43,1294.23 36.16,325.5 253,599.68 474.71,840.74 476.15,517.76 1016.62,976.29 1605.03,1361.74l-240.01 96.71z"/>
     </g>
     <g>
      <path class="fil9" d="M6015.1 5601.4c1221.41,2588.48 1537.04,5498.38 2681.98,8127.63 568.34,1305.18 1229.86,2620.44 2177.41,3695.68 1063.49,1206.84 2449.88,1758.7 3943.53,2247.96 110.39,36.16 75.47,215.55 -36.43,179.12 -1286.86,-419.15 -2568.09,-870.99 -3576.77,-1809.75 -991.26,-922.56 -1663.3,-2124.77 -2238.06,-3336.01 -687.71,-1449.16 -1211.48,-2961.25 -1609.29,-4514.01 -396.66,-1548.23 -732.76,-3110.21 -1402.92,-4569.98 -17.28,-37.62 43.22,-57.34 60.55,-20.64z"/>
     </g>
    </g>
    <g>
     <g>
      <path class="fil10" d="M17075.62 20182.48c809.29,-872.96 1624.04,-1753.05 2249.45,-2765.9 1002.21,-1623.24 1480.43,-3564.48 1346.85,-5467.5 -14.48,-206.62 -95.74,-471.74 -302.87,-474.01 -91.26,-0.97 -172.28,55.39 -243.34,112.65 -179.29,144.46 -341.18,310.42 -481.09,493.26 -96.52,126.09 -215.67,276.12 -373.37,257.68 -107.42,-12.56 -188.66,-103.29 -242.81,-196.91 -260.7,-450.77 -112.12,-1035.38 165.15,-1476.15 277.27,-440.79 669.41,-800.68 943.95,-1243.15 274.57,-442.49 415.87,-1030.56 146.87,-1476.46 -65.78,-109 -170.16,-212.22 -297.47,-210.88 -57.36,0.58 -112.27,22.68 -163.47,48.45 -569.65,286.59 -771.09,977.75 -1038.6,1556.6 -29.5,63.84 -66.56,132.73 -132.78,156.39 -93.7,33.41 -191.24,-41.64 -248.38,-123.07 -310.49,-442.27 -46.78,-1040.86 176.37,-1533.05 304.16,-671.01 523.92,-1435.43 304.79,-2138.81 -48.19,-154.66 -124.68,-311.92 -263.71,-395.08 -323,-193.14 -736.67,151.98 -808.56,521.37 -71.89,369.41 54.34,747.09 56.75,1123.41 0.58,91.82 -10.27,192.89 -76.44,256.56 -109.47,105.38 -307.49,35.02 -383.69,-96.42 -76.2,-131.47 -66.59,-293.67 -54.81,-445.17 93.19,-1200.12 141.81,-2527.64 -608.74,-3468.74 -76.76,-96.25 -167.19,-190.7 -285.69,-224.17 -227.6,-64.3 -453.42,122.17 -568.7,328.67 -301.14,539.25 -158.8,1218.71 91.41,1783.37 250.21,564.69 602.53,1094.64 720.76,1700.85 41.74,213.8 51.52,442.73 -35.29,642.49 -86.83,199.78 -290.19,360.5 -507.25,342.39 -284.55,-23.66 -459.5,-313.09 -586.91,-568.6 -101.75,-204.02 -203.5,-408.03 -305.26,-612.07 -59.99,-120.3 -145.31,-257.65 -279.7,-261.11 -174.84,-4.48 -259.16,216.01 -258.68,390.9 1.48,507.45 284.64,977 640.01,1339.28 355.32,362.33 784.64,642 1174.95,966.34 103.26,85.81 206.42,178.02 266.37,298.2 78.49,157.39 72.96,345.05 30.18,515.62 -83.09,331.05 -304.4,625.07 -599.51,796.47 -220.08,127.79 -477.93,190.19 -677.22,348.45 -333.54,264.81 -418.15,793.6 -183.96,1149.33 206.91,314.21 594.01,458.99 965.56,518.23 371.5,59.24 754.83,53.47 1115.86,159.26 161.62,47.34 324.77,123.12 420.61,261.62 135.04,195.08 101.09,463.49 6.42,681.04 -142.44,327.21 -411.9,597.18 -738.82,740.28 -299.49,131.13 -633.92,156.05 -946.04,253.42 -312.12,97.37 -626.99,302.24 -701.24,620.61 -108.4,464.66 336.8,868.94 765.93,1077.53 429.11,208.61 934.87,381.43 1142.32,811.12 142.37,294.94 104.45,642.42 44.78,964.44 -128.08,691.65 -342.13,1367.34 -635.63,2006.59l254.68 -45.63z"/>
     </g>
     <g>
      <path class="fil11" d="M16230.65 4121.67c341.35,2841.73 1620.78,5474.26 2048.62,8309.88 212.36,1407.64 351.18,2873.32 120.13,4287.75 -259.28,1587.51 -1140.25,2791.91 -2145.29,4000.28 -74.28,89.32 50.67,222.71 126.06,132.34 867.17,-1039.06 1712.24,-2102.82 2067.58,-3434.16 349.23,-1308.32 279.41,-2683.83 122.41,-4015.32 -187.81,-1593.01 -547.92,-3152.19 -1036.38,-4678.89 -486.98,-1522.24 -1032.58,-3023.92 -1240.86,-4616.61 -5.38,-41.06 -67.12,-25.58 -62.28,14.72z"/>
     </g>
    </g>
    <g>
     <path class="fil12" d="M19326.36 14326.4c241.71,-470.99 381.55,-999.12 379.51,-1531.73 -2.09,-538.89 -167.39,-1067.97 -354.51,-1579.53 -207.28,-566.71 -443.34,-1124.02 -706.98,-1669.09 -793.5,557.24 -1561.23,1159.26 -2200.82,1880.92 -639.59,721.66 -1180.36,1563.76 -1369.77,2508.66 -325.5,1623.72 504.45,3119.24 504.45,3119.24 0,0 2442.92,-185.06 3748.13,-2728.47z"/>
     <path class="fil13" d="M16757.18 15262.31c319.86,-534.31 618.62,-1082.38 879.09,-1650.18 494.08,-1076.9 830.59,-2220.73 904.11,-3431.05 1.7,-28.3 -42.47,-30.91 -44.85,-3.21 -107.37,1248.99 -498.54,2435.36 -1032.51,3538.74 -252.1,520.93 -535.7,1025.04 -836.97,1517.45 -316.69,517.64 -685.32,1005.84 -985.88,1532.85 -33.58,58.92 53.52,108.88 93.77,58.8 387.2,-481.75 705.77,-1033.05 1023.24,-1563.39z"/>
    </g>
    <g>
     <path class="fil14" d="M32025.23 18809.66c360.18,-353.86 648.06,-787.51 811.87,-1265.12 165.73,-483.21 184.06,-1003.58 177.66,-1514.38 -7.08,-565.9 -42.52,-1131.46 -106.18,-1693.81 -874.93,275.83 -1741,599.03 -2531,1065.41 -790,466.39 -1530,1068.46 -1991.31,1861.42 -792.72,1362.66 -523.82,2935.6 -523.82,2935.6 0,0 2217.78,521.59 4162.78,-1389.12z"/>
     <path class="fil15" d="M29462.35 18925.05c449.01,-388.56 883.57,-795.35 1290.51,-1230.61 771.74,-825.48 1424.97,-1755.24 1866.31,-2818.56 10.32,-24.87 -27.94,-39.62 -38.65,-15.5 -483.33,1088.44 -1198.1,2040.93 -2013.38,2878.89 -384.91,395.64 -792.45,767.34 -1211.95,1123.58 -441.03,374.52 -918.81,708.03 -1348.45,1095.5 -48.02,43.32 13.48,112.53 64.64,79.02 492.19,-322.54 945.31,-726.62 1390.97,-1112.31z"/>
    </g>
    <g>
     <path class="fil16" d="M29532.64 21426.5c364.08,105.18 760.06,131.76 1145.99,58.89 390.46,-73.72 758.53,-259.84 1111.87,-458.8 391.43,-220.42 773.35,-459.6 1143.8,-716.35 -478.31,-477.97 -986.66,-932 -1569.75,-1280.75 -583.06,-348.72 -1244.22,-612.46 -1946.94,-617.67 -1207.61,-8.93 -2214.06,769.77 -2214.06,769.77 0,0 362.96,1676.88 2329.08,2244.9z"/>
     <path class="fil17" d="M28613.49 19762.42c417.33,151.13 842.61,285.71 1278.65,391.02 826.99,199.71 1687.73,280.68 2572.06,169.55 20.66,-2.6 18.4,-33.73 -1.87,-31.66 -915.55,92.72 -1812.24,-20.61 -2662.15,-244.56 -401.26,-105.74 -793.28,-235.68 -1178.48,-379.48 -404.94,-151.18 -793.35,-342.49 -1203.6,-481.16 -45.85,-15.48 -73.89,51.89 -33.83,73.2 385.52,205.09 815.01,353.08 1229.23,503.09z"/>
    </g>
    <g>
     <path class="fil18" d="M21796.03 15606.78c371.45,-281.02 688.97,-651.28 901.19,-1084.81 214.75,-438.65 302.36,-937.91 366.49,-1432.15 71.04,-547.5 116.6,-1099.46 136.41,-1653.07 -822.46,119.13 -1643.46,285.49 -2415.79,602.89 -772.35,317.4 -1518.44,774.2 -2040.64,1462.18 -897.37,1182.21 -871.33,2745.97 -871.33,2745.97 0,0 1917.83,876.54 3923.67,-641.01z"/>
     <path class="fil19" d="M19481.55 15287.16c455.85,-299.61 901.26,-619.27 1325.77,-971.04 805.08,-667.14 1518.15,-1454.9 2059.43,-2407.2 12.66,-22.29 -19.64,-42.95 -32.54,-21.47 -582.38,969.5 -1353.73,1768.84 -2199.58,2440.71 -399.34,317.23 -815.7,607.54 -1240.69,880.92 -446.8,287.39 -920.93,529.03 -1359.28,830.81 -48.99,33.76 -3.31,110.93 47.16,87.17 485.57,-228.6 947.26,-542.52 1399.73,-839.91z"/>
    </g>
    <g>
     <path class="fil20" d="M15745.57 20597.52c377.93,-195.55 662.88,-540.96 927.5,-885.4 572.52,-745.17 1106.25,-1539.3 1431.15,-2436.16 83.43,-230.27 153.37,-471.01 152.52,-718.25 -0.85,-247.21 -80.8,-504.09 -256.61,-669.58 -242.78,-228.57 -598.42,-236.43 -915.4,-310.85 -96.93,-22.78 -198.73,-57.09 -261.06,-138.84 -146.43,-192.04 18.64,-464.78 177.42,-642.61 131.47,-147.29 262.93,-294.57 394.43,-441.83 163.45,-183.06 339.6,-420.05 265.3,-660.74 -62.86,-203.72 -296.49,-309.2 -495.98,-272.3 -199.51,36.87 -364.78,183.6 -492.48,348.41 -127.67,164.78 -227.84,352.08 -359.21,513.63 -31.27,38.45 -66.85,77.07 -113.51,89.75 -112.31,30.57 -204.96,-99.85 -239.86,-217.01 -77.61,-260.7 -49.82,-553.34 75.1,-790.77 122.24,-232.34 325.43,-402.34 496.23,-597.56 170.8,-195.21 318.08,-446.41 284.62,-711.02 -32.2,-254.81 -214.75,-465.51 -415.23,-613.46 -289.88,-213.92 -934.9,-85.3 -984.69,475.54 -27.52,310.05 -46.41,620.95 -69.6,931.44 -15.02,200.9 -82.94,459.02 -274.28,465.95 -154.73,5.57 -257,-168.61 -305.33,-324.02 -189.97,-611 -55.63,-1271.62 -92.29,-1911.97 -56.56,-988.34 -1573.01,-748.74 -1635.55,401.95 -16.45,302.85 40.3,609.85 156.07,888.92 133.93,322.85 350.3,612.87 417.06,957.58 24.14,124.65 26.21,260.38 -31.39,371.4 -57.58,111.05 -188.29,186.03 -302.24,143.34 -116.69,-43.73 -170.36,-180.87 -236.55,-291.34 -193.5,-322.78 -576.42,-476.05 -937.35,-475.2 -209.71,0.49 -441.2,61.04 -553.61,246.41 -135.14,222.92 -35.9,532.12 138.91,725.16 174.84,193.06 410.27,309.81 614.36,467.73 204.11,157.9 389.53,389.34 380.85,654.66 -1.44,43.56 -9.2,89.34 -36.29,122.02 -22.27,26.94 -54.95,41.69 -87.44,52.11 -231.86,74.28 -477.54,-32.64 -716.55,-80.85 -238.99,-48.26 -544.44,3.67 -623.75,244.78 -64.88,197.23 67.02,414.46 234,529.54 166.97,115.06 366.66,163.4 544.73,258.04 540.13,287.15 807.64,1041.49 576.46,1625.65 -65,164.25 -163.2,314.16 -207.76,485.98 -74.74,288.17 14.04,603.84 175.4,851.96 161.33,248.09 388.61,439.55 617.74,619.01 590.17,462.25 1319.03,890.24 2022.04,681.11l562.15 37.7z"/>
     <g>
      <path class="fil3" d="M14352.29 11355.73c-9.1,32.15 -18.52,63.47 -27.99,94.79 7.06,-32.1 13.9,-64.25 18.08,-96.79 0.88,-6.86 11.73,-4.45 9.91,2z"/>
      <path class="fil3" d="M14223.38 11739.93c37.87,-92.48 70.6,-188.9 100.92,-289.41 -21.83,99.49 -56.41,196.47 -100.92,289.41z"/>
      <path class="fil4" d="M12290.38 15995.99c717.03,973.88 1477.48,1958.53 2576.22,2451.17 -197.98,-697 -374.23,-1400.97 -521.07,-2110.56 -753.83,-692.21 -1328.08,-1555.53 -1899.8,-2412.65 -5.87,-8.81 6.69,-18.03 12.8,-9.52 573.2,798.59 1161.74,1575.71 1853.83,2263.34 -217.25,-1083.76 -362.16,-2180.53 -412.07,-3284.93 -7.45,1.19 -14.97,-0.29 -19.91,-9.59 -252.66,-474.01 -416.48,-978.85 -490.34,-1515.09 -0.73,-5.33 6.98,-5.89 7.84,-0.68 83.89,515.18 249.65,994.96 499.12,1446.75 -7.54,-184.33 -11.73,-368.92 -14.14,-553.61 -11.29,-5.33 -19.03,-18.93 -8.06,-30.13 2.58,-2.63 5.04,-5.6 7.62,-8.23 -3.38,-310.27 0.15,-621.03 14.29,-932.34 0.19,-4.6 7.91,-4.23 7.76,0.44 -9.47,304.6 -9.54,608.13 -2.58,910.78 124.36,-131.86 239.01,-289.12 321.49,-461.23 -76.3,186.25 -173.74,357.51 -318.35,517.35 -0.73,0.78 -1.65,0.44 -2.39,1.07 25.82,982.57 134.17,1954.97 302.09,2917.69 885.61,-580.68 1164.2,-1661.74 1660.59,-2564.97 2.48,-4.53 9.56,-1.12 7.13,3.6 -478.31,917.81 -736.99,2042.71 -1631.24,2625.72 -8.18,5.33 -16.35,6.18 -24.02,4.89 62.2,350.52 133.02,699.61 209.81,1047.58 14.38,14.85 16.23,33.29 10.39,48.77 66.1,297.01 137.31,593.06 212.53,888.24 861.42,-656.41 1573.4,-1455.8 2070.35,-2452.34 2.34,-4.7 9.32,-1.24 7.13,3.58 -466.41,1018.57 -1152.88,1898.83 -2061.64,2509.56 155.9,606.79 329.42,1209.68 515.06,1808.71 933.85,-571.14 1828.66,-1277.7 2111.6,-2435.09 1.27,-5.09 8.93,-3.67 7.74,1.53 -264.83,1175.95 -1160.64,1909.41 -2096.86,2505.47 57.9,185.69 116.65,371.11 176.68,556.05 24.63,75.81 -85.71,118.69 -110.37,42.76 -133.29,-410.49 -260.14,-823.95 -379.43,-1239.84 -1154.9,-480.16 -1897.07,-1497.85 -2612.62,-2524.77 -6.06,-8.69 6.6,-17.94 12.8,-9.49z"/>
     </g>
    </g>
   </g>
   <g>
    <g>
     <g>
      <polygon class="fil21" points="7165.86,19115.09 6924.22,19004.8 12759.18,6221.21 13000.82,6331.5 "/>
     </g>
     <g>
      <path class="fil21" d="M6881.85 19417.52c-197.47,-90.14 -284.5,-323.31 -194.38,-520.76 90.14,-197.47 323.31,-284.5 520.78,-194.38 3327.3,1518.71 7269.78,47.31 8788.52,-3279.99 1518.66,-3327.32 47.31,-7269.78 -3279.99,-8788.49 -197.44,-90.12 -284.5,-323.29 -194.35,-520.78 90.14,-197.47 323.31,-284.45 520.76,-194.33 3721.6,1698.68 5367.35,6108.41 3668.67,9830.01 -1698.66,3721.63 -6108.41,5367.4 -9830.01,3668.72z"/>
     </g>
     <path class="fil22" d="M15618.94 15249.95c-1425.92,3123.94 -5114.3,4500.5 -8238.26,3074.61 -3123.96,-1425.92 -4500.5,-5114.3 -3074.61,-8238.21 1425.89,-3123.96 5114.27,-4500.52 8238.24,-3074.63 3123.96,1425.92 4500.48,5114.27 3074.63,8238.24z"/>
     <path class="fil23" d="M15618.94 15249.95c-215.7,472.52 -483.43,904.77 -792.87,1293.69 -737.7,307.59 -1561.86,411.71 -2349.81,273.74 -100.44,-17.6 -205.26,-41.25 -281.41,-109.05 -229.4,-204.19 -32.78,-574.2 -34.49,-881.31 -1.44,-260.28 -158.14,-490.51 -304.57,-705.69 -329.47,-484.2 -649.67,-1076.51 -452.15,-1627.86 199.27,-556.24 862.71,-855.49 1027.52,-1422.87 157.75,-543.07 -201.31,-1100.36 -210.15,-1665.8 -6.81,-436.58 202.68,-858.89 510.07,-1168.94 307.42,-310.03 705.67,-516.91 1118.2,-659.89 217.13,-75.22 455.61,-131.35 683.52,-125.77 1646.33,1785.42 2157.72,4451.92 1086.13,6799.76zm-7547.46 3220.31l0 0c315.75,-158.72 587.39,-443.05 645.17,-791.7 62.08,-374.69 -128.18,-746.65 -364.66,-1043.83 -236.48,-297.18 -525.87,-554.59 -719.35,-881.4 -82.65,-139.64 -147.7,-295.81 -145.63,-458.07 5.65,-442.3 486.59,-752.54 544,-1191.14 50.6,-386.42 -253.47,-741.32 -603.55,-912.56 -350.06,-171.21 -747.36,-212.41 -1122.12,-319.3 -374.74,-106.86 -758.48,-310.05 -910.61,-668.82 -191.21,-451.01 47.43,-997.71 -203.72,-1427.5 -160.65,-274.93 -589.56,-454.88 -962.35,-512.12 -1295.59,3084.88 87,6661.73 3152.02,8060.73 176.13,80.38 354.12,151.4 533.34,214.16 53.35,-20.54 106.11,-42.64 157.46,-68.46zm-1721.36 -10864.03l0 0c18.67,68.7 44.85,136.04 74.96,200.12 298.27,635.17 942.95,1114.14 1037.18,1809.49 25.63,189 13.41,399.71 134.66,546.94 62.93,76.44 153.98,123.87 245.19,162.37 779.73,329.11 1761.54,90.7 2303.47,-559.36 526.99,-632.1 615.79,-1521.07 1032,-2231 118.47,-202.09 268.58,-406.59 262.69,-640.81 -2.56,-101.27 -35.02,-197.03 -83.21,-286.42 -1759.13,-406.72 -3581.62,-16.5 -5006.95,998.66z"/>
     <polygon class="fil21" points="10572.25,22842.34 9352.74,22842.34 9352.74,19936.53 10572.25,19936.53 "/>
     <path class="fil21" d="M14776.33 23875.17l-9627.67 0c-314.77,0 -569.94,-255.17 -569.94,-569.94 0,-314.77 255.17,-569.94 569.94,-569.94l9627.67 0c314.77,0 569.94,255.17 569.94,569.94 0,314.77 -255.17,569.94 -569.94,569.94z"/>
    </g>
    <g>
     <g>
      <g>
       <path class="fil24" d="M27985.72 17748.87c609.68,0 1105.69,-496.03 1105.69,-1105.69 0,-609.68 -496.01,-1105.64 -1105.69,-1105.64l-12966.14 0c431.27,737.11 431.27,1474.25 0,2211.34l12966.14 0z"/>
      </g>
      <path class="fil25" d="M27985.72 17748.87c628.16,0 1135.63,-526.55 1104.3,-1161.4 -29.3,-593.91 -541.69,-1049.94 -1136.31,-1049.94l-13104.49 0c-94.09,0 -170.36,-76.25 -170.36,-170.33l0 -0.07c0,-94.09 76.27,-170.36 170.36,-170.36l13136.52 0c798.83,0 1446.41,647.58 1446.41,1446.41 0,798.83 -647.58,1446.41 -1446.41,1446.41l-13136.52 0c-94.09,0 -170.36,-76.27 -170.36,-170.36 0,-94.09 76.27,-170.36 170.36,-170.36l13136.5 0z"/>
      <path class="fil26" d="M28628.53 15745.35l-1044.22 11.49 -1969.94 12.44 -3939.88 10.39 -3939.88 -10.25 -1969.91 -12.46 -634.02 -7.01c-4.62,-9.78 -9.2,-19.59 -13.97,-29.4l647.99 -7.16 1969.91 -12.46 3939.88 -10.22 3939.88 10.37 1969.94 12.46 1016.04 11.15c9.69,6.52 18.71,13.87 28.18,20.66zm256.24 256.61l0 0c-3.6,-5.01 -7.42,-9.88 -11.1,-14.82l-1289.36 -14.19 -1969.94 -12.44 -3939.88 -10.37 -3939.88 10.22 -1969.91 12.46 -539.25 5.96c3.72,10.59 6.91,21.17 10.44,31.76l528.81 5.84 1969.91 12.46 3939.88 10.22 3939.88 -10.37 1969.94 -12.44 1300.46 -14.31zm136.72 257.95l0 0c-1.44,-3.92 -2.82,-7.86 -4.31,-11.78l-1432.88 -15.72 -1969.94 -12.46 -3939.88 -10.37 -3939.88 10.22 -1969.91 12.46 -465.54 5.14c2.39,11.12 3.89,22.24 6.11,33.37l459.43 5.06 1969.91 12.46 3939.88 10.25 3939.88 -10.39 1969.94 -12.44 1437.18 -15.79zm-13904.79 1305.91l0 0 647.99 7.16 1969.91 12.46 3939.88 10.25 3939.88 -10.39 1969.94 -12.44 1016.06 -11.17c9.71,-6.5 18.74,-13.85 28.21,-20.66l-1044.27 -11.49 -1969.94 -12.44 -3939.88 -10.39 -3939.88 10.25 -1969.91 12.46 -634 7.01c-4.62,9.81 -9.2,19.59 -13.99,29.4zm13756.96 -266.56l0 0c3.67,-4.99 7.5,-9.83 11.1,-14.85l-1300.46 -14.29 -1969.94 -12.46 -3939.88 -10.37 -3939.88 10.22 -1969.91 12.46 -528.76 5.84c-3.55,10.59 -6.74,21.17 -10.46,31.76l539.23 5.99 1969.91 12.46 3939.88 10.22 3939.88 -10.39 1969.94 -12.44 1289.36 -14.16zm143.51 -261.04l0 0c1.48,-3.87 2.85,-7.84 4.31,-11.75l-1437.18 -15.77 -1969.94 -12.46 -3939.88 -10.37 -3939.88 10.22 -1969.91 12.46 -459.43 5.06c-2.19,11.12 -3.72,22.24 -6.11,33.37l465.54 5.14 1969.91 12.46 3939.88 10.22 3939.88 -10.37 1969.94 -12.44 1432.88 -15.77zm65.13 -260.14l0 0c0.44,-3.48 1.19,-6.86 1.58,-10.34l-1499.58 -16.5 -1969.94 -12.44 -3939.88 -10.37 -3939.88 10.22 -1969.91 12.46 -425.77 4.7c-0.68,11.39 -1,22.78 -1.87,34.14l427.65 4.72 1969.91 12.46 3939.88 10.22 3939.88 -10.37 1969.94 -12.44 1498 -16.48zm1.58 -259.45l0 0c-0.39,-3.48 -1.14,-6.86 -1.58,-10.34l-1498 -16.45 -1969.94 -12.46 -3939.88 -10.37 -3939.88 10.22 -1969.91 12.46 -427.65 4.72c0.88,11.39 1.17,22.78 1.87,34.14l425.77 4.7 1969.91 12.48 3939.88 10.22 3939.88 -10.39 1969.94 -12.44 1499.58 -16.5z"/>
      <polygon class="fil25" points="16423.93,17653.64 16989.03,17330.94 17554.11,17653.64 17554.11,16224.52 16423.93,16224.52 "/>
     </g>
     <g>
      <g>
       <path class="fil24" d="M16125.3 20641.69c-609.68,0 -1105.67,-496.03 -1105.67,-1105.72 0,-609.66 495.98,-1105.62 1105.67,-1105.62l12966.14 0c-431.27,737.11 -431.27,1474.22 0,2211.34l-12966.14 0z"/>
      </g>
      <path class="fil27" d="M16125.3 20641.69c-628.16,0 -1135.63,-526.55 -1104.3,-1161.42 29.3,-593.89 541.69,-1049.91 1136.31,-1049.91l13104.49 0c94.09,0 170.36,-76.27 170.36,-170.36l0 -0.07c0,-94.06 -76.27,-170.33 -170.36,-170.33l-13136.52 0c-798.83,0 -1446.41,647.58 -1446.41,1446.41 0,798.83 647.58,1446.38 1446.41,1446.38l13136.52 0c94.09,0 170.36,-76.27 170.36,-170.36 0,-94.06 -76.27,-170.33 -170.36,-170.33l-13136.5 0z"/>
      <path class="fil26" d="M15510.67 18617.5l1016.04 -11.17 1969.91 -12.44 3939.88 -10.39 3939.88 10.22 1969.94 12.48 647.99 7.16c-4.77,9.78 -9.32,19.59 -13.97,29.4l-634.02 7.01 -1969.94 12.46 -3939.88 10.22 -3939.88 -10.39 -1969.91 -12.44 -1044.22 -11.46c9.47,-6.81 18.5,-14.16 28.18,-20.66zm1016.04 291.58l0 0 1969.91 12.41 3939.88 10.39 3939.88 -10.22 1969.94 -12.46 528.79 -5.87c3.55,-10.59 6.74,-21.15 10.46,-31.74l-539.25 -5.99 -1969.94 -12.46 -3939.88 -10.22 -3939.88 10.39 -1969.91 12.44 -1289.36 14.16c-3.67,4.96 -7.5,9.81 -11.1,14.85l1300.46 14.31zm0 259.41l0 0 1969.91 12.46 3939.88 10.37 3939.88 -10.22 1969.94 -12.46 459.43 -5.09c2.21,-11.12 3.72,-22.22 6.11,-33.34l-465.54 -5.16 -1969.94 -12.46 -3939.88 -10.22 -3939.88 10.37 -1969.91 12.46 -1432.88 15.75c-1.48,3.89 -2.87,7.84 -4.31,11.75l1437.18 15.79zm12453.61 1260.74l0 0 -634 -7.03 -1969.94 -12.46 -3939.88 -10.22 -3939.88 10.39 -1969.91 12.44 -1044.27 11.49c9.47,6.79 18.5,14.14 28.21,20.64l1016.06 11.17 1969.91 12.44 3939.88 10.39 3939.88 -10.22 1969.94 -12.46 647.97 -7.16c-4.77,-9.81 -9.35,-19.62 -13.97,-29.4zm-12453.61 -223.02l0 0 1969.91 12.44 3939.88 10.39 3939.88 -10.22 1969.94 -12.46 539.23 -5.96c-3.72,-10.61 -6.91,-21.2 -10.44,-31.78l-528.79 -5.84 -1969.94 -12.46 -3939.88 -10.22 -3939.88 10.39 -1969.91 12.44 -1300.46 14.29c3.6,5.04 7.42,9.88 11.1,14.85l1289.36 14.16zm0 -259.43l0 0 1969.91 12.44 3939.88 10.39 3939.88 -10.22 1969.94 -12.46 465.54 -5.16c-2.39,-11.1 -3.92,-22.22 -6.11,-33.34l-459.43 -5.09 -1969.94 -12.46 -3939.88 -10.22 -3939.88 10.37 -1969.91 12.46 -1437.18 15.79c1.46,3.92 2.82,7.86 4.31,11.75l1432.88 15.75zm0 -259.41l0 0 1969.91 12.41 3939.88 10.39 3939.88 -10.22 1969.94 -12.48 427.65 -4.72c-0.88,-11.37 -1.19,-22.75 -1.87,-34.12l-425.77 -4.72 -1969.94 -12.46 -3939.88 -10.22 -3939.88 10.39 -1969.91 12.44 -1499.58 16.48c0.39,3.5 1.14,6.89 1.58,10.37l1498 16.48zm0 -259.45l0 0 1969.91 12.44 3939.88 10.39 3939.88 -10.22 1969.94 -12.46 425.77 -4.7c0.71,-11.39 1,-22.78 1.87,-34.14l-427.65 -4.75 -1969.94 -12.44 -3939.88 -10.25 -3939.88 10.39 -1969.91 12.44 -1498 16.45c-0.44,3.48 -1.19,6.86 -1.58,10.37l1499.58 16.48z"/>
      <polygon class="fil27" points="28045.98,20036.24 27480.88,19713.56 26915.78,20036.24 26915.78,18607.11 28045.98,18607.11 "/>
     </g>
     <g>
      <g>
       <path class="fil24" d="M27985.72 23534.48c609.68,0 1105.69,-496.03 1105.69,-1105.69 0,-609.68 -496.01,-1105.64 -1105.69,-1105.64l-12966.14 0c431.27,737.11 431.27,1474.22 0,2211.34l12966.14 0z"/>
      </g>
      <path class="fil21" d="M27985.72 23534.48c628.16,0 1135.63,-526.55 1104.3,-1161.42 -29.3,-593.89 -541.69,-1049.91 -1136.31,-1049.91l-13104.49 0c-94.09,0 -170.36,-76.27 -170.36,-170.36l0 -0.05c0,-94.09 76.27,-170.36 170.36,-170.36l13136.52 0c798.83,0 1446.41,647.58 1446.41,1446.41 0,798.83 -647.58,1446.38 -1446.41,1446.38l-13136.52 0c-94.09,0 -170.36,-76.25 -170.36,-170.33 0,-94.09 76.27,-170.36 170.36,-170.36l13136.5 0z"/>
      <path class="fil26" d="M28628.53 21530.95l-1044.22 11.49 -1969.94 12.44 -3939.88 10.37 -3939.88 -10.22 -1969.91 -12.46 -634.02 -7.01c-4.62,-9.81 -9.2,-19.59 -13.97,-29.4l647.99 -7.16 1969.91 -12.46 3939.88 -10.22 3939.88 10.37 1969.94 12.46 1016.04 11.15c9.69,6.52 18.71,13.87 28.18,20.66zm256.24 256.61l0 0c-3.6,-5.01 -7.42,-9.88 -11.1,-14.82l-1289.36 -14.19 -1969.94 -12.44 -3939.88 -10.37 -3939.88 10.22 -1969.91 12.46 -539.25 5.96c3.72,10.59 6.91,21.17 10.44,31.76l528.81 5.84 1969.91 12.46 3939.88 10.22 3939.88 -10.37 1969.94 -12.44 1300.46 -14.31zm136.72 257.95l0 0c-1.44,-3.94 -2.82,-7.89 -4.31,-11.75l-1432.88 -15.77 -1969.94 -12.44 -3939.88 -10.39 -3939.88 10.25 -1969.91 12.46 -465.54 5.14c2.39,11.12 3.89,22.24 6.11,33.34l459.43 5.09 1969.91 12.46 3939.88 10.22 3939.88 -10.37 1969.94 -12.44 1437.18 -15.79zm-147.82 1039.33l0 0c3.67,-4.94 7.5,-9.81 11.1,-14.82l-1300.46 -14.31 -1969.94 -12.44 -3939.88 -10.39 -3939.88 10.25 -1969.91 12.46 -528.76 5.84c-3.55,10.59 -6.74,21.17 -10.46,31.76l539.23 5.96 1969.91 12.46 3939.88 10.25 3939.88 -10.39 1969.94 -12.44 1289.36 -14.19zm143.51 -261.01l0 0c1.48,-3.89 2.85,-7.84 4.31,-11.75l-1437.18 -15.79 -1969.94 -12.44 -3939.88 -10.37 -3939.88 10.22 -1969.91 12.46 -459.43 5.06c-2.19,11.12 -3.72,22.24 -6.11,33.37l465.54 5.14 1969.91 12.48 3939.88 10.2 3939.88 -10.37 1969.94 -12.44 1432.88 -15.77zm65.13 -260.14l0 0c0.44,-3.48 1.19,-6.86 1.58,-10.34l-1499.58 -16.5 -1969.94 -12.44 -3939.88 -10.37 -3939.88 10.22 -1969.91 12.46 -425.77 4.7c-0.68,11.39 -1,22.75 -1.87,34.14l427.65 4.72 1969.91 12.46 3939.88 10.22 3939.88 -10.37 1969.94 -12.44 1498 -16.48zm1.58 -259.43l0 0c-0.39,-3.5 -1.14,-6.89 -1.58,-10.37l-1498 -16.48 -1969.94 -12.44 -3939.88 -10.37 -3939.88 10.22 -1969.91 12.46 -427.65 4.72c0.88,11.39 1.17,22.75 1.87,34.14l425.77 4.7 1969.91 12.46 3939.88 10.22 3939.88 -10.37 1969.94 -12.44 1499.58 -16.48z"/>
      <polygon class="fil21" points="19534.12,23439.25 20099.25,23116.57 20664.32,23439.25 20664.32,22010.1 19534.12,22010.1 "/>
     </g>
    </g>
    <g>
     <path class="fil28" d="M15264.48 22508.63c151.81,727.91 2216.57,725.24 2367.21,-5.43 3800.53,-1161.33 7603.97,-938.11 11409.59,316.04 158.36,52.2 270.21,254.83 270.21,486.78 0,319.3 -207.32,557.31 -425.58,487 -3753.78,-1209.34 -7182.63,-1873.88 -10931.44,-728.37 -555.78,1045.22 -2341.46,1101.09 -2981.5,41.88 -3690.69,-1116.64 -7152.6,-566.29 -10962.96,683.47 -218.33,71.6 -426.31,-166.46 -426.31,-486.15 0,-230.91 110.98,-432.95 268.48,-485.88 3864.56,-1298.49 7670.66,-1441.42 11412.29,-309.34z"/>
     <path class="fil29" d="M16447.61 20335.85c3990.35,-2138.84 8331.28,-2782.2 12321.53,-328.55 108.25,1168.36 197.81,2013.89 272.13,2811.94 -3690.48,-1155.51 -7723.93,-1461.47 -11409.61,-335.24 -77.56,829.59 -2285.39,821.22 -2367.19,5.43 -3629.41,-1098.12 -7667.05,-863.66 -11412.29,328.55 153.88,-845.43 270.92,-1851.69 377.9,-2847.35 4066.53,-1917.52 8371.55,-2018.05 12217.52,365.22z"/>
     <path class="fil26" d="M15315.98 20559.77c-126.43,-47.58 -252.66,-95.79 -380.8,-135.7 -255.24,-84.25 -508.91,-175.81 -766.83,-246.22l-385.42 -112.51 -388.07 -96.86c-1034.56,-259.24 -2086.29,-407.11 -3140.15,-443.93 -1053.83,-35.19 -2110.8,44.76 -3151.83,258.02 -520.61,105.31 -1036.55,247.33 -1544.8,424.55 -254.34,87.56 -506.98,183.86 -755.95,293.7 -215.43,94.84 -428.98,197.37 -637.14,315.5 0.15,-1.22 0.32,-2.46 0.46,-3.7 205.57,-123.85 416.96,-232.42 630.42,-333.39 247.33,-117.23 498.68,-221.05 752.08,-316.23 507.57,-187.13 1023.92,-337.28 1545.31,-451.74 1043.2,-229.5 2105.2,-308.49 3163.44,-281.02 1057.99,44.32 2114.16,192.21 3149.59,467l388.1 103.5 385.2 119.13c257.68,75.01 511.12,170.31 765.66,259.72 127.55,43.71 253.1,95.69 378.8,146.99l377.17 153.13c250.04,107.2 497.61,223.36 746.38,334.53 -250.89,-103.94 -500.36,-212.78 -752.08,-312.58l-379.56 -141.91zm13511.41 312l0 0c-235.75,-149.74 -480.77,-275.54 -728.08,-392.53 -247.33,-117.23 -498.68,-221.05 -752.08,-316.23 -507.57,-187.13 -1023.9,-337.28 -1545.31,-451.74 -1043.2,-229.5 -2105.2,-308.49 -3163.41,-281.02 -1058.02,44.32 -2114.18,192.21 -3149.62,467l-388.1 103.5 -385.2 119.13c-257.68,75.01 -511.12,170.31 -765.68,259.72 -127.52,43.71 -253.08,95.69 -378.78,146.99l-377.17 153.13c-250.04,107.2 -497.61,223.36 -746.34,334.53 250.84,-103.94 500.32,-212.78 752.05,-312.58l379.53 -141.91c126.43,-47.58 252.66,-95.79 380.8,-135.7 255.24,-84.25 508.91,-175.81 766.83,-246.22l385.42 -112.51 388.07 -96.86c1034.58,-259.24 2086.29,-407.11 3140.17,-443.93 1053.81,-35.19 2110.78,44.76 3151.83,258.02 520.59,105.31 1036.53,247.33 1544.78,424.55 254.34,87.56 506.98,183.86 755.97,293.7 248.97,109.59 495.91,228.08 734.31,370.94zm-13511.41 -753.15l0 0c-126.43,-47.55 -252.66,-95.77 -380.8,-135.7 -255.24,-84.25 -508.91,-175.81 -766.83,-246.22l-385.42 -112.51 -388.07 -96.86c-1034.56,-259.24 -2086.29,-407.11 -3140.15,-443.93 -1053.83,-35.19 -2110.8,44.76 -3151.83,258.02 -520.61,105.31 -1036.55,247.36 -1544.8,424.58 -254.34,87.56 -506.98,183.84 -755.95,293.67 -215.43,94.84 -428.98,197.37 -637.14,315.53 0.15,-1.24 0.32,-2.48 0.46,-3.72 205.57,-123.85 416.96,-232.42 630.42,-333.36 247.33,-117.25 498.68,-221.08 752.08,-316.26 507.57,-187.1 1023.92,-337.28 1545.31,-451.71 1043.2,-229.52 2105.2,-308.49 3163.44,-281.02 1057.99,44.29 2114.16,192.19 3149.59,466.97l388.1 103.53 385.2 119.13c257.68,74.98 511.12,170.28 765.66,259.72 127.55,43.71 253.1,95.67 378.8,146.97l377.17 153.13c250.04,107.2 497.61,223.36 746.38,334.53 -250.89,-103.94 -500.36,-212.75 -752.08,-312.56l-379.56 -141.93zm13511.41 312l0 0c-235.75,-149.74 -480.77,-275.54 -728.08,-392.5 -247.33,-117.25 -498.68,-221.08 -752.08,-316.26 -507.57,-187.1 -1023.9,-337.28 -1545.31,-451.71 -1043.2,-229.52 -2105.2,-308.49 -3163.41,-281.02 -1058.02,44.29 -2114.18,192.19 -3149.62,466.97l-388.1 103.53 -385.2 119.13c-257.68,74.98 -511.12,170.28 -765.68,259.72 -127.52,43.71 -253.08,95.67 -378.78,146.97l-377.17 153.13c-250.04,107.2 -497.61,223.36 -746.34,334.53 250.84,-103.94 500.32,-212.75 752.05,-312.56l379.53 -141.93c126.43,-47.55 252.66,-95.77 380.8,-135.7 255.24,-84.25 508.91,-175.81 766.83,-246.22l385.42 -112.51 388.07 -96.86c1034.58,-259.24 2086.29,-407.11 3140.17,-443.93 1053.81,-35.19 2110.78,44.76 3151.83,258.02 520.59,105.31 1036.53,247.36 1544.78,424.58 254.34,87.56 506.98,183.84 755.97,293.67 248.97,109.61 495.91,228.11 734.31,370.94zm-11436.28 1954.34l0 0c13.48,5.06 26.65,10.29 39.67,15.58l148.43 -55.49c126.43,-47.55 252.66,-95.77 380.8,-135.7 255.24,-84.25 508.91,-175.81 766.83,-246.22l385.42 -112.51 388.07 -96.88c1034.58,-259.21 2086.29,-407.08 3140.17,-443.9 1053.81,-35.19 2110.78,44.76 3151.83,258.02 520.59,105.31 1036.53,247.33 1544.78,424.55 254.34,87.59 506.98,183.86 755.97,293.7 248.97,109.59 495.91,228.11 734.31,370.94 -235.75,-149.74 -480.77,-275.54 -728.08,-392.53 -247.33,-117.23 -498.68,-221.05 -752.08,-316.23 -507.57,-187.13 -1023.9,-337.28 -1545.31,-451.74 -1043.2,-229.5 -2105.2,-308.49 -3163.41,-280.99 -1058.02,44.29 -2114.18,192.19 -3149.62,466.97l-388.1 103.53 -385.2 119.13c-257.68,74.98 -511.12,170.28 -765.68,259.7 -127.52,43.73 -253.08,95.69 -378.78,146.99l-180.02 73.08zm-2075.12 -482.62l0 0 379.56 141.93c160.38,63.57 319.91,130.69 479.41,198.03 5.6,-0.44 11.15,-0.95 16.77,-1.34 -163.1,-74.18 -326.28,-148.26 -490.48,-218.67l-377.17 -153.1c-125.7,-51.33 -251.25,-103.29 -378.8,-146.99 -254.54,-89.44 -507.98,-184.74 -765.66,-259.72l-385.2 -119.13 -388.1 -103.53c-1035.43,-274.79 -2091.6,-422.66 -3149.59,-466.97 -1058.24,-27.5 -2120.24,51.5 -3163.44,280.99 -521.39,114.46 -1037.74,264.61 -1545.31,451.74 -253.39,95.18 -504.74,199 -752.08,316.23 -247.29,116.99 -492.33,242.81 -728.08,392.53 238.4,-142.83 485.37,-261.33 734.34,-370.92 248.97,-109.86 501.61,-206.13 755.95,-293.7 508.25,-177.24 1024.19,-319.27 1544.8,-424.58 1041.03,-213.26 2098,-293.21 3151.83,-258.02 1053.85,36.82 2105.59,184.69 3140.15,443.93l388.07 96.86 385.42 112.51c257.92,70.41 511.58,161.96 766.83,246.22 128.13,39.94 254.37,88.15 380.8,135.7zm-5061.27 -592.5l0 0c1053.85,36.82 2105.59,184.69 3140.15,443.9l388.07 96.88 385.42 112.51c257.92,70.41 511.58,161.96 766.83,246.22 128.13,39.94 254.37,88.15 380.8,135.7l146.99 54.95c12.61,-5.48 25.04,-11.07 38.06,-16.28l-176.98 -71.84c-125.7,-51.3 -251.25,-103.26 -378.8,-146.99 -254.54,-89.41 -507.98,-184.72 -765.66,-259.7l-385.2 -119.13 -388.1 -103.53c-1035.43,-274.79 -2091.6,-422.68 -3149.59,-466.97 -1058.24,-27.5 -2120.24,51.5 -3163.44,280.99 -521.39,114.46 -1037.74,264.61 -1545.31,451.74 -253.39,95.18 -504.74,199 -752.08,316.23 -247.29,116.99 -492.33,242.78 -728.08,392.53 238.4,-142.83 485.37,-261.35 734.34,-370.94 248.97,-109.83 501.61,-206.11 755.95,-293.7 508.25,-177.22 1024.19,-319.25 1544.8,-424.55 1041.03,-213.26 2098,-293.21 3151.83,-258.02zm6442.99 933.73l0 0c5.52,0.44 11.1,0.75 16.6,1.22 161.47,-68.14 323,-136.14 485.37,-200.51l379.53 -141.93c126.43,-47.55 252.66,-95.77 380.8,-135.7 255.24,-84.25 508.91,-175.81 766.83,-246.22l385.42 -112.51 388.07 -96.86c1034.58,-259.24 2086.29,-407.11 3140.17,-443.93 1053.81,-35.19 2110.78,44.76 3151.83,258.02 520.59,105.31 1036.53,247.33 1544.78,424.58 254.34,87.56 506.98,183.84 755.97,293.7 248.97,109.59 495.91,228.08 734.31,370.92 -235.75,-149.72 -480.77,-275.54 -728.08,-392.53 -247.33,-117.23 -498.68,-221.05 -752.08,-316.23 -507.57,-187.13 -1023.9,-337.28 -1545.31,-451.74 -1043.2,-229.5 -2105.2,-308.49 -3163.41,-280.99 -1058.02,44.32 -2114.18,192.19 -3149.62,466.97l-388.1 103.53 -385.2 119.13c-257.68,74.98 -511.12,170.28 -765.68,259.72 -127.52,43.71 -253.08,95.67 -378.78,146.99l-377.17 153.1c-166.15,71.23 -331.2,146.24 -496.25,221.27zm496.25 -668.8l0 0c-250.04,107.23 -497.61,223.36 -746.34,334.53 250.84,-103.94 500.32,-212.75 752.05,-312.56l379.53 -141.93c126.43,-47.55 252.66,-95.77 380.8,-135.7 255.24,-84.23 508.91,-175.78 766.83,-246.19l385.42 -112.53 388.07 -96.86c1034.58,-259.24 2086.29,-407.11 3140.17,-443.9 1053.81,-35.19 2110.78,44.76 3151.83,257.99 520.59,105.31 1036.53,247.36 1544.78,424.55 254.34,87.59 506.98,183.86 755.97,293.72 248.97,109.59 495.91,228.08 734.31,370.92 -235.75,-149.72 -480.77,-275.54 -728.08,-392.5 -247.33,-117.25 -498.68,-221.08 -752.08,-316.26 -507.57,-187.1 -1023.9,-337.28 -1545.31,-451.74 -1043.2,-229.47 -2105.2,-308.49 -3163.41,-280.99 -1058.02,44.32 -2114.18,192.19 -3149.62,467l-388.1 103.5 -385.2 119.13c-257.68,74.98 -511.12,170.31 -765.68,259.72 -127.52,43.71 -253.08,95.67 -378.78,146.99l-377.17 153.1zm-13092.98 -275.54l0 0c-0.07,0.41 -0.12,0.85 -0.19,1.27 228.23,-134.22 463.76,-247.55 701.36,-352.13 248.97,-109.83 501.61,-206.13 755.95,-293.7 508.25,-177.22 1024.19,-319.25 1544.8,-424.55 1041.03,-213.26 2098,-293.21 3151.83,-258.02 1053.85,36.8 2105.59,184.69 3140.15,443.9l388.07 96.86 385.42 112.53c257.92,70.41 511.58,161.96 766.83,246.22 128.13,39.91 254.37,88.12 380.8,135.68l379.56 141.93c251.72,99.81 501.19,208.61 752.08,312.58 -248.77,-111.19 -496.35,-227.33 -746.38,-334.56l-377.17 -153.1c-125.7,-51.3 -251.25,-103.29 -378.8,-146.99 -254.54,-89.41 -507.98,-184.72 -765.66,-259.72l-385.2 -119.13 -388.1 -103.5c-1035.43,-274.81 -2091.6,-422.68 -3149.59,-467 -1058.24,-27.48 -2120.24,51.52 -3163.44,281.02 -521.39,114.43 -1037.74,264.61 -1545.31,451.74 -253.39,95.18 -504.74,199 -752.08,316.23 -235.8,111.54 -469.33,231.73 -694.91,372.45zm13092.98 -171.99l0 0c-250.04,107.23 -497.61,223.36 -746.34,334.56 250.84,-103.97 500.32,-212.78 752.05,-312.58l379.53 -141.93c126.43,-47.55 252.66,-95.77 380.8,-135.68 255.24,-84.25 508.91,-175.81 766.83,-246.22l385.42 -112.53 388.07 -96.86c1034.58,-259.21 2086.29,-407.11 3140.17,-443.9 1053.81,-35.19 2110.78,44.76 3151.83,258.02 520.59,105.31 1036.53,247.33 1544.78,424.55 254.34,87.56 506.98,183.86 755.97,293.7 248.97,109.59 495.91,228.08 734.31,370.94 -235.75,-149.74 -480.77,-275.57 -728.08,-392.53 -247.33,-117.23 -498.68,-221.05 -752.08,-316.23 -507.57,-187.13 -1023.9,-337.31 -1545.31,-451.74 -1043.2,-229.5 -2105.2,-308.49 -3163.41,-281.02 -1058.02,44.32 -2114.18,192.19 -3149.62,467l-388.1 103.5 -385.2 119.13c-257.68,75.01 -511.12,170.31 -765.68,259.72 -127.52,43.71 -253.08,95.69 -378.78,146.99l-377.17 153.1zm-13126.15 639.57l0 0c238.4,-142.83 485.37,-261.33 734.34,-370.92 248.97,-109.86 501.61,-206.13 755.95,-293.72 508.25,-177.2 1024.19,-319.25 1544.8,-424.55 1041.03,-213.24 2098,-293.18 3151.83,-257.99 1053.85,36.8 2105.59,184.67 3140.15,443.9l388.07 96.86 385.42 112.53c257.92,70.41 511.58,161.96 766.83,246.19 128.13,39.94 254.37,88.15 380.8,135.7l379.56 141.93c251.72,99.81 501.19,208.61 752.08,312.56 -248.77,-111.17 -496.35,-227.31 -746.38,-334.53l-377.17 -153.1c-125.7,-51.33 -251.25,-103.29 -378.8,-146.99 -254.54,-89.41 -507.98,-184.74 -765.66,-259.72l-385.2 -119.13 -388.1 -103.5c-1035.43,-274.81 -2091.6,-422.68 -3149.59,-467 -1058.24,-27.5 -2120.24,51.52 -3163.44,280.99 -521.39,114.46 -1037.74,264.64 -1545.31,451.74 -253.39,95.18 -504.74,199 -752.08,316.26 -247.29,116.96 -492.33,242.78 -728.08,392.5z"/>
    </g>
    <g>
     <path class="fil30" d="M26140.82 23263.61c0,0 -948.57,392.38 -908.42,554.49 40.13,162.11 1657.09,-85.32 1707.18,-207.79 50.06,-122.44 -279.17,-424.65 -279.17,-424.65l-519.59 77.95z"/>
     <path class="fil30" d="M24986.85 23328.2c0,0 -989.02,274.88 -968.75,440.67 20.25,165.78 1655.26,115.53 1719.76,0 64.49,-115.5 -225.8,-455.27 -225.8,-455.27l-525.21 14.6z"/>
     <path class="fil31" d="M26247.52 16978.4l-350.6 3217.95c0,0 863.08,2970.59 835.34,3026.06 -4.19,8.44 -749.09,91.19 -749.09,91.19l-855.17 -3047.43 -324.9 -2926.08 1444.41 -361.69z"/>
     <g>
      <g>
       <polygon class="fil32" points="22090.41,13500.62 21964.37,13552.71 22339.76,14461.32 22465.8,14409.24 "/>
       <path class="fil33" d="M21547.21 12943.82c-19.03,172.3 89.22,378.39 241.76,460.31 152.54,81.89 291.6,8.64 310.61,-163.66 19.01,-172.3 -89.22,-378.39 -241.76,-460.28 -152.54,-81.92 -291.6,-8.66 -310.61,163.64z"/>
       <path class="fil32" d="M21776.97 13512.87c205.72,110.46 393.26,11.66 418.91,-220.71 25.63,-232.34 -120.35,-510.27 -326.06,-620.73 -205.72,-110.46 -393.26,-11.66 -418.91,220.71 -25.63,232.37 120.35,510.27 326.06,620.73zm-229.76 -569.02l0 0c19.01,-172.28 158.07,-245.56 310.61,-163.66 152.52,81.92 260.77,287.98 241.76,460.28 -19.01,172.28 -158.07,245.53 -310.61,163.62 -152.52,-81.89 -260.77,-287.95 -241.76,-460.23z"/>
      </g>
     </g>
     <path class="fil21" d="M25863.85 17174.19l-736.82 3152.02c0,0 506.4,2964.68 450.74,3020.92 -36.38,36.8 -737.74,24.92 -737.74,24.92 0,0 -577.88,-2520.29 -622.12,-3155.72 -44.24,-635.46 168.41,-2857.6 168.41,-2857.6l1477.53 -184.55z"/>
     <g>
      <path class="fil34" d="M24558.28 13841.44c0,0 493.53,1641.69 445.56,2045.26 -47.97,403.6 -1762.3,2018.69 -1944.95,2108.83 -182.67,90.12 -586.35,158.43 -586.35,158.43 0,0 -404.18,363.93 -499.07,354.32 -94.86,-9.59 260.31,-573.11 437.48,-689.68 177.17,-116.57 539.57,-112.05 539.57,-112.05 0,0 1268.16,-1448.26 1332.51,-1821.24 64.37,-372.99 -398.15,-1902.62 -398.15,-1902.62l673.4 -141.25z"/>
     </g>
     <polygon class="fil35" points="23759.52,12420.46 24222.33,12840.2 23782.74,13202.01 23395.83,12659.5 "/>
     <path class="fil35" d="M23763.63 11935.31c3.14,20.2 8.35,39.96 15.02,59.31 49.38,143 77.63,295.42 56.97,444.95 -22.07,159.67 -105.91,315.72 -243.88,399.05 -124.9,75.47 -282.77,84.59 -423.31,45.27 -140.54,-39.35 -265.22,-123.34 -372.26,-222.56 -167.8,-155.61 -369.75,-352.71 -345.9,-580.29 11.49,-109.86 221.78,-389.92 375.52,-581.79 93.53,-116.72 252.1,-158.8 391.58,-104.7l307.28 119.23c114.31,44.37 196.28,146.29 215.09,267.44l23.9 154.1z"/>
     <path class="fil30" d="M23378.58 11774.39c123.22,-115.09 231.27,67.05 233.83,135.82 2.56,68.78 -14.29,136.63 -30.98,203.38 133.34,71.67 193.84,227.11 246.63,368.99 70.09,-119.23 160.99,-282.4 195.25,-416.4 63.57,-248.58 -56.78,-1062.06 -699.2,-986.25 -969.67,-461.23 -1206.18,1122.02 -1367.21,1129.44 85.13,151.69 348.11,328.72 688.12,201.34 147.58,-55.27 279.58,-144.37 364.69,-277 41.88,-65.3 78.17,-135.29 132.42,-190.73 40.13,-41.03 257.95,267.39 289.68,229.03 30.66,-37.09 -206.94,-254.08 -53.22,-397.64z"/>
     <path class="fil25" d="M23699.36 13085.12c385.4,-616.55 1120.88,-514.99 1681.23,855.63 550.13,1345.6 1045.95,3199.77 1045.95,3199.77 -839.84,500.56 -1616.79,565.03 -2525.84,457.43 0,0 179.82,-1235.07 50.43,-2195.08 -104.96,-778.78 -563.47,-1819.1 -251.76,-2317.76z"/>
     <g>
      <path class="fil35" d="M24369.67 14031.38c176.61,-37.04 351.74,68.41 400.73,242.08 139.77,495.35 386.59,1734.55 86.74,1806.49 -299.85,71.94 -1918.17,-1031.47 -2469.87,-1508.37 -430.37,15.58 -442.61,-202.38 -430.37,-451.5 14.38,-293.11 284.64,-290.56 523.78,-54.49 350.86,346.36 1802.4,1242.51 1877.82,1252.1 75.42,9.56 -116.96,-383.35 -249.11,-858.38 -53.18,-191.19 66.07,-387.2 260.28,-427.94z"/>
      <path class="fil33" d="M24069.76 12979.82c712.73,-87.3 963.49,1374.64 963.49,1374.64 -253.49,226.5 -637.01,334.9 -1087.37,382.62 -8.91,-369.48 -518.45,-1678.6 123.87,-1757.26z"/>
     </g>
    </g>
    <g>
     <g>
      <path class="fil25" d="M8812.8 5771.1c-224.41,298.47 -140.23,714.75 47.85,669.58 188.05,-45.17 2032.7,73.42 2154.27,-29.76 121.59,-103.16 184.06,-641.69 -264.27,-738.69 -333.1,-72.06 -1937.84,98.88 -1937.84,98.88z"/>
      <path class="fil30" d="M10539.4 9962.98c-53.78,306.64 -145.24,774.69 -26.89,801.58 118.35,26.92 432.03,21.51 428.52,-80.7 -3.53,-102.21 -94.96,-704.74 -105.74,-769.29 -10.76,-64.57 -295.89,48.41 -295.89,48.41z"/>
      <path class="fil30" d="M9170.04 10084.52c-53.78,306.64 -145.24,774.69 -26.89,801.58 118.35,26.89 432.03,21.51 428.52,-80.7 -3.53,-102.21 -94.99,-704.74 -105.74,-769.29 -10.76,-64.57 -295.89,48.41 -295.89,48.41z"/>
      <g>
       <path class="fil30" d="M10808.59 775.37c43.42,344.54 115.43,1090.31 -151.23,1097.13 -352.4,8.98 -1322,1.73 -1364.05,0 -255.56,-10.66 -94.21,-1042.12 -94.96,-1174.27 -5.28,-935.29 1480.58,-951.88 1610.24,77.15z"/>
      </g>
      <polygon class="fil35" points="9016.6,3205.15 8808.55,4564.77 8548.02,5465.55 9077.56,5390.25 9453.49,4724.37 9491.58,2993.2 "/>
      <path class="fil33" d="M9775.13 1872.49c-546.63,97.03 -791.36,635.72 -918.47,1417.15l927.16 102 -19.96 -796.25 11.27 -722.9z"/>
      <path class="fil35" d="M11140.96 2844.04c136.99,886.86 181.31,1783.62 138.74,2689.65l-529.54 -75.3 -46.09 -1095.15 -38.09 -1731.17 474.98 211.97z"/>
      <path class="fil33" d="M10430.54 1872.49c546.65,97.03 791.36,635.72 918.47,1417.15l-927.16 102 19.96 -796.25 -11.27 -722.9z"/>
      <path class="fil32" d="M10984.06 4167.94c-114.85,-1879.65 -218.57,-2483.69 -1146.53,-2309.39 -762.23,143.17 -651.54,2235.7 -720.88,2497.05 -69.34,261.38 -404.16,1523.46 -404.16,1523.46 817.4,-28.81 1760.64,-15.11 2325.13,-18.64 0,0 -27.67,-1268.63 -53.57,-1692.48z"/>
      <path class="fil25" d="M8796.4 6203.56c-117.01,1228.47 273.79,4045.14 273.79,4045.14l488.61 -45.56c35.12,-176.88 220.83,-2845.02 225.02,-3999.58 2.07,-564.66 -922.63,-680.04 -987.42,0z"/>
      <path class="fil25" d="M10170.97 6203.56c-117.01,1228.47 273.76,4045.14 273.76,4045.14l488.63 -45.56c35.09,-176.88 220.83,-2845.02 225.02,-3999.58 2.07,-564.66 -922.63,-680.04 -987.42,0z"/>
      <path class="fil35" d="M10443.83 1004.82c-37.09,-261.23 -153.01,-336.33 -421,-200.53 -171.96,87.15 -495.79,150.89 -636.14,71.31 1.8,64.81 9.32,136.36 22.1,209.9 -9.03,-0.07 -17.98,0.49 -26.41,3.8 -18.59,7.37 -31.91,24.19 -40.98,42.03 -32.1,63.23 -17.08,145.24 30.71,197.61 31.03,33.97 74.25,53.98 119.71,61.84 81.77,213.31 208.61,386.59 372.26,390.58 16.11,68.95 17.08,131.47 -1.51,223.24 16.52,61.38 264.81,55.83 341.57,-16.4 -6.57,-84.64 -44.12,-149.35 -41.54,-227.09 176.66,-30.06 252.23,-259.65 318.91,-497.1 266.58,-158.48 75.88,-447.65 -37.67,-259.19z"/>
      <path class="fil35" d="M8958.65 4699.99c86.96,42.32 124.8,143.71 154.73,235.68 -132.64,-10.93 -265.64,-17.69 -398.71,-20.22 -48.48,-0.95 -233.37,31.61 -235.21,-36.16 -1.58,-57.14 118.08,-129.25 159.09,-151.13 91.12,-48.55 223.19,-75.32 320.1,-28.16z"/>
      <path class="fil35" d="M11075.13 4669.18c72.55,-31.59 152.37,-55.85 230.13,-41.06 77.73,14.8 150.6,79.46 150.94,158.6 0.07,12.48 -1.73,25.26 -7.69,36.24 -6.01,11.02 -15.87,19.49 -26.33,26.45 -38.31,25.53 -85.52,33.27 -131.27,38.53 -77.59,8.96 -155.61,12.31 -233.68,10.95 -52.81,-0.92 -139.04,11 -184.74,-23.61 -96.08,-72.79 146.39,-181.63 202.65,-206.11z"/>
     </g>
     <g>
      <path class="fil27" d="M9710.42 5700.98c33.34,159.92 486.98,159.33 520.08,-1.19 834.99,-255.15 1670.62,-206.11 2506.74,69.43 34.8,11.46 59.36,55.97 59.36,106.94 0,70.16 -45.53,122.46 -93.48,107.01 -824.72,-265.71 -1578.07,-411.71 -2401.7,-160.04 -122.1,229.64 -514.43,241.93 -655.05,9.22 -810.85,-245.34 -1571.45,-124.43 -2408.61,150.16 -47.97,15.72 -93.65,-36.58 -93.65,-106.81 0,-50.74 24.39,-95.13 58.97,-106.74 849.06,-285.3 1685.27,-316.69 2507.34,-67.97z"/>
      <path class="fil33" d="M9970.36 5223.62c876.68,-469.92 1830.42,-611.27 2707.1,-72.18 23.78,256.68 43.44,442.44 59.77,617.79 -810.8,-253.88 -1696.98,-321.1 -2506.74,-73.67 -109.88,-85.18 -400.44,-96.64 -520.08,1.19 -797.39,-241.25 -1684.49,-189.73 -2507.34,72.21 33.8,-185.76 59.53,-406.84 83.04,-625.6 893.43,-421.27 1839.28,-443.37 2684.25,80.26z"/>
      <path class="fil26" d="M9721.73 5209.07c-27.79,-11.9 -55.51,-23.95 -83.67,-33.95 -56.07,-21.05 -111.8,-43.95 -168.48,-61.57l-84.67 -28.13 -85.28 -24.22c-227.28,-64.83 -458.36,-101.83 -689.9,-111.02 -231.54,-8.81 -463.76,11.19 -692.48,64.52 -114.38,26.33 -227.72,61.86 -339.4,106.18 -55.88,21.9 -111.37,46 -166.07,73.47 -47.34,23.7 -94.26,49.35 -139.99,78.9 0.05,-0.32 0.07,-0.63 0.1,-0.95 45.17,-30.96 91.63,-58.12 138.5,-83.35 54.37,-29.33 109.59,-55.29 165.25,-79.09 111.51,-46.8 224.97,-84.35 339.52,-112.97 229.18,-57.41 462.52,-77.17 695.01,-70.28 232.44,11.07 464.49,48.07 691.99,116.79l85.25 25.89 84.64 29.79c56.61,18.74 112.29,42.59 168.22,64.95 28.01,10.93 55.61,23.92 83.21,36.75l82.89 38.31c54.93,26.82 109.32,55.85 163.98,83.67 -55.12,-26.02 -109.93,-53.22 -165.25,-78.17l-83.38 -35.51zm2968.5 78.02l0 0c-51.79,-37.45 -105.62,-68.9 -159.94,-98.15 -54.34,-29.33 -109.56,-55.29 -165.25,-79.09 -111.51,-46.8 -224.97,-84.35 -339.5,-112.97 -229.2,-57.41 -462.54,-77.17 -695.03,-70.28 -232.44,11.07 -464.49,48.07 -691.99,116.79l-85.25 25.89 -84.64 29.79c-56.61,18.74 -112.29,42.59 -168.22,64.95 -28.01,10.93 -55.61,23.92 -83.21,36.75l-82.87 38.31c-54.95,26.82 -109.35,55.85 -163.98,83.67 55.1,-26.02 109.93,-53.22 165.22,-78.17l83.38 -35.51c27.79,-11.9 55.51,-23.95 83.67,-33.95 56.07,-21.05 111.8,-43.95 168.48,-61.57l84.67 -28.13 85.28 -24.22c227.28,-64.83 458.36,-101.83 689.9,-111.02 231.54,-8.81 463.76,11.19 692.48,64.52 114.36,26.33 227.72,61.86 339.4,106.18 55.88,21.9 111.37,46 166.07,73.47 54.71,27.4 108.96,57.02 161.33,92.75zm-2512.6 378.46l0 0c2.97,1.27 5.87,2.56 8.71,3.89l32.61 -13.9c27.79,-11.88 55.51,-23.95 83.67,-33.93 56.07,-21.08 111.8,-43.98 168.48,-61.57l84.67 -28.16 85.28 -24.22c227.28,-64.83 458.36,-101.83 689.9,-111.02 231.54,-8.81 463.76,11.19 692.48,64.54 114.36,26.33 227.72,61.84 339.4,106.18 55.88,21.9 111.37,45.97 166.07,73.45 54.71,27.4 108.96,57.05 161.33,92.77 -51.79,-37.45 -105.62,-68.92 -159.94,-98.17 -54.34,-29.33 -109.56,-55.29 -165.25,-79.09 -111.51,-46.8 -224.97,-84.35 -339.5,-112.97 -229.2,-57.39 -462.54,-77.15 -695.03,-70.28 -232.44,11.07 -464.49,48.07 -691.99,116.79l-85.25 25.89 -84.64 29.79c-56.61,18.76 -112.29,42.59 -168.22,64.95 -28.01,10.93 -55.61,23.92 -83.21,36.77l-39.57 18.28zm-455.9 -120.71l0 0 83.38 35.48c35.24,15.92 70.28,32.71 105.33,49.55 1.24,-0.12 2.46,-0.24 3.7,-0.34 -35.85,-18.57 -71.7,-37.09 -107.76,-54.68l-82.89 -38.31c-27.6,-12.83 -55.2,-25.82 -83.21,-36.75 -55.93,-22.37 -111.61,-46.22 -168.22,-64.95l-84.64 -29.81 -85.25 -25.87c-227.5,-68.73 -459.55,-105.72 -691.99,-116.79 -232.49,-6.89 -465.83,12.87 -695.01,70.26 -114.55,28.64 -228.01,66.2 -339.52,113 -55.66,23.8 -110.88,49.77 -165.25,79.07 -54.32,29.28 -108.15,60.72 -159.94,98.17 52.37,-35.73 106.62,-65.37 161.33,-92.77 54.71,-27.48 110.2,-51.55 166.07,-73.45 111.68,-44.32 225.02,-79.85 339.4,-106.18 228.72,-53.32 460.94,-73.33 692.48,-64.52 231.54,9.2 462.62,46.19 689.9,111l85.28 24.24 84.67 28.13c56.68,17.62 112.41,40.52 168.48,61.6 28.16,9.98 55.88,22.02 83.67,33.93zm-1112 -148.19l0 0c231.54,9.2 462.62,46.19 689.9,111.02l85.28 24.22 84.67 28.16c56.68,17.6 112.41,40.5 168.48,61.57 28.16,9.98 55.88,22.05 83.67,33.93l32.29 13.75c2.77,-1.36 5.5,-2.77 8.35,-4.06l-38.89 -17.96c-27.6,-12.85 -55.2,-25.85 -83.21,-36.77 -55.93,-22.37 -111.61,-46.19 -168.22,-64.95l-84.64 -29.79 -85.25 -25.89c-227.5,-68.73 -459.55,-105.72 -691.99,-116.79 -232.49,-6.86 -465.83,12.9 -695.01,70.28 -114.55,28.62 -228.01,66.17 -339.52,112.97 -55.66,23.8 -110.88,49.77 -165.25,79.09 -54.32,29.25 -108.15,60.72 -159.94,98.17 52.37,-35.73 106.62,-65.37 161.33,-92.77 54.71,-27.48 110.2,-51.55 166.07,-73.45 111.68,-44.34 225.02,-79.85 339.4,-106.18 228.72,-53.35 460.94,-73.35 692.48,-64.54zm1415.57 233.54l0 0c1.19,0.1 2.43,0.17 3.63,0.29 35.48,-17.04 70.97,-34.05 106.64,-50.16l83.38 -35.48c27.79,-11.9 55.51,-23.95 83.67,-33.93 56.07,-21.08 111.8,-43.98 168.48,-61.6l84.67 -28.13 85.28 -24.24c227.28,-64.81 458.36,-101.8 689.9,-111 231.54,-8.81 463.76,11.19 692.48,64.52 114.36,26.33 227.72,61.86 339.4,106.18 55.88,21.9 111.37,45.97 166.07,73.45 54.71,27.4 108.96,57.05 161.33,92.77 -51.79,-37.45 -105.62,-68.9 -159.94,-98.17 -54.34,-29.3 -109.56,-55.27 -165.25,-79.07 -111.51,-46.8 -224.97,-84.35 -339.5,-113 -229.2,-57.39 -462.54,-77.15 -695.03,-70.26 -232.44,11.07 -464.49,48.07 -691.99,116.79l-85.25 25.87 -84.64 29.81c-56.61,18.74 -112.29,42.59 -168.22,64.95 -28.01,10.93 -55.61,23.92 -83.21,36.75l-82.87 38.31c-36.51,17.81 -72.79,36.55 -109.03,55.34zm109.03 -167.27l0 0c-54.95,26.82 -109.35,55.85 -163.98,83.67 55.1,-26.02 109.93,-53.22 165.22,-78.17l83.38 -35.51c27.79,-11.9 55.51,-23.95 83.67,-33.95 56.07,-21.05 111.8,-43.95 168.48,-61.57l84.67 -28.13 85.28 -24.22c227.28,-64.86 458.36,-101.83 689.9,-111.02 231.54,-8.81 463.76,11.19 692.48,64.52 114.36,26.33 227.72,61.86 339.4,106.18 55.88,21.9 111.37,46 166.07,73.47 54.71,27.4 108.96,57.02 161.33,92.75 -51.79,-37.45 -105.62,-68.9 -159.94,-98.15 -54.34,-29.33 -109.56,-55.29 -165.25,-79.09 -111.51,-46.8 -224.97,-84.38 -339.5,-113 -229.2,-57.39 -462.54,-77.15 -695.03,-70.26 -232.44,11.07 -464.49,48.07 -691.99,116.79l-85.25 25.89 -84.64 29.79c-56.61,18.74 -112.29,42.59 -168.22,64.95 -28.01,10.93 -55.61,23.92 -83.21,36.75l-82.87 38.31zm-2876.61 -68.92l0 0c0,0.1 -0.02,0.22 -0.05,0.32 50.16,-33.56 101.9,-61.91 154.1,-88.07 54.71,-27.48 110.2,-51.55 166.07,-73.45 111.68,-44.32 225.02,-79.85 339.4,-106.18 228.72,-53.32 460.94,-73.33 692.48,-64.52 231.54,9.2 462.62,46.19 689.9,111l85.28 24.24 84.67 28.13c56.68,17.62 112.41,40.52 168.48,61.6 28.16,9.98 55.88,22.02 83.67,33.93l83.38 35.48c55.32,24.97 110.12,52.18 165.25,78.17 -54.66,-27.79 -109.05,-56.85 -163.98,-83.65l-82.89 -38.31c-27.6,-12.83 -55.2,-25.82 -83.21,-36.75 -55.93,-22.37 -111.61,-46.22 -168.22,-64.95l-84.64 -29.81 -85.25 -25.87c-227.5,-68.73 -459.55,-105.72 -691.99,-116.79 -232.49,-6.89 -465.83,12.87 -695.01,70.26 -114.55,28.64 -228.01,66.2 -339.52,113 -55.66,23.8 -110.88,49.77 -165.25,79.07 -51.79,27.91 -103.09,57.97 -152.66,93.16zm2876.61 -43l0 0c-54.95,26.79 -109.35,55.85 -163.98,83.65 55.1,-25.99 109.93,-53.2 165.22,-78.17l83.38 -35.48c27.79,-11.9 55.51,-23.95 83.67,-33.93 56.07,-21.08 111.8,-43.98 168.48,-61.6l84.67 -28.13 85.28 -24.24c227.28,-64.81 458.36,-101.8 689.9,-111 231.54,-8.81 463.76,11.19 692.48,64.52 114.36,26.33 227.72,61.86 339.4,106.18 55.88,21.9 111.37,45.97 166.07,73.45 54.71,27.43 108.96,57.07 161.33,92.77 -51.79,-37.43 -105.62,-68.9 -159.94,-98.17 -54.34,-29.3 -109.56,-55.27 -165.25,-79.07 -111.51,-46.8 -224.97,-84.35 -339.5,-113 -229.2,-57.39 -462.54,-77.15 -695.03,-70.26 -232.44,11.07 -464.49,48.07 -691.99,116.79l-85.25 25.87 -84.64 29.81c-56.61,18.74 -112.29,42.59 -168.22,64.95 -28.01,10.93 -55.61,23.92 -83.21,36.75l-82.87 38.31zm-2883.88 159.94l0 0c52.37,-35.73 106.62,-65.34 161.33,-92.75 54.71,-27.48 110.2,-51.57 166.07,-73.47 111.68,-44.32 225.02,-79.85 339.4,-106.18 228.72,-53.32 460.94,-73.33 692.48,-64.52 231.54,9.2 462.62,46.17 689.9,111.02l85.28 24.22 84.67 28.13c56.68,17.62 112.41,40.52 168.48,61.57 28.16,10 55.88,22.05 83.67,33.95l83.38 35.51c55.32,24.95 110.12,52.15 165.25,78.17 -54.66,-27.82 -109.05,-56.85 -163.98,-83.67l-82.89 -38.31c-27.6,-12.83 -55.2,-25.82 -83.21,-36.75 -55.93,-22.37 -111.61,-46.22 -168.22,-64.95l-84.64 -29.79 -85.25 -25.89c-227.5,-68.73 -459.55,-105.72 -691.99,-116.79 -232.49,-6.89 -465.83,12.87 -695.01,70.26 -114.55,28.62 -228.01,66.2 -339.52,113 -55.66,23.8 -110.88,49.77 -165.25,79.09 -54.32,29.25 -108.15,60.7 -159.94,98.15z"/>
     </g>
    </g>
    <g>
     <polygon class="fil36" points="14323.3,23873.76 14323.09,22467.33 15292.56,22467.21 15292.78,23873.61 "/>
     <polygon class="fil37" points="14323.26,23523.04 14323.13,22818.08 15292.61,22817.93 15292.71,23522.89 "/>
     <path class="fil38" d="M16058.95 23755.38l-0.17 -1170.18c0,-65.25 -52.88,-118.11 -118.13,-118.11l-648.09 0.12 0.22 1406.4 648.09 -0.1c65.22,0 118.11,-52.88 118.08,-118.13z"/>
     <path class="fil39" d="M16058.9 23412.96l-0.07 -485.35c-0.02,-65.22 -52.91,-118.08 -118.13,-118.08l-648.09 0.1 0.12 721.54 648.09 -0.07c65.22,-0.02 118.11,-52.91 118.08,-118.13z"/>
     <path class="fil40" d="M3252.51 23091.33l1235.31 -622.56 0.19 1406.4 -1235.48 -622.17c-60.38,-30.42 -60.4,-131.27 -0.02,-161.67z"/>
     <path class="fil27" d="M3252.54 23253.17l488.73 246.14 -0.1 -654.1 -488.66 246.26c-60.38,30.42 -60.36,131.27 0.02,161.69z"/>
     <polygon class="fil41" points="4488.02,23875.17 4487.82,22468.77 14439.83,22467.31 14440.05,23873.73 "/>
     <polygon class="fil42" points="4487.97,23517.9 4487.85,22826.06 14439.9,22824.6 14440,23516.44 "/>
    </g>
   </g>
  </g>
 </g>
</svg>
