<?xml version="1.0" encoding="UTF-8"?>
<!DOCTYPE svg PUBLIC "-//W3C//DTD SVG 1.1//EN" "http://www.w3.org/Graphics/SVG/1.1/DTD/svg11.dtd">
<!-- Creator: CorelDRAW -->
<svg xmlns="http://www.w3.org/2000/svg" xml:space="preserve" width="4in" height="4.0005in" version="1.1" style="shape-rendering:geometricPrecision; text-rendering:geometricPrecision; image-rendering:optimizeQuality; fill-rule:evenodd; clip-rule:evenodd"
viewBox="0 0 3388.19 3388.62"
 xmlns:xlink="http://www.w3.org/1999/xlink"
 xmlns:xodm="http://www.corel.com/coreldraw/odm/2003">
 <defs>
  <style type="text/css">
   <![CDATA[
    .fil0 {fill:#00CCFF;fill-opacity:0.701961}
   ]]>
  </style>
 </defs>
 <g id="Layer_x0020_1">
  <metadata id="CorelCorpID_0Corel-Layer"/>
  <g id="_1897646786528">
   <path class="fil0" d="M3388.19 174.25c-7.91,-12.52 -15.96,-24.95 -23.65,-37.61 -2.57,-4.26 -5.53,-6.12 -10.61,-6.26 -64.52,-1.57 -129.01,-3.37 -193.51,-5.09 -1.18,-0.02 -2.36,0.39 -4.65,0.75 1.01,2.69 1.56,5.29 2.87,7.4 32.88,53.61 65.93,107.15 98.69,160.82 3.33,5.47 7.12,7.77 13.53,7.88 39.12,0.74 78.23,1.81 117.33,2.8 0,3.22 0,6.44 0,9.68 -4.75,-0.55 -9.52,-1.47 -14.29,-1.61 -35.81,-1.08 -71.62,-2.14 -107.45,-2.87 -6.2,-0.12 -10.34,-1.68 -13.77,-7.28 -36.92,-60.48 -74.07,-120.77 -111.16,-181.14 -0.61,-1.01 -0.96,-2.18 -1.85,-4.23 2.38,-0.48 4.5,-1.29 6.57,-1.25 70.03,1.82 140.04,3.81 210.08,5.5 6.93,0.16 10.98,2.85 14.39,8.68 5.38,9.22 11.61,17.95 17.48,26.9 0,5.62 0,11.27 0,16.93z"/>
   <path class="fil0" d="M3388.19 1769.12c-5.17,0.55 -10.32,1.47 -15.49,1.63 -33.45,1.04 -66.88,2.07 -100.34,2.72 -7.04,0.13 -11.69,1.93 -15.61,8.4 -32.22,53.03 -64.86,105.82 -97.32,158.71 -1.61,2.61 -2.84,5.46 -5.06,9.74 4.94,0 8.41,0.07 11.86,-0.02 61.25,-1.66 122.5,-3.47 183.73,-4.87 7.76,-0.19 12.6,-2.6 16.41,-9.49 6.8,-12.32 14.49,-24.13 21.82,-36.14 0,5.65 0,11.31 0,16.95 -5.95,9.49 -12.27,18.78 -17.72,28.57 -3.4,6.11 -7.83,7.9 -14.56,8.06 -62.87,1.49 -125.72,3.34 -188.57,4.99 -8.81,0.24 -17.63,0.02 -27.51,0.02 1.18,-2.66 1.98,-5.14 3.3,-7.31 36.26,-59.07 72.67,-118.06 108.75,-177.24 3.81,-6.25 8.15,-8.85 15.42,-8.99 40.29,-0.78 80.58,-1.95 120.88,-2.99 0,2.41 0,4.83 0,7.26z"/>
   <path class="fil0" d="M3388.19 454.99c-5.17,0.55 -10.32,1.47 -15.49,1.63 -33.45,1.06 -66.88,2.07 -100.34,2.71 -7.04,0.14 -11.67,1.95 -15.6,8.41 -32.23,53.03 -64.87,105.83 -97.33,158.7 -1.61,2.64 -2.86,5.49 -5.06,9.75 4.94,0 8.41,0.08 11.86,0 61.25,-1.68 122.5,-3.49 183.73,-4.89 7.76,-0.19 12.59,-2.58 16.41,-9.49 6.8,-12.32 14.49,-24.11 21.82,-36.14 0,5.65 0,11.31 0,16.95 -5.95,9.49 -12.27,18.78 -17.72,28.56 -3.4,6.11 -7.83,7.91 -14.56,8.06 -60.45,1.42 -120.89,3.22 -181.33,4.79 -11.22,0.29 -22.48,0.05 -34.79,0.05 1.35,-2.86 2.4,-5.68 3.94,-8.19 35.85,-58.39 71.86,-116.66 107.46,-175.17 4.31,-7.08 9.13,-9.91 17.3,-10.05 39.92,-0.69 79.8,-1.9 119.69,-2.94 0,2.41 0,4.83 0,7.26z"/>
   <path class="fil0" d="M3388.19 2802.51c-7.91,-12.51 -15.96,-24.95 -23.65,-37.63 -2.57,-4.23 -5.53,-6.1 -10.61,-6.22 -64.51,-1.59 -129.01,-3.38 -193.5,-5.11 -1.19,-0.02 -2.37,0.39 -4.64,0.79 1,2.66 1.54,5.26 2.85,7.37 32.88,53.61 65.93,107.15 98.69,160.82 3.33,5.47 7.12,7.75 13.53,7.86 39.12,0.74 78.23,1.84 117.33,2.81 0,3.23 0,6.45 0,9.69 -4.75,-0.57 -9.52,-1.47 -14.29,-1.61 -35.81,-1.08 -71.62,-2.13 -107.45,-2.87 -6.2,-0.14 -10.34,-1.66 -13.78,-7.31 -36.91,-60.46 -74.06,-120.75 -111.15,-181.11 -0.62,-1.01 -0.96,-2.18 -1.95,-4.47 3.31,-0.4 6.21,-1.06 9.09,-0.99 68.81,1.81 137.64,3.82 206.45,5.42 7.86,0.19 12.47,3.03 16.23,9.77 5.04,8.95 11.19,17.27 16.85,25.84 0,5.65 0,11.31 0,16.95z"/>
   <path class="fil0" d="M3388.19 3083.27c-5.17,0.54 -10.32,1.47 -15.49,1.62 -33.45,1.04 -66.88,2.07 -100.34,2.72 -7.04,0.13 -11.69,1.93 -15.61,8.4 -32.22,53.03 -64.86,105.82 -97.3,158.71 -1.62,2.61 -2.86,5.47 -5.05,9.67 5.71,0 9.99,0.1 14.25,-0.02 60.03,-1.64 120.07,-3.42 180.1,-4.75 8.62,-0.21 14.08,-2.85 18.26,-10.58 6.51,-11.99 14.07,-23.43 21.19,-35.11 0,5.65 0,11.31 0,16.93 -5.95,9.52 -12.27,18.8 -17.72,28.59 -3.4,6.12 -7.83,7.9 -14.56,8.07 -60.45,1.42 -120.89,3.21 -181.32,4.78 -11.24,0.27 -22.48,0.05 -34.68,0.05 1.08,-2.49 1.89,-4.97 3.22,-7.13 36.26,-59.07 72.67,-118.05 108.74,-177.24 3.82,-6.25 8.16,-8.85 15.43,-8.99 40.29,-0.78 80.58,-1.95 120.88,-2.98 0,2.41 0,4.83 0,7.27z"/>
   <path class="fil0" d="M3388.19 1488.38c-7.91,-12.52 -15.96,-24.95 -23.65,-37.61 -2.57,-4.25 -5.53,-6.12 -10.61,-6.25 -64.52,-1.59 -129.01,-3.39 -193.51,-5.11 -1.18,-0.02 -2.36,0.39 -4.64,0.75 1,2.67 1.55,5.27 2.84,7.4 32.89,53.61 65.93,107.15 98.71,160.82 3.33,5.47 7.12,7.74 13.53,7.88 39.12,0.72 78.23,1.81 117.33,2.79 0,3.23 0,6.45 0,9.69 -5.17,-0.58 -10.32,-1.49 -15.49,-1.66 -35.41,-1.08 -70.84,-2.12 -106.24,-2.82 -6.21,-0.12 -10.34,-1.68 -13.78,-7.28 -36.91,-60.48 -74.07,-120.8 -111.15,-181.16 -0.62,-0.99 -0.96,-2.17 -1.86,-4.22 2.39,-0.46 4.49,-1.28 6.58,-1.22 70.03,1.82 140.04,3.8 210.08,5.49 6.93,0.17 10.99,2.82 14.39,8.68 5.38,9.22 11.61,17.95 17.48,26.89 0,5.63 0,11.28 0,16.93z"/>
   <path class="fil0" d="M3388.19 2146.64c-7.34,-11.99 -15.07,-23.78 -21.86,-36.1 -3.81,-6.89 -8.66,-9.33 -16.4,-9.47 -36.67,-0.62 -73.32,-1.74 -110,-2.73 -25.36,-0.69 -50.74,-1.49 -76.12,-2.19 -2.65,-0.07 -5.31,0.26 -9.37,0.46 2.48,4.58 4.18,8.1 6.22,11.43 31.82,51.83 63.82,103.59 95.42,155.56 4.02,6.64 8.34,9.43 16.26,9.5 31.03,0.37 62.04,1.43 93.06,2.41 7.61,0.26 15.19,1.2 22.79,1.82 0,2.41 0,4.85 0,7.26 -40.3,-1.01 -80.6,-2.12 -120.89,-3.01 -6.47,-0.14 -11.06,-1.66 -14.84,-7.83 -36.67,-60.25 -73.74,-120.27 -110.66,-180.33 -0.8,-1.32 -1.42,-2.69 -2.72,-5.15 3.22,-0.36 5.44,-0.87 7.65,-0.8 69.7,1.88 139.41,3.98 209.13,5.6 7.47,0.19 11.72,2.9 15.23,9.1 5.31,9.4 11.35,18.37 17.09,27.53 0,5.65 0,11.31 0,16.93z"/>
   <path class="fil0" d="M3388.19 2427.39c-38.7,0.98 -77.41,2.03 -116.12,2.85 -6.57,0.11 -11.05,1.69 -14.79,7.86 -32.68,53.74 -65.76,107.23 -98.69,160.82 -1.19,1.95 -2.06,4.08 -3.63,7.26 3.46,0.43 5.68,0.99 7.89,0.94 63.31,-1.71 126.57,-3.54 189.88,-5.08 5.98,-0.14 9.48,-2.22 12.5,-7.3 7.34,-12.41 15.27,-24.47 22.96,-36.65 0,5.65 0,11.28 0,16.93 -5.45,8.27 -11.64,16.13 -16.14,24.89 -4.33,8.4 -10.3,10.77 -19.3,10.9 -35.03,0.53 -70.04,1.78 -105.07,2.72 -31.8,0.87 -63.6,1.71 -95.4,2.52 -3.9,0.11 -7.8,0.02 -13.25,0.02 2.35,-4.44 3.81,-7.59 5.62,-10.53 35.6,-58 71.35,-115.88 106.73,-173.99 4.05,-6.64 8.38,-9.33 16.28,-9.45 35.44,-0.48 70.85,-1.67 106.27,-2.73 4.75,-0.14 9.49,-1.1 14.25,-1.68 0,3.23 0,6.46 0,9.68z"/>
   <path class="fil0" d="M3388.19 832.53c-7.34,-12.01 -15.07,-23.8 -21.85,-36.12 -3.83,-6.89 -8.66,-9.33 -16.41,-9.47 -37.06,-0.62 -74.13,-1.74 -111.19,-2.75 -24.98,-0.7 -49.95,-1.47 -74.92,-2.17 -2.66,-0.07 -5.32,0.26 -9.28,0.46 2.22,4.21 3.69,7.4 5.52,10.36 32.03,52.19 64.21,104.29 96.02,156.61 4.02,6.62 8.33,9.45 16.26,9.54 31.03,0.34 62.04,1.4 93.06,2.39 7.61,0.26 15.19,1.2 22.79,1.81 0,2.42 0,4.86 0,7.27 -40.3,-1.01 -80.61,-2.12 -120.89,-3.01 -6.47,-0.14 -11.06,-1.66 -14.82,-7.83 -36.68,-60.25 -73.75,-120.25 -110.67,-180.35 -0.8,-1.29 -1.36,-2.72 -2.53,-5.15 3.45,-0.32 6.06,-0.82 8.66,-0.75 68.91,1.88 137.81,4 206.73,5.51 8.47,0.19 13.18,3.15 17.06,10.23 4.98,9.09 10.93,17.67 16.47,26.47 0,5.65 0,11.31 0,16.95z"/>
   <path class="fil0" d="M3388.19 1113.25c-38.7,0.99 -77.41,2.04 -116.12,2.86 -6.57,0.13 -11.05,1.69 -14.79,7.86 -32.68,53.74 -65.76,107.23 -98.69,160.81 -1.21,1.97 -2.08,4.14 -3.63,7.29 3.46,0.41 5.68,0.99 7.89,0.92 63.31,-1.71 126.57,-3.52 189.88,-5.08 5.98,-0.14 9.48,-2.22 12.5,-7.31 7.34,-12.41 15.27,-24.45 22.96,-36.65 0,5.65 0,11.28 0,16.93 -5.45,8.27 -11.64,16.15 -16.14,24.88 -4.33,8.41 -10.32,10.77 -19.31,10.92 -35.02,0.53 -70.05,1.77 -105.06,2.72 -31.8,0.87 -63.61,1.72 -95.41,2.54 -3.91,0.09 -7.81,0 -13.25,0 2.36,-4.44 3.83,-7.58 5.65,-10.52 35.59,-58 71.34,-115.88 106.73,-173.99 4.05,-6.65 8.36,-9.33 16.27,-9.44 35.44,-0.48 70.85,-1.67 106.27,-2.73 4.75,-0.16 9.49,-1.1 14.25,-1.68 0,3.23 0,6.46 0,9.67z"/>
   <path class="fil0" d="M2386.25 0c-9.16,17.45 -18.34,34.88 -27.83,52.94 32.15,59.4 64.47,119.09 98.02,181.07 33.53,-61.98 65.86,-121.67 98.02,-181.09 -9.5,-18.03 -18.67,-35.49 -27.83,-52.92 3.22,0 6.45,0 9.67,0 9.12,17.45 18.24,34.91 27.68,52.99 -35.27,65.16 -70.68,130.63 -106.24,196.33 -6.96,-6.85 -97.52,-171.78 -108.48,-197.01 9.08,-17.4 18.2,-34.86 27.33,-52.31 3.21,0 6.45,0 9.67,0z"/>
   <path class="fil0" d="M106.48 0c-9.17,17.45 -18.33,34.88 -27.83,52.94 32.15,59.4 64.48,119.09 98.02,181.07 33.54,-61.98 65.85,-121.67 98.01,-181.09 -9.48,-18.03 -18.67,-35.47 -27.84,-52.92 3.23,0 6.46,0 9.69,0 9.11,17.45 18.23,34.91 27.68,52.99 -35.26,65.16 -70.68,130.63 -106.25,196.33 -6.94,-6.85 -97.47,-171.71 -108.48,-197.01 9.08,-17.4 18.2,-34.86 27.32,-52.31 3.22,0 6.46,0 9.67,0z"/>
   <path class="fil0" d="M1246.37 0c-9.17,17.45 -18.34,34.88 -27.85,52.94 32.18,59.4 64.48,119.09 98.02,181.07 33.55,-61.98 65.87,-121.67 98.02,-181.09 -9.48,-18.06 -18.66,-35.49 -27.84,-52.92 3.22,0 6.46,0 9.68,0 9.12,17.45 18.23,34.91 27.68,52.99 -35.26,65.16 -70.7,130.63 -106.23,196.33 -6.98,-6.87 -97.56,-171.86 -108.51,-197.01 9.09,-17.4 18.21,-34.86 27.32,-52.31 3.25,0 6.46,0 9.69,0z"/>
   <path class="fil0" d="M-0 963.2c15.56,0 31.11,0 47.52,0 -0.9,-2.39 -1.38,-4.64 -2.5,-6.47 -12.7,-20.85 -25.42,-41.66 -38.36,-62.34 -1.55,-2.48 -4.4,-4.17 -6.65,-6.2 0,-5.66 0,-11.28 0,-16.94 1.95,1.93 4.41,3.54 5.81,5.81 18.61,30.08 37.1,60.22 55.59,90.4 0.6,0.99 0.89,2.15 1.34,3.23 -8.24,2.96 -42.68,2.8 -62.74,-0.22 0,-2.41 0,-4.85 0,-7.27z"/>
   <path class="fil0" d="M-0 2277.35c15.56,0 31.1,0 47.52,0 -0.91,-2.4 -1.38,-4.65 -2.5,-6.51 -12.7,-20.82 -25.42,-41.64 -38.36,-62.31 -1.55,-2.48 -4.4,-4.17 -6.65,-6.2 0,-5.66 0,-11.31 0,-16.94 1.96,1.91 4.41,3.54 5.81,5.81 18.63,30.08 37.1,60.22 55.59,90.4 0.6,0.99 0.89,2.16 1.34,3.23 -8.22,2.96 -42.87,2.81 -62.74,-0.22 0,-2.41 0,-4.85 0,-7.26z"/>
   <path class="fil0" d="M-0 1844.14c2.04,-1.69 4.71,-3.01 6.03,-5.14 13.55,-21.72 26.88,-43.56 40.21,-65.42 0.57,-0.94 0.75,-2.13 1.54,-4.46 -16.34,0 -32.06,0 -47.78,0 0,-2.43 0,-4.85 0,-7.26 20.68,-1.01 41.38,-2.02 63.95,-3.11 -2.1,4.56 -2.98,7.09 -4.34,9.34 -17.44,28.43 -34.88,56.86 -52.49,85.19 -1.82,2.94 -4.72,5.21 -7.11,7.81 0,-5.66 0,-11.28 0,-16.94z"/>
   <path class="fil0" d="M-0 3158.28c2.04,-1.69 4.71,-3 6.04,-5.14 13.53,-21.72 26.86,-43.59 40.2,-65.42 0.57,-0.94 0.75,-2.13 1.54,-4.45 -16.34,0 -32.06,0 -47.78,0 0,-2.44 0,-4.86 0,-7.27 20.68,-1.01 41.38,-2.02 63.9,-3.12 -1.84,4.2 -2.5,6.41 -3.68,8.32 -17.84,29.11 -35.71,58.22 -53.72,87.23 -1.62,2.61 -4.32,4.55 -6.5,6.8 0,-5.66 0,-11.31 0,-16.94z"/>
   <path class="fil0" d="M-0 530.01c2.04,-1.69 4.71,-3.01 6.04,-5.14 13.53,-21.72 26.86,-43.59 40.21,-65.42 0.57,-0.96 0.76,-2.15 1.54,-4.46 -16.36,0 -32.08,0 -47.79,0 0,-2.43 0,-4.85 0,-7.26 20.68,-1.01 41.37,-2.02 64.21,-3.13 -2.75,5.32 -4.13,8.46 -5.92,11.38 -16.79,27.41 -33.59,54.82 -50.56,82.13 -2.05,3.28 -5.14,5.9 -7.73,8.84 0,-5.66 0,-11.28 0,-16.94z"/>
   <path class="fil0" d="M-0 2933.2c15.53,0.99 31.07,1.95 47.84,3.01 -0.85,-3.1 -0.94,-5.03 -1.84,-6.5 -13.35,-21.91 -26.75,-43.78 -40.28,-65.54 -1.43,-2.29 -3.79,-4.01 -5.72,-5.99 0,-4.83 0,-9.68 0,-14.53 1.61,0.99 3.84,1.59 4.73,3.01 19.65,31.62 39.13,63.33 59.35,96.12 -11.74,2.89 -22.34,0.29 -32.81,0.48 -10.42,0.19 -20.86,-0.22 -31.27,-0.37 0,-3.24 0,-6.46 0,-9.69z"/>
   <path class="fil0" d="M-0 1188.29c1.93,-1.97 4.32,-3.64 5.75,-5.93 13.53,-21.78 26.91,-43.66 40.29,-65.53 0.77,-1.26 1.17,-2.75 2.26,-5.4 -16.82,-0.43 -32.58,-0.41 -48.3,1.81 0,-3.21 0,-6.44 0,-9.67 20.73,0 41.44,0 63.14,0 -1.2,2.57 -2.1,5.06 -3.46,7.26 -17.17,28.04 -34.34,56.05 -51.73,83.94 -1.95,3.1 -5.26,5.38 -7.95,8.02 0,-4.82 0,-9.68 0,-14.51z"/>
   <path class="fil0" d="M-0 304.94c15.53,0.97 31.07,1.93 47.83,2.99 -0.84,-3.09 -0.93,-5.03 -1.83,-6.5 -13.34,-21.91 -26.75,-43.75 -40.28,-65.54 -1.43,-2.29 -3.79,-4 -5.72,-6 0,-4.83 0,-9.67 0,-14.49 1.61,0.96 3.84,1.56 4.73,2.99 19.65,31.61 39.13,63.33 60,97.17 -22.91,0.44 -43.83,-1.27 -64.73,-0.94 0,-3.25 0,-6.46 0,-9.68z"/>
   <path class="fil0" d="M-0 2502.4c1.93,-1.95 4.33,-3.62 5.75,-5.92 13.53,-21.77 26.91,-43.63 40.29,-65.52 0.77,-1.28 1.18,-2.77 2.25,-5.37 -16.8,-0.46 -32.57,-0.46 -48.29,1.8 0,-3.22 0,-6.46 0,-9.68 20.73,0 41.44,0 63.17,0 -1.01,2.24 -1.71,4.37 -2.86,6.24 -17.38,28.38 -34.76,56.73 -52.36,84.96 -1.95,3.1 -5.26,5.38 -7.95,8.02 0,-4.82 0,-9.67 0,-14.53z"/>
   <path class="fil0" d="M-0 1619.06c15.53,0.99 31.07,1.95 47.83,3 -0.84,-3.09 -0.93,-5.02 -1.83,-6.49 -13.34,-21.91 -26.75,-43.78 -40.28,-65.54 -1.43,-2.29 -3.79,-4.01 -5.72,-5.99 0,-4.84 0,-9.68 0,-14.53 2.04,1.66 4.76,2.92 6.07,5.04 18.81,30.3 37.43,60.73 56.07,91.15 0.39,0.65 0.41,1.49 1.01,4 -21.31,0.53 -42.24,-1.33 -63.14,-0.94 0,-3.24 0,-6.46 0,-9.69z"/>
   <path class="fil0" d="M1886.95 198.99c-2.15,3.2 -3.63,5.06 -4.77,7.13 -30.16,55.65 -60.21,111.38 -90.55,166.93 -3.13,5.71 -2.75,10.02 0.27,15.56 30.12,55.21 59.96,110.59 89.94,165.87 1.22,2.28 2.96,4.26 4.82,6.89 1.47,-2.09 2.53,-3.3 3.28,-4.68 30.54,-56.36 60.96,-112.77 91.7,-169.02 3.25,-5.95 2.02,-10.27 -0.89,-15.59 -20.68,-37.86 -41.13,-75.85 -61.64,-113.79 -10.36,-19.12 -20.75,-38.23 -32.16,-59.31zm-0.51 380.75c-2.74,-4.65 -4.66,-7.68 -6.34,-10.8 -32.42,-59.88 -64.75,-119.79 -97.29,-179.6 -3.1,-5.7 -4.1,-10.25 -0.62,-16.59 33.65,-61.49 66.89,-123.21 100.28,-184.83 0.94,-1.74 2.1,-3.35 3.79,-6.03 2.12,3.15 4,5.5 5.41,8.1 32.81,60.56 65.52,121.18 98.4,181.7 3.06,5.64 4.41,10.13 0.85,16.61 -33.68,61.49 -66.92,123.19 -100.29,184.83 -0.94,1.73 -2.12,3.33 -4.18,6.6z"/>
   <path class="fil0" d="M3026.37 562.21c2.74,-4.67 4.66,-7.71 6.35,-10.85 29,-53.54 57.79,-107.2 87.13,-160.53 4.26,-7.74 3.84,-13.46 -0.27,-20.95 -29.28,-53.38 -58.12,-107.01 -87.13,-160.55 -1.7,-3.12 -3.66,-6.11 -6.07,-10.13 -2.4,3.98 -4.37,6.96 -6.06,10.08 -29.19,53.92 -58.16,107.91 -87.69,161.61 -4.08,7.42 -3.56,12.8 0.31,19.85 29.21,53.42 58.07,107.03 87.06,160.57 1.72,3.14 3.62,6.18 6.38,10.89zm0.24 -380.65c2.54,4.44 4.42,7.52 6.12,10.66 32.22,59.52 64.31,119.12 96.82,178.47 3.97,7.23 3.95,12.64 0.01,19.84 -32.49,59.37 -64.58,118.95 -96.81,178.47 -1.69,3.14 -3.61,6.15 -6.08,10.34 -2.28,-3.39 -4.19,-5.73 -5.61,-8.36 -32.81,-60.58 -65.53,-121.19 -98.39,-181.74 -2.83,-5.19 -4.39,-9.48 -1.09,-15.53 33.98,-62.22 67.62,-124.63 101.39,-186.96 0.76,-1.39 1.81,-2.6 3.65,-5.18z"/>
   <path class="fil0" d="M746.55 3190.22c2.4,-3.93 4.4,-6.85 6.06,-9.92 29.2,-53.89 58.18,-107.88 87.68,-161.61 4.02,-7.32 3.76,-12.73 -0.16,-19.87 -29.44,-53.75 -58.46,-107.72 -87.66,-161.61 -1.63,-3 -3.62,-5.84 -6.02,-9.65 -2.48,4.21 -4.39,7.26 -6.1,10.41 -29.01,53.52 -57.83,107.14 -87.14,160.52 -4.19,7.63 -4.05,13.38 0.12,20.97 29.31,53.35 58.12,107 87.12,160.51 1.7,3.16 3.65,6.17 6.1,10.25zm0.29 -380.06c2.16,3.53 3.94,6.2 5.45,8.97 32.6,60.22 65.07,120.52 97.88,180.65 3.43,6.3 3.86,11.15 0.3,17.67 -33.21,60.8 -66.08,121.79 -99.06,182.74 -1.13,2.09 -2.46,4.07 -4.34,7.14 -2.05,-2.73 -3.84,-4.59 -5.03,-6.8 -33.21,-61.26 -66.34,-122.59 -99.61,-183.82 -2.67,-4.92 -3.75,-8.97 -0.76,-14.44 34.13,-62.62 67.99,-125.38 101.97,-188.06 0.56,-1.03 1.45,-1.88 3.2,-4.06z"/>
   <path class="fil0" d="M3026.41 2827.29c-2.62,4.44 -4.55,7.46 -6.25,10.61 -29.01,53.54 -57.84,107.16 -87.13,160.53 -4.19,7.6 -4.14,13.34 0.02,20.95 29.32,53.38 58.13,107.01 87.13,160.54 1.69,3.13 3.64,6.14 6.11,10.27 2.41,-3.89 4.39,-6.78 6.06,-9.83 29.19,-53.88 58.19,-107.88 87.67,-161.62 3.98,-7.26 3.88,-12.64 -0.07,-19.85 -29.65,-54.09 -58.85,-108.46 -88.21,-162.71 -1.33,-2.43 -2.87,-4.79 -5.33,-8.89zm-0.02 -17.55c2.47,4.06 4.22,6.73 5.74,9.53 32.6,60.22 65.14,120.49 97.81,180.67 3.05,5.59 4.47,10.09 0.88,16.62 -33.68,61.45 -66.91,123.17 -100.29,184.81 -0.94,1.72 -2.09,3.35 -3.85,6.11 -2.22,-3.21 -4.15,-5.52 -5.55,-8.11 -32.81,-60.58 -65.52,-121.19 -98.41,-181.72 -3.09,-5.69 -4.15,-10.25 -0.67,-16.61 33.66,-61.48 66.9,-123.2 100.29,-184.83 0.94,-1.74 2.09,-3.37 4.05,-6.47z"/>
   <path class="fil0" d="M746.52 561.92c2.41,-3.88 4.41,-6.75 6.05,-9.81 29.2,-53.9 58.19,-107.88 87.67,-161.62 3.99,-7.26 3.9,-12.63 -0.05,-19.86 -29.65,-54.11 -58.86,-108.45 -88.23,-162.68 -1.46,-2.68 -3.33,-5.14 -5.55,-8.52 -2.39,4.01 -4.32,7.05 -6.02,10.18 -29,53.54 -57.82,107.16 -87.12,160.54 -4.17,7.59 -4.17,13.33 0.03,20.96 29.31,53.35 58.12,106.98 87.12,160.52 1.7,3.15 3.65,6.17 6.11,10.29zm-0.1 17.86c-3,-5.25 -5.03,-8.67 -6.93,-12.16 -31.85,-58.8 -63.53,-117.68 -95.68,-176.33 -4.16,-7.58 -4.43,-13.26 -0.21,-20.93 32.33,-58.99 64.2,-118.24 96.23,-177.41 1.9,-3.49 3.96,-6.9 6.51,-11.33 2.26,3.47 4.13,5.93 5.58,8.61 32.8,60.57 65.5,121.21 98.45,181.72 3.15,5.81 3.91,10.34 0.47,16.61 -33.43,61.14 -66.48,122.49 -99.68,183.77 -1.12,2.07 -2.53,3.98 -4.74,7.45z"/>
   <path class="fil0" d="M3026.41 1513.16c-2.63,4.45 -4.55,7.48 -6.26,10.63 -29.01,53.54 -57.82,107.16 -87.13,160.51 -4.18,7.61 -4.13,13.35 0.05,20.97 29.13,53.01 57.75,106.27 86.57,159.46 1.89,3.49 3.95,6.9 6.59,11.47 2.48,-4.03 4.48,-6.92 6.14,-10 29.18,-53.88 58.18,-107.88 87.66,-161.6 4,-7.28 3.86,-12.66 -0.08,-19.85 -29.46,-53.75 -58.47,-107.75 -87.65,-161.63 -1.52,-2.8 -3.23,-5.52 -5.88,-9.96zm0.07 -17.64c2.63,4.56 4.51,7.62 6.21,10.77 32.22,59.51 64.3,119.12 96.81,178.46 3.93,7.19 4.07,12.59 0.1,19.83 -32.51,59.37 -64.6,118.95 -96.82,178.47 -1.69,3.15 -3.6,6.18 -6.08,10.41 -2.28,-3.35 -4.2,-5.68 -5.6,-8.27 -32.81,-60.6 -65.52,-121.21 -98.42,-181.74 -3.11,-5.72 -4.06,-10.29 -0.59,-16.61 33.64,-61.48 66.89,-123.17 100.28,-184.83 0.94,-1.72 2.1,-3.35 4.11,-6.49z"/>
   <path class="fil0" d="M1886.46 2827.29c-2.65,4.48 -4.37,7.16 -5.87,9.98 -29.19,53.88 -58.21,107.88 -87.67,161.61 -3.97,7.21 -4.04,12.61 -0.05,19.87 29.46,53.71 58.47,107.71 87.67,161.6 1.65,3.05 3.62,5.95 6.04,9.83 2.46,-4.13 4.41,-7.14 6.12,-10.29 29,-53.53 57.81,-107.16 87.13,-160.52 4.19,-7.63 4.19,-13.37 0.02,-20.95 -29.29,-53.38 -58.13,-107.01 -87.13,-160.55 -1.7,-3.14 -3.63,-6.15 -6.26,-10.59zm-0.01 -17.81c2.63,4.53 4.68,7.83 6.54,11.26 32.22,59.52 64.36,119.09 96.74,178.51 3.29,6.07 4.71,10.85 0.97,17.7 -33.47,61.11 -66.5,122.47 -99.71,183.75 -1.12,2.07 -2.56,3.95 -4.66,7.12 -2.51,-4.29 -4.58,-7.58 -6.41,-10.97 -32.06,-59.17 -63.93,-118.41 -96.28,-177.39 -4.18,-7.62 -4.27,-13.31 -0.08,-20.94 32.33,-58.97 64.2,-118.23 96.22,-177.39 1.9,-3.52 3.95,-6.92 6.67,-11.65z"/>
   <path class="fil0" d="M2456.35 2204.02c2.48,-3.93 4.07,-6.18 5.37,-8.56 29.59,-54.6 59.01,-109.26 88.83,-163.69 3.61,-6.62 2.88,-11.59 -0.48,-17.76 -29.54,-54.16 -58.81,-108.44 -88.22,-162.63 -1.42,-2.65 -3.35,-5.01 -5.64,-8.36 -1.99,3.07 -3.39,4.96 -4.5,7 -29.76,54.94 -59.37,109.95 -89.39,164.75 -3.61,6.62 -2.92,11.59 0.46,17.76 29.34,53.79 58.43,107.72 87.61,161.6 1.52,2.79 3.26,5.45 5.95,9.9zm0.05 17.76c-2.87,-4.82 -5,-8.11 -6.85,-11.54 -31.86,-58.84 -63.54,-117.78 -95.66,-176.45 -4.18,-7.6 -4.25,-13.32 -0.07,-20.98 32.15,-58.66 63.81,-117.6 95.66,-176.45 1.87,-3.44 3.99,-6.75 6.73,-11.4 2.16,3.22 3.81,5.32 5.06,7.61 32.83,60.59 65.59,121.23 98.52,181.78 3.11,5.7 4.19,10.32 0.72,16.68 -33.64,61.54 -66.91,123.28 -100.3,184.95 -0.74,1.37 -1.73,2.66 -3.81,5.79z"/>
   <path class="fil0" d="M1886.47 1876.29c2.63,-4.44 4.57,-7.47 6.28,-10.62 29,-53.53 57.8,-107.16 87.12,-160.52 4.2,-7.66 4.07,-13.4 -0.08,-20.98 -29.28,-53.35 -58.12,-106.98 -87.12,-160.53 -1.7,-3.14 -3.66,-6.15 -6.11,-10.27 -2.39,3.91 -4.36,6.8 -6.02,9.86 -29.19,53.88 -58.2,107.88 -87.68,161.59 -4,7.28 -3.87,12.68 0.06,19.88 29.46,53.74 58.48,107.72 87.66,161.62 1.5,2.8 3.24,5.49 5.89,9.95zm0.02 -380.72c2.41,4 4.18,6.67 5.7,9.45 32.6,60.22 65.14,120.49 97.79,180.7 3.01,5.53 4.62,10.03 1.02,16.61 -33.88,61.81 -67.28,123.89 -100.87,185.88 -0.74,1.39 -1.76,2.6 -3.3,4.84 -1.92,-2.58 -3.72,-4.46 -4.91,-6.67 -33.22,-61.26 -66.32,-122.61 -99.67,-183.8 -3.06,-5.58 -3.18,-9.88 -0.1,-15.53 33.57,-61.56 66.86,-123.23 100.25,-184.88 0.94,-1.73 2.08,-3.37 4.09,-6.6z"/>
   <path class="fil0" d="M176.57 889.67c2.03,-2.89 3.07,-4.11 3.83,-5.48 30.33,-56 60.57,-112.07 91.04,-167.98 2.89,-5.31 2.6,-9.4 -0.19,-14.52 -30.25,-55.59 -60.29,-111.28 -90.47,-166.92 -1.02,-1.91 -2.77,-3.4 -4.67,-5.65 -2.22,3.69 -3.96,6.37 -5.47,9.16 -28.99,53.52 -57.79,107.15 -87.09,160.48 -4.23,7.69 -3.95,13.44 0.18,21 29.08,53.01 57.68,106.27 86.48,159.45 1.68,3.09 3.65,6.02 6.36,10.45zm0 -379.24c2.66,4.39 4.4,7.01 5.89,9.76 32.44,59.91 64.73,119.86 97.42,179.62 3.79,6.9 3.61,12.04 -0.11,18.84 -32.49,59.42 -64.59,119.03 -96.84,178.56 -1.66,3.08 -3.64,6 -6.19,10.17 -2.53,-4.01 -4.53,-6.85 -6.17,-9.88 -32.25,-59.53 -64.37,-119.13 -96.81,-178.55 -3.64,-6.67 -4.37,-11.81 -0.51,-18.85 32.93,-60.11 65.42,-120.42 98.04,-180.67 1.33,-2.43 2.8,-4.8 5.28,-9.01z"/>
   <path class="fil0" d="M1316.48 889.54c1.91,-2.6 2.74,-3.49 3.32,-4.55 30.52,-56.37 60.95,-112.75 91.67,-169.02 2.95,-5.4 2.26,-9.49 -0.47,-14.51 -30.05,-55.26 -59.91,-110.59 -89.91,-165.87 -1.19,-2.19 -3.14,-3.93 -5.09,-6.32 -1.55,2.34 -2.54,3.6 -3.31,5 -30.14,55.66 -60.1,111.4 -90.55,166.89 -3.78,6.89 -2.16,11.79 1.11,17.76 29.08,53.47 57.99,107.02 87,160.54 1.66,3.06 3.67,5.93 6.23,10.07zm0.11 -378.95c2.87,4.82 5,8.1 6.86,11.55 31.85,58.82 63.54,117.76 95.66,176.44 4.17,7.59 4.25,13.33 0.07,20.97 -32.15,58.68 -63.82,117.62 -95.67,176.45 -1.87,3.44 -3.99,6.78 -6.72,11.41 -2.18,-3.21 -3.81,-5.31 -5.07,-7.6 -32.83,-60.6 -65.59,-121.23 -98.52,-181.78 -3.1,-5.71 -4.18,-10.32 -0.71,-16.68 33.64,-61.54 66.89,-123.28 100.28,-184.95 0.74,-1.4 1.73,-2.67 3.81,-5.81z"/>
   <path class="fil0" d="M2456.48 528.7c-2.35,3.67 -4.18,6.15 -5.64,8.85 -29.4,54.2 -58.6,108.52 -88.29,162.59 -3.87,7.06 -3.08,12.25 0.53,18.87 29.2,53.4 58.06,107 87.07,160.52 1.65,3.06 3.65,5.91 6.22,10.02 2.36,-3.68 4.2,-6.17 5.65,-8.82 29.4,-54.23 58.62,-108.55 88.3,-162.62 3.88,-7.07 3.05,-12.25 -0.58,-18.84 -29.18,-53.42 -58.03,-107.01 -87.03,-160.53 -1.66,-3.05 -3.67,-5.93 -6.24,-10.03zm-0.25 378.81c-2.48,-4.18 -4.2,-6.85 -5.69,-9.62 -32.45,-59.88 -64.79,-119.83 -97.39,-179.64 -3.42,-6.27 -3.89,-11.24 -0.3,-17.76 33.05,-60.47 65.75,-121.13 98.59,-181.73 1.26,-2.34 2.86,-4.51 5.04,-7.83 2.52,4.07 4.5,6.94 6.14,10 32.24,59.53 64.46,119.09 96.71,178.62 2.93,5.4 5.21,9.93 1.54,16.66 -33.87,61.86 -67.28,123.96 -100.87,185.99 -0.74,1.37 -1.79,2.55 -3.78,5.33z"/>
   <path class="fil0" d="M1444.63 2425.3c1.45,3.11 2.07,4.94 3.06,6.54 33.52,54.58 67.14,109.1 100.53,163.76 2.94,4.83 6.45,6.26 11.74,6.39 62.83,1.61 125.68,3.4 188.52,5.08 2.67,0.07 5.35,-0.39 9.16,-0.72 -1.55,-3.35 -2.46,-5.91 -3.84,-8.17 -32.67,-53.19 -65.55,-106.3 -97.95,-159.68 -4.03,-6.62 -8.81,-8.14 -15.76,-8.29 -60.82,-1.52 -121.65,-3.27 -182.48,-4.89 -3.87,-0.12 -7.74,-0.02 -12.99,-0.02zm328.63 190.78c-5.27,0 -9.28,0.08 -13.28,-0.02 -66.87,-1.8 -133.74,-3.75 -200.6,-5.27 -8.6,-0.2 -13.74,-3.02 -18.29,-10.52 -34.93,-57.49 -70.31,-114.7 -105.55,-172.03 -1.88,-3.06 -3.61,-6.21 -6.06,-10.41 3.27,-0.55 5.81,-1.38 8.3,-1.3 69.69,1.91 139.39,3.93 209.06,5.76 5.66,0.14 9.73,1.33 12.93,6.59 37.17,60.87 74.54,121.57 111.82,182.38 0.59,0.94 0.75,2.14 1.66,4.83z"/>
   <path class="fil0" d="M1757.93 1292.13c-1.8,-3.53 -2.85,-6.01 -4.26,-8.29 -32.68,-53.21 -65.52,-106.31 -97.98,-159.67 -3.69,-6.07 -7.96,-7.93 -14.63,-8.08 -62.03,-1.49 -124.08,-3.29 -186.12,-4.97 -3.01,-0.09 -6.02,-0.02 -10.15,-0.02 1.22,3.01 1.62,4.51 2.41,5.79 33.73,54.94 67.55,109.81 101.13,164.82 3,4.92 6.71,6.01 11.88,6.15 62.84,1.63 125.69,3.4 188.53,5.08 2.6,0.09 5.25,-0.44 9.18,-0.81zm16.2 9.84c-5.38,0 -8.87,0.09 -12.36,0 -67.68,-1.81 -135.35,-3.72 -203.03,-5.38 -7.4,-0.18 -12.49,-1.97 -16.73,-8.9 -36,-59.2 -72.42,-118.15 -108.71,-177.19 -1.2,-1.95 -2.13,-4.1 -3.8,-7.35 3.3,-0.34 5.53,-0.85 7.72,-0.78 69.68,1.91 139.38,3.99 209.06,5.7 6.85,0.19 10.86,2.36 14.46,8.27 36.29,59.49 72.87,118.82 109.35,178.2 1.05,1.69 1.91,3.48 4.04,7.44z"/>
   <path class="fil0" d="M746.65 1875.74c1.62,-2.41 2.87,-3.95 3.81,-5.69 30.36,-56 60.61,-112.07 91.15,-167.98 3.19,-5.81 2.41,-10.13 -0.54,-15.57 -30.11,-55.23 -59.96,-110.59 -89.96,-165.88 -1.19,-2.2 -2.94,-4.11 -4.87,-6.78 -1.68,2.72 -2.82,4.34 -3.77,6.09 -30.15,55.65 -60.17,111.39 -90.59,166.9 -3.45,6.29 -2.54,10.87 0.6,16.63 29.69,54.53 59.14,109.2 88.72,163.79 1.47,2.74 3.35,5.22 5.46,8.48zm-0.24 -380.1c2.3,3.61 4.15,6.17 5.63,8.92 32.81,60.58 65.49,121.21 98.46,181.68 3.24,5.95 3.58,10.5 0.23,16.62 -33.2,60.81 -66.06,121.82 -99.05,182.76 -1.31,2.41 -3,4.61 -5.26,8.06 -2.5,-4.29 -4.57,-7.62 -6.43,-11.07 -32.03,-59.14 -63.92,-118.41 -96.27,-177.39 -4.19,-7.64 -4.17,-13.33 -0.01,-20.94 32.33,-58.97 64.21,-118.21 96.25,-177.38 1.88,-3.49 3.95,-6.89 6.46,-11.26z"/>
   <path class="fil0" d="M2583.62 2425.52c36.83,59.91 72.43,117.83 107.76,175.28 29.46,3.88 195.31,7.28 205.86,4.11 -1.77,-3.21 -3.35,-6.39 -5.19,-9.37 -31.62,-51.48 -63.46,-102.87 -94.74,-154.57 -4.79,-7.91 -10.1,-10.75 -19.24,-10.94 -56.81,-1.15 -113.61,-2.94 -170.41,-4.49 -7.18,-0.17 -14.35,-0.02 -24.05,-0.02zm330.35 190.47c-7.85,0 -13.8,0.13 -19.74,-0.03 -64.46,-1.75 -128.89,-3.77 -193.36,-5.05 -10.18,-0.2 -15.8,-3.79 -20.97,-12.32 -34.47,-56.85 -69.46,-113.36 -104.24,-170.01 -2.05,-3.31 -3.85,-6.76 -6.44,-11.43 4,-0.27 6.62,-0.71 9.25,-0.63 68.87,1.91 137.76,3.95 206.64,5.69 7.04,0.17 11.7,1.88 15.62,8.36 36.04,59.19 72.42,118.15 108.69,177.2 1.24,2 2.29,4.14 4.54,8.21z"/>
   <path class="fil0" d="M303.86 2425.52c36.9,60.02 72.52,117.98 107.83,175.41 36.61,4.28 195.82,7.29 205.72,3.8 -1.55,-2.83 -2.95,-5.66 -4.6,-8.32 -31.83,-51.85 -63.89,-103.56 -95.36,-155.63 -4.85,-8 -10.34,-10.54 -19.35,-10.73 -56.8,-1.19 -113.6,-2.96 -170.4,-4.49 -7.15,-0.2 -14.29,-0.05 -23.85,-0.05zm330.27 190.31c-10.24,0 -18.63,0.19 -27,-0.02 -62.03,-1.67 -124.06,-3.67 -186.09,-4.89 -10.21,-0.2 -15.78,-3.91 -20.93,-12.39 -34.47,-56.85 -69.46,-113.36 -104.26,-169.98 -2.02,-3.31 -3.79,-6.78 -6.36,-11.4 4.03,-0.27 6.69,-0.68 9.3,-0.61 69.29,1.93 138.57,4 207.86,5.67 7.01,0.17 10.82,2.72 14.34,8.48 35.89,58.78 72.05,117.43 108.11,176.13 1.45,2.34 2.7,4.82 5.05,9.02z"/>
   <path class="fil0" d="M176.83 1842.42c-2.49,3.95 -4.08,6.15 -5.37,8.52 -29.58,54.6 -59.02,109.25 -88.83,163.7 -3.57,6.54 -3.08,11.53 0.32,17.75 29.55,54.14 58.84,108.44 88.23,162.65 1.44,2.66 3.31,5.07 5.62,8.59 2.2,-3.49 3.81,-5.69 5.09,-8.07 29.59,-54.59 59.01,-109.23 88.83,-163.69 3.57,-6.54 3.06,-11.53 -0.34,-17.75 -29.16,-53.45 -58.04,-107.03 -87.03,-160.55 -1.71,-3.16 -3.63,-6.23 -6.53,-11.14zm-0.15 -17.86c2.85,4.82 4.78,7.83 6.47,10.96 32.04,59.19 63.96,118.45 96.22,177.53 3.88,7.07 4.44,12.49 0.37,19.92 -32.56,59.35 -64.64,119 -96.87,178.54 -1.65,3.03 -3.63,5.9 -6.18,10.03 -2.55,-4.11 -4.53,-6.98 -6.18,-10.03 -32.26,-59.54 -64.36,-119.14 -96.83,-178.56 -3.67,-6.73 -4.15,-11.86 -0.32,-18.84 32.9,-60.12 65.39,-120.43 98.03,-180.68 1.32,-2.41 2.81,-4.75 5.3,-8.87z"/>
   <path class="fil0" d="M1316.55 1842.88c-2.02,3.01 -3.47,4.83 -4.56,6.82 -29.94,55.28 -59.74,110.66 -89.95,165.81 -3.5,6.39 -2.35,11 0.74,16.68 29.47,54.18 58.79,108.45 88.19,162.66 1.45,2.68 3.27,5.17 5.59,8.78 2.01,-3.01 3.46,-4.8 4.54,-6.8 29.96,-55.3 59.76,-110.68 89.96,-165.83 3.49,-6.36 2.36,-11 -0.74,-16.68 -29.48,-54.17 -58.8,-108.43 -88.19,-162.66 -1.45,-2.69 -3.28,-5.14 -5.59,-8.78zm0.16 -17.88c2.68,4.48 4.82,7.78 6.66,11.18 31.86,58.85 63.55,117.75 95.66,176.47 4.14,7.51 4.42,13.26 0.21,20.95 -32.18,58.66 -63.84,117.6 -95.68,176.45 -1.88,3.44 -3.98,6.8 -6.71,11.45 -2.33,-3.49 -4.19,-5.88 -5.62,-8.51 -32.66,-60.24 -65.24,-120.51 -97.96,-180.69 -3.08,-5.66 -4.34,-10.28 -0.82,-16.71 33.45,-61.17 66.49,-122.56 99.69,-183.87 1.08,-1.97 2.55,-3.75 4.58,-6.72z"/>
   <path class="fil0" d="M875.24 2754.32c2.11,4.04 3.51,7.21 5.31,10.15 32.05,52.18 64.26,104.25 96.05,156.59 4.07,6.7 8.59,9.27 16.36,9.45 60.82,1.37 121.66,3.2 182.48,4.82 3.87,0.12 7.75,0.02 13.06,0.02 -1.45,-3.09 -2.06,-4.92 -3.03,-6.49 -33.53,-54.6 -67.13,-109.13 -100.55,-163.76 -2.9,-4.79 -6.36,-6.33 -11.72,-6.46 -63.23,-1.59 -126.48,-3.38 -189.73,-5.08 -2.27,-0.05 -4.56,0.41 -8.23,0.76zm-15.85 -9.66c7.61,0 13.6,-0.13 19.58,0.02 64.05,1.75 128.09,3.71 192.14,5.08 10.27,0.23 16.57,3.17 22.17,12.45 34.31,56.94 69.38,113.4 104.17,170.04 2.02,3.28 3.77,6.78 6.26,11.31 -4.07,0.27 -6.73,0.69 -9.36,0.61 -68.89,-1.92 -137.76,-3.95 -206.64,-5.81 -6.33,-0.17 -11.07,-1.06 -14.94,-7.4 -36.65,-60.22 -73.69,-120.22 -110.58,-180.28 -0.81,-1.31 -1.32,-2.8 -2.79,-6.03z"/>
   <path class="fil0" d="M618.31 125.76c-4.5,-0.23 -6.91,-0.53 -9.28,-0.46 -62.84,1.69 -125.69,3.54 -188.53,4.99 -6.69,0.13 -10.04,2.94 -13.24,8.15 -32.56,53.28 -65.3,106.46 -97.94,159.69 -1.55,2.53 -2.58,5.4 -4.27,9.04 3.44,0 5.45,0.07 7.45,0 63.23,-1.73 126.47,-3.56 189.73,-4.99 7.21,-0.16 10.68,-3.49 14.09,-9.06 32.14,-52.57 64.5,-105.05 96.76,-157.55 1.62,-2.65 2.93,-5.45 5.24,-9.81zm-329.46 189.52c12.8,-20.83 24.38,-39.7 35.96,-58.56 25.73,-41.87 51.58,-83.67 77.11,-125.67 3.73,-6.13 7.86,-9.14 15.23,-9.33 69.69,-1.67 139.38,-3.65 209.07,-5.52 1.97,-0.05 3.96,0.21 7.18,0.4 -1.59,3.38 -2.64,6.25 -4.21,8.8 -36.03,58.71 -72.22,117.32 -108.07,176.14 -3.85,6.29 -8.29,8.46 -15.48,8.65 -68.89,1.72 -137.75,3.79 -206.63,5.72 -2.67,0.07 -5.34,-0.32 -10.17,-0.62z"/>
   <path class="fil0" d="M875.22 126.08c1.75,3.49 2.77,6 4.16,8.25 32.69,53.22 65.53,106.34 97.98,159.7 3.68,6.01 7.94,7.97 14.62,8.13 62.44,1.52 124.88,3.28 187.31,4.99 2.61,0.07 5.24,0 9.02,0 -1.22,-2.94 -1.61,-4.44 -2.39,-5.72 -33.72,-54.94 -67.54,-109.81 -101.13,-164.82 -2.96,-4.87 -6.62,-6.09 -11.85,-6.24 -62.83,-1.6 -125.67,-3.37 -188.52,-5.05 -2.63,-0.07 -5.28,0.41 -9.21,0.75zm-16.15 -9.79c5.58,0 9.44,-0.1 13.3,0.02 66.87,1.79 133.73,3.74 200.61,5.26 8.94,0.21 14.45,2.88 19.31,10.91 35.06,57.91 70.68,115.45 106.11,173.12 1.63,2.64 3.06,5.45 5.25,9.35 -3.62,0.41 -6.21,1.01 -8.77,0.94 -68.87,-1.9 -137.75,-4 -206.62,-5.67 -7.69,-0.21 -12.32,-2.3 -16.47,-9.13 -35.57,-58.52 -71.58,-116.77 -107.42,-175.14 -1.61,-2.61 -2.96,-5.4 -5.28,-9.67z"/>
   <path class="fil0" d="M2329.39 307.11c-37.07,-60.32 -72.72,-118.25 -108.04,-175.69 -38.58,-4.37 -195.85,-7.28 -205.54,-3.74 0.66,1.42 1.19,2.92 1.99,4.22 33.32,54.23 66.76,108.39 99.82,162.78 3.84,6.32 8.67,7.28 15,7.47 61.22,1.56 122.47,3.28 183.69,4.97 3.5,0.09 7,0 13.07,0zm14.05 8.41c-3.63,0.22 -5.63,0.53 -7.6,0.46 -69.67,-1.95 -139.36,-4.05 -209.04,-5.81 -6.79,-0.17 -10.89,-2.21 -14.52,-8.16 -36.5,-59.84 -73.32,-119.51 -110.01,-179.22 -0.82,-1.35 -1.45,-2.82 -2.68,-5.31 2.99,-0.48 5.48,-1.29 7.95,-1.22 69.28,1.82 138.57,3.73 207.85,5.54 6.37,0.16 11.11,1.52 14.9,7.74 36.66,60.2 73.7,120.2 110.61,180.26 0.78,1.29 1.23,2.79 2.54,5.73z"/>
   <path class="fil0" d="M304.73 2934.8c2.88,0.35 4.07,0.65 5.24,0.63 64.45,-1.7 128.9,-3.52 193.36,-5.08 6.16,-0.13 9.33,-2.98 12.29,-7.84 32.81,-53.57 65.78,-107.09 98.66,-160.66 1.33,-2.17 1.94,-4.8 3.27,-8.2 -4.89,0 -8.48,-0.07 -12.07,0.02 -61.23,1.66 -122.45,3.47 -183.68,4.83 -7.49,0.19 -11.48,3.11 -15.16,9.14 -31.89,52.31 -64.04,104.41 -96.08,156.6 -1.85,3.01 -3.41,6.18 -5.83,10.56zm329.91 -190.23c-7.17,11.81 -12.96,21.43 -18.84,31 -31.22,50.79 -62.59,101.5 -93.52,152.46 -4.47,7.35 -9.42,10.32 -18.13,10.53 -68.49,1.58 -136.95,3.69 -205.42,5.64 -2.39,0.07 -4.78,0 -8.32,0 0.94,-2.87 1.23,-5.14 2.32,-6.92 36.65,-59.76 73.48,-119.38 109.93,-179.26 4.07,-6.68 9.22,-7.86 16,-8.02 48.75,-1.12 97.48,-2.41 146.22,-3.69 18.53,-0.48 37.05,-1.18 55.59,-1.71 3.93,-0.1 7.88,-0.02 14.18,-0.02z"/>
   <path class="fil0" d="M2328.39 1111.65c-2.94,-0.33 -4.14,-0.6 -5.33,-0.58 -64.46,1.72 -128.9,3.54 -193.36,5.07 -6.2,0.17 -9.28,3.11 -12.22,7.93 -32.83,53.59 -65.81,107.08 -98.68,160.65 -1.33,2.15 -1.89,4.78 -3.2,8.2 4.52,0 7.69,0.07 10.89,-0.02 61.62,-1.68 123.25,-3.49 184.9,-4.87 7.51,-0.16 11.45,-3.22 15.12,-9.21 32.1,-52.62 64.46,-105.08 96.72,-157.61 1.62,-2.66 2.98,-5.49 5.17,-9.55zm-329.73 189.79c15.43,-25.18 29.74,-48.51 44.07,-71.82 23,-37.41 46.04,-74.76 68.95,-112.22 3.27,-5.33 6.32,-9.16 13.84,-9.35 70.49,-1.64 140.99,-3.74 211.47,-5.7 1.58,-0.05 3.16,0.25 5.86,0.48 -1.2,2.92 -1.88,5.48 -3.21,7.67 -36.23,59.06 -72.61,118.03 -108.74,177.16 -3.47,5.67 -7.21,8.7 -14.26,8.87 -70.09,1.67 -140.17,3.64 -210.28,5.51 -1.88,0.05 -3.79,-0.27 -7.69,-0.6z"/>
   <path class="fil0" d="M2583.81 2934.84c3.84,0.35 5.39,0.65 6.93,0.6 64.05,-1.72 128.09,-3.57 192.15,-5.06 6.8,-0.15 9.88,-3.62 13,-8.73 32.4,-52.92 64.96,-105.72 97.41,-158.59 1.56,-2.55 2.57,-5.45 4.63,-9.91 -69.78,1.91 -137.75,3.79 -205.9,5.65 -35.95,58.48 -71.55,116.39 -108.22,176.03zm-14.42 8.73c1.79,-3.48 2.83,-5.94 4.23,-8.2 36.05,-58.68 72.22,-117.32 108.1,-176.13 3.76,-6.13 7.92,-9.07 15.28,-9.26 69.69,-1.67 139.38,-3.65 209.06,-5.51 1.97,-0.07 3.95,0.2 6.99,0.38 -1.34,3.04 -2.13,5.58 -3.49,7.81 -36.25,59.05 -72.63,118.01 -108.69,177.18 -3.86,6.35 -8.35,8.41 -15.5,8.6 -68.89,1.72 -137.75,3.79 -206.63,5.72 -2.65,0.08 -5.32,-0.34 -9.33,-0.59z"/>
   <path class="fil0" d="M2897.5 1292.22c-1.52,-3.31 -2.4,-5.88 -3.79,-8.13 -32.68,-53.22 -65.56,-106.32 -97.95,-159.69 -4.01,-6.58 -8.79,-8.16 -15.74,-8.32 -60.82,-1.49 -121.66,-3.25 -182.49,-4.9 -3.86,-0.12 -7.73,-0.02 -13.01,-0.02 1.43,3.09 2.05,4.92 3.01,6.49 33.53,54.6 67.14,109.13 100.54,163.79 2.93,4.8 6.41,6.3 11.73,6.41 63.26,1.61 126.49,3.42 189.75,5.13 2.27,0.05 4.55,-0.41 7.95,-0.76zm-328.12 -189.2c3.59,-0.32 5.85,-0.73 8.12,-0.66 69.68,1.93 139.36,3.97 209.04,5.74 6.32,0.16 10.26,1.95 13.66,7.52 36.52,59.82 73.29,119.5 109.99,179.22 1.01,1.66 1.8,3.45 3.33,6.41 -3.88,0.29 -6.87,0.8 -9.83,0.73 -68.48,-1.79 -136.95,-3.74 -205.43,-5.4 -7.59,-0.18 -12.39,-2.43 -16.54,-9.23 -35.58,-58.52 -71.57,-116.8 -107.4,-175.15 -1.59,-2.6 -2.91,-5.39 -4.93,-9.18z"/>
   <path class="fil0" d="M2692.01 1444.68c-35.95,58.53 -71.69,116.66 -108.22,176.13 4.12,0.27 6.02,0.55 7.92,0.51 63.65,-1.73 127.28,-3.54 190.94,-5.06 6.7,-0.15 9.95,-3.3 13.14,-8.49 32.57,-53.29 65.36,-106.43 98.03,-159.66 1.36,-2.22 2.14,-4.83 4,-9.05 -69.55,1.9 -137.47,3.77 -205.81,5.62zm221.73 -13.92c-2.49,4.49 -4.08,7.65 -5.91,10.63 -35.42,57.67 -70.96,115.26 -106.15,173.07 -4.26,6.99 -8.95,9.74 -17.23,9.93 -68.49,1.6 -136.95,3.72 -205.42,5.63 -2.71,0.09 -5.43,-0.25 -9.42,-0.46 1.57,-3.33 2.49,-5.84 3.85,-8.06 36.06,-58.7 72.22,-117.33 108.14,-176.11 3.67,-6.02 7.6,-9.35 15.12,-9.54 70.09,-1.65 140.17,-3.64 210.27,-5.51 1.58,-0.05 3.17,0.18 6.76,0.41z"/>
   <path class="fil0" d="M2327.79 1621.03c-0.8,-2.47 -0.97,-3.69 -1.54,-4.66 -33.91,-55.28 -67.93,-110.5 -101.71,-165.88 -3.02,-4.95 -6.88,-5.84 -11.99,-5.97 -62.83,-1.63 -125.67,-3.4 -188.5,-5.06 -2.6,-0.07 -5.2,0.46 -9.11,0.85 2.58,4.7 4.33,8.18 6.35,11.52 31.41,51.14 63.05,102.18 94.12,153.52 4.77,7.85 9.89,10.95 19.14,11.14 57.62,1.14 115.2,2.99 172.81,4.53 6.42,0.18 12.85,0.01 20.42,0.01zm15.69 8.41c-3.98,0.28 -6.64,0.67 -9.29,0.6 -68.87,-1.93 -137.75,-3.96 -206.62,-5.79 -6.34,-0.19 -11.1,-1.11 -14.94,-7.42 -36.65,-60.25 -73.68,-120.22 -110.59,-180.28 -0.81,-1.3 -1.32,-2.82 -2.48,-5.38 3.69,-0.33 6.66,-0.85 9.62,-0.79 68.48,1.82 136.95,3.78 205.44,5.42 7.56,0.19 12.4,2.41 16.55,9.25 35.8,58.86 72.01,117.46 108.07,176.14 1.39,2.28 2.46,4.74 4.25,8.25z"/>
   <path class="fil0" d="M1188.25 1621.22c-1.13,-2.8 -1.52,-4.32 -2.28,-5.58 -33.73,-54.94 -67.53,-109.81 -101.12,-164.84 -2.96,-4.83 -6.55,-6.14 -11.81,-6.27 -62.84,-1.61 -125.69,-3.39 -188.53,-5.06 -2.64,-0.07 -5.29,0.41 -9.2,0.73 1.69,3.45 2.66,5.95 4.06,8.23 32.67,53.21 65.55,106.29 97.93,159.69 4.07,6.71 9,8 15.83,8.18 60.83,1.54 121.65,3.26 182.49,4.92 3.85,0.09 7.71,0 12.64,0zm15.62 8.82c-29.93,-0.68 -57.7,-1.19 -85.44,-1.95 -43.51,-1.21 -87.01,-2.73 -130.5,-3.79 -7.01,-0.16 -11.7,-1.81 -15.66,-8.32 -36.25,-59.52 -72.85,-118.82 -109.34,-178.2 -1.03,-1.67 -1.85,-3.49 -3.33,-6.34 3.22,-0.43 5.76,-1.12 8.27,-1.06 69.28,1.82 138.56,3.75 207.83,5.52 6.48,0.19 11.08,1.8 14.81,7.93 36.47,59.88 73.29,119.5 109.99,179.24 0.99,1.61 1.66,3.4 3.38,6.97z"/>
   <path class="fil0" d="M2328.3 2935.15c-1.4,-3.06 -1.92,-4.55 -2.71,-5.86 -33.52,-54.6 -67.14,-109.1 -100.5,-163.78 -3.2,-5.25 -6.96,-6.76 -12.71,-6.9 -62.44,-1.54 -124.89,-3.33 -187.31,-4.99 -2.96,-0.07 -5.94,0.53 -10.14,0.92 2.65,4.75 4.42,8.24 6.47,11.58 31.42,51.15 63.05,102.18 94.12,153.51 4.8,7.93 10.11,10.77 19.25,10.96 57.19,1.17 114.4,2.98 171.6,4.53 6.78,0.17 13.57,0.02 21.94,0.02zm-328.97 -190.62c4.9,0 8.11,-0.07 11.31,0.02 67.67,1.82 135.34,3.8 203.01,5.34 8.62,0.2 13.74,3.09 18.27,10.54 35.37,58.18 71.17,116.1 106.8,174.1 1.46,2.37 2.76,4.85 4.75,8.36 -3.26,0.53 -5.79,1.36 -8.29,1.28 -69.68,-1.9 -139.36,-3.97 -209.04,-5.81 -5.66,-0.17 -9.72,-1.36 -12.93,-6.61 -36.98,-60.51 -74.17,-120.87 -111.27,-181.28 -0.78,-1.3 -1.24,-2.8 -2.6,-5.94z"/>
   <path class="fil0" d="M304.19 1621.63c22.39,-0.73 42.48,-1.54 62.58,-2.07 44.72,-1.19 89.43,-2.31 134.14,-3.28 6.53,-0.14 11.04,-1.67 14.8,-7.83 32.65,-53.69 65.71,-107.16 98.57,-160.73 1.33,-2.17 1.94,-4.8 3.28,-8.22 -4.5,0 -7.69,-0.07 -10.88,0 -61.63,1.67 -123.25,3.52 -184.89,4.87 -7.48,0.19 -11.48,3.13 -15.15,9.16 -31.89,52.28 -64.04,104.39 -96.08,156.57 -1.85,3.01 -3.43,6.18 -6.37,11.53zm330.59 -191.2c-15.58,25.37 -29.69,48.35 -43.82,71.33 -23.18,37.75 -46.49,75.46 -69.51,113.33 -3.65,5.99 -7.55,9.07 -15.12,9.26 -69.69,1.67 -139.36,3.79 -209.05,5.77 -1.97,0.05 -3.95,-0.24 -7.08,-0.41 1.24,-3.06 1.93,-5.63 3.26,-7.81 36.24,-59.06 72.63,-118 108.71,-177.16 3.85,-6.32 8.34,-8.75 15.51,-8.87 28.19,-0.5 56.39,-1.47 84.58,-2.22 39.47,-1.08 78.95,-2.14 118.43,-3.17 3.88,-0.11 7.79,-0.02 14.08,-0.02z"/>
   <path class="fil0" d="M1080.94 1287.68c36.07,-58.65 71.97,-116.66 108.12,-175.99 -3.68,-0.35 -5.22,-0.67 -6.75,-0.62 -64.05,1.72 -128.1,3.56 -192.15,5.06 -6.8,0.15 -9.89,3.57 -13.03,8.68 -32.4,52.92 -64.97,105.72 -97.42,158.59 -1.57,2.57 -2.58,5.47 -4.67,9.97 69.78,-1.93 137.74,-3.81 205.9,-5.69zm123.44 -184.7c-17.21,28.03 -33.2,54.09 -49.23,80.15 -21.31,34.67 -42.75,69.26 -63.82,104.07 -3.7,6.11 -7.79,9.19 -15.21,9.36 -69.7,1.64 -139.38,3.63 -209.07,5.47 -2,0.07 -4,-0.18 -7.22,-0.34 1.59,-3.35 2.64,-6.2 4.21,-8.75 36.03,-58.71 72.16,-117.38 108.1,-176.15 3.42,-5.58 7.01,-8.56 14.18,-8.75 69.69,-1.66 139.38,-3.74 209.06,-5.67 2.29,-0.07 4.57,0.3 9.02,0.61z"/>
   <path class="fil0" d="M1188.99 2424.89c-21.97,0.73 -41.69,1.53 -61.4,2.06 -44.71,1.18 -89.43,2.31 -134.14,3.27 -6.78,0.15 -11.86,1.12 -15.98,7.93 -32.59,53.72 -65.69,107.16 -98.56,160.73 -1.31,2.12 -1.88,4.75 -3.18,8.17 4.53,0 7.71,0.07 10.9,-0.02 61.63,-1.68 123.25,-3.52 184.9,-4.87 7.52,-0.19 11.45,-3.24 15.12,-9.24 32.11,-52.62 64.46,-105.08 96.71,-157.61 1.63,-2.65 2.98,-5.48 5.64,-10.42zm15.39 -7.79c-16.99,27.71 -32.76,53.44 -48.58,79.15 -21.53,35.03 -43.2,69.92 -64.48,105.08 -3.71,6.1 -7.79,9.18 -15.22,9.35 -69.7,1.64 -139.38,3.62 -209.06,5.48 -2,0.05 -4,-0.17 -7.22,-0.34 1.59,-3.35 2.64,-6.2 4.21,-8.75 36.03,-58.73 72.21,-117.35 108.05,-176.18 3.82,-6.27 8.2,-8.54 15.44,-8.7 68.88,-1.69 137.76,-3.74 206.64,-5.65 2.67,-0.1 5.36,0.27 10.22,0.55z"/>
   <path class="fil0" d="M1443.98 2934.75c3.76,0.4 5.27,0.72 6.79,0.69 64.06,-1.72 128.09,-3.57 192.14,-5.06 6.75,-0.15 9.9,-3.49 13.07,-8.64 32.37,-52.92 64.93,-105.71 97.37,-158.59 1.59,-2.57 2.62,-5.45 4.74,-10 -69.76,1.93 -137.71,3.79 -205.94,5.65 -35.9,58.39 -71.53,116.32 -108.18,175.94zm-15.28 8.84c9.83,-16.01 18.44,-30.07 27.07,-44.12 28.71,-46.66 57.5,-93.28 85.99,-140.07 3.69,-6.09 7.74,-9.24 15.19,-9.42 70.09,-1.67 140.17,-3.65 210.26,-5.51 1.59,-0.05 3.18,0.2 6.02,0.43 -1.53,3.26 -2.55,6.11 -4.11,8.66 -36.03,58.7 -72.21,117.33 -108.08,176.15 -3.8,6.25 -8.16,8.54 -15.41,8.73 -68.89,1.7 -137.75,3.79 -206.63,5.7 -2.67,0.1 -5.38,-0.27 -10.3,-0.55z"/>
   <path class="fil0" d="M2329.13 2425.71c-4.17,-0.28 -6.07,-0.55 -7.98,-0.51 -63.65,1.7 -127.3,3.54 -190.95,5.06 -6.7,0.15 -9.93,3.33 -13.12,8.52 -32.57,53.27 -65.38,106.41 -98.04,159.64 -1.36,2.22 -2.14,4.85 -3.98,9.07 69.53,-1.91 137.47,-3.79 205.79,-5.65 35.85,-58.32 71.48,-116.27 108.28,-176.13zm14.93 -8.39c-4.28,7.06 -7.58,12.52 -10.93,17.96 -33.96,55.24 -68.02,110.46 -101.82,165.81 -3.66,6 -7.52,9.42 -15.07,9.59 -70.1,1.64 -140.19,3.62 -210.27,5.48 -1.61,0.05 -3.2,-0.15 -5.94,-0.34 1.16,-2.85 1.81,-5.38 3.12,-7.52 36.43,-59.39 72.98,-118.74 109.39,-178.19 2.92,-4.75 5.93,-7.72 12.19,-7.86 70.91,-1.76 141.79,-3.86 212.69,-5.81 1.51,-0.02 3.02,0.39 6.65,0.87z"/>
   <path class="fil0" d="M746.61 856.64c-1.79,2.7 -3.26,4.61 -4.39,6.68 -30.17,55.66 -60.21,111.38 -90.56,166.94 -3.16,5.79 -2.52,10.1 0.45,15.57 30.11,55.21 59.97,110.56 89.96,165.86 1.22,2.22 2.95,4.15 4.89,6.87 1.67,-2.65 2.81,-4.28 3.76,-6.02 30.16,-55.66 60.18,-111.4 90.59,-166.92 3.43,-6.27 2.65,-10.85 -0.5,-16.63 -29.71,-54.53 -59.17,-109.19 -88.73,-163.79 -1.48,-2.75 -3.35,-5.28 -5.46,-8.56zm0.12 -18.03c2.56,4.39 4.62,7.72 6.47,11.12 32.05,59.16 63.93,118.4 96.28,177.39 4.17,7.64 4.25,13.31 0.07,20.93 -32.33,59.01 -64.21,118.25 -96.25,177.4 -1.88,3.51 -3.95,6.91 -6.64,11.6 -2.64,-4.53 -4.71,-7.86 -6.57,-11.31 -32.21,-59.52 -64.32,-119.09 -96.78,-178.47 -3.68,-6.75 -4.14,-11.74 -0.29,-18.78 32.91,-60.06 65.34,-120.37 97.94,-180.6 1.51,-2.79 3.33,-5.38 5.78,-9.28z"/>
   <path class="fil0" d="M1552.15 130.54c-35.92,58.46 -71.66,116.59 -108.55,176.61 5.17,0 7.85,0.07 10.53,0 62.42,-1.71 124.86,-3.49 187.3,-4.99 6.84,-0.16 10.87,-2.53 14.46,-8.41 32.49,-53.33 65.32,-106.46 97.97,-159.67 1.38,-2.24 2.23,-4.8 4.19,-9.17 -69.59,1.91 -137.48,3.77 -205.9,5.63zm-123.4 184.74c13.61,-22.17 25.99,-42.41 38.42,-62.63 24.89,-40.48 49.92,-80.91 74.61,-121.53 3.69,-6.1 7.76,-9.21 15.2,-9.4 70.09,-1.66 140.17,-3.65 210.25,-5.52 1.59,-0.05 3.19,0.24 6,0.44 -1.53,3.27 -2.55,6.14 -4.12,8.69 -36.04,58.71 -72.18,117.34 -108.12,176.12 -3.42,5.59 -7.02,8.57 -14.2,8.74 -69.66,1.67 -139.35,3.79 -209.03,5.74 -2.27,0.07 -4.57,-0.29 -9.02,-0.65z"/>
   <path class="fil0" d="M2897.8 126.11c-3.92,-0.37 -6.56,-0.85 -9.21,-0.78 -62.85,1.67 -125.67,3.47 -188.51,5.01 -5.95,0.13 -9.41,2.22 -12.5,7.26 -32.96,53.98 -66.17,107.81 -99.23,161.74 -1.32,2.13 -1.9,4.71 -3.14,7.84 3.64,0 6.06,0.05 8.46,-0.02 62.43,-1.68 124.87,-3.52 187.33,-4.94 7.42,-0.19 11.48,-3.1 15.22,-9.21 32.08,-52.65 64.46,-105.08 96.72,-157.61 1.61,-2.59 2.87,-5.45 4.87,-9.28zm-329.12 189.13c10.56,-17.24 20.01,-32.67 29.48,-48.07 27.85,-45.31 55.8,-90.53 83.44,-135.95 3.69,-6.05 7.67,-9.31 15.15,-9.49 70.1,-1.66 140.19,-3.65 210.27,-5.52 1.58,-0.05 3.19,0.21 6.08,0.4 -1.52,3.28 -2.52,6.13 -4.06,8.64 -36.02,58.7 -72.15,117.37 -108.12,176.13 -3.4,5.53 -6.9,8.66 -14.13,8.85 -70.08,1.67 -140.16,3.81 -210.24,5.77 -1.89,0.07 -3.8,-0.34 -7.88,-0.74z"/>
   <path class="fil0" d="M875.31 783.33c0.93,2.02 1.56,3.87 2.55,5.47 33.3,54.28 66.73,108.48 99.86,162.85 3.46,5.67 7.68,7.06 13.82,7.21 62.05,1.54 124.11,3.34 186.15,5.01 3.06,0.07 6.13,-0.34 10.47,-0.6 -2.21,-4.15 -3.69,-7.35 -5.53,-10.31 -31.64,-51.52 -63.53,-102.85 -94.8,-154.59 -5.03,-8.34 -10.66,-11.38 -20.17,-11.54 -48.77,-0.8 -97.51,-2.34 -146.28,-3.45 -14.87,-0.32 -29.76,-0.05 -46.08,-0.05zm-16.09 -10.22c76.48,2.09 151.3,4.17 226.53,6.24 39.35,64.01 78.49,127.7 118.64,193.01 -5.13,0.25 -8.17,0.62 -11.18,0.53 -68.5,-1.8 -136.97,-3.68 -205.47,-5.43 -6.39,-0.16 -11.12,-1.4 -14.93,-7.66 -36.87,-60.56 -74.11,-120.9 -111.24,-181.32 -0.6,-0.99 -0.94,-2.11 -2.35,-5.38z"/>
   <path class="fil0" d="M304.38 963.87c5.26,0 8.41,0.1 11.56,0 61.65,-1.69 123.3,-3.56 184.95,-4.87 8.08,-0.19 12.2,-3.3 16.13,-9.76 31.65,-51.95 63.62,-103.74 95.45,-155.61 2.02,-3.28 3.7,-6.78 6.3,-11.58 -4.87,0 -7.98,-0.1 -11.1,0 -61.65,1.68 -123.3,3.51 -184.95,4.89 -7.9,0.19 -12.23,3.21 -16.22,9.79 -32.05,52.67 -64.47,105.1 -96.75,157.63 -1.44,2.34 -2.71,4.8 -5.37,9.5zm329.95 -190.09c-2.45,4.18 -3.99,6.9 -5.62,9.53 -35.66,58 -71.4,115.95 -106.87,174.08 -3.88,6.36 -7.88,10 -15.97,10.19 -68.88,1.53 -137.77,3.5 -206.67,5.33 -2.67,0.07 -5.36,-0.24 -9.45,-0.44 2.14,-4.14 3.54,-7.32 5.33,-10.26 35.62,-58.04 71.29,-116.04 106.87,-174.07 3.27,-5.34 6.37,-9.06 13.91,-9.22 70.51,-1.55 141.01,-3.69 211.5,-5.65 1.58,-0.05 3.15,0.22 6.97,0.5z"/>
   <path class="fil0" d="M2898.16 636.22c-1.32,-3.15 -1.73,-4.69 -2.51,-5.98 -33.53,-54.62 -67.13,-109.18 -100.53,-163.86 -3.13,-5.15 -6.9,-6.82 -12.73,-6.99 -63.26,-1.57 -126.53,-3.4 -189.8,-5.1 -2.2,-0.05 -4.42,0.48 -8,0.89 2,3.52 3.26,5.91 4.67,8.2 32.48,52.89 65.09,105.69 97.3,158.73 4.14,6.82 8.99,8.99 16.59,9.18 61.27,1.42 122.52,3.21 183.76,4.89 3.19,0.08 6.41,0.02 11.25,0.02zm15.93 8.73c-28.01,-0.62 -53.75,-1.04 -79.49,-1.75 -45.92,-1.28 -91.82,-2.85 -137.76,-3.95 -6.72,-0.15 -10.91,-2.11 -14.54,-8.06 -36.09,-59.15 -72.48,-118.1 -108.74,-177.16 -1.39,-2.24 -2.3,-4.78 -4.13,-8.61 5.39,0 9.27,-0.09 13.14,0 67.28,1.79 134.56,3.69 201.83,5.31 7.52,0.17 12.41,2.2 16.59,9.07 35.99,59.22 72.42,118.18 108.71,177.21 1.21,1.95 2.25,4.03 4.4,7.95z"/>
   <path class="fil0" d="M618.19 1950.02c-1.15,-2.68 -1.68,-4.54 -2.64,-6.15 -33.5,-54.62 -67.09,-109.19 -100.5,-163.88 -2.9,-4.73 -6.46,-6.27 -11.81,-6.41 -63.28,-1.6 -126.54,-3.42 -189.81,-5.09 -2.49,-0.07 -5,0.68 -8.42,1.19 2.46,4.28 4.16,7.42 6.02,10.46 30.6,49.79 61.12,99.63 91.88,149.3 11.08,17.88 5.23,15.33 28.33,16 54.8,1.6 109.6,3.09 164.41,4.57 7.13,0.21 14.27,0.02 22.54,0.02zm15.67 8.29c-2.89,0.45 -4.43,0.88 -5.93,0.83 -70.9,-1.95 -141.79,-4.12 -212.69,-5.71 -7.84,-0.18 -10.41,-4.61 -13.57,-9.74 -27.42,-44.62 -54.83,-89.24 -82.26,-133.87 -7.8,-12.71 -15.67,-25.36 -23.44,-38.09 -2.05,-3.33 -3.83,-6.82 -6.49,-11.63 4.74,-0.26 8.15,-0.69 11.53,-0.6 68.08,1.79 136.16,3.69 204.24,5.36 7.05,0.16 11.72,2.09 15.64,8.57 36.47,59.85 73.3,119.51 110.02,179.22 0.83,1.35 1.47,2.82 2.94,5.65z"/>
   <path class="fil0" d="M1445.11 1769.95c1.48,2.68 2.52,4.78 3.73,6.75 32.69,53.23 65.51,106.38 97.99,159.74 3.83,6.27 8.22,8.75 15.47,8.94 62.06,1.47 124.13,3.28 186.17,4.94 2.95,0.1 5.94,-0.41 9.8,-0.69 -1.49,-3.01 -2.25,-4.82 -3.26,-6.48 -33.12,-53.93 -66.36,-107.77 -99.23,-161.84 -3.73,-6.13 -8.14,-7.65 -14.71,-7.83 -40.29,-0.99 -80.58,-2.59 -120.88,-3.43 -24.52,-0.53 -49.08,-0.09 -75.07,-0.09zm328.94 189.37c-76.78,-2.15 -151.62,-4.22 -226.75,-6.32 -39.38,-64.11 -78.51,-127.75 -118.88,-193.47 6.75,0 11.02,-0.1 15.28,0.02 66.86,1.79 133.73,3.61 200.61,5.35 6.64,0.16 11.88,0.87 16.09,7.79 36.58,60.27 73.66,120.22 110.59,180.28 0.8,1.32 1.34,2.79 3.06,6.34z"/>
   <path class="fil0" d="M2014.49 1950.33c4.95,0 8.41,0.1 11.87,0 61.25,-1.68 122.51,-3.49 183.76,-4.89 7.76,-0.19 12.32,-2.85 16.38,-9.52 31.82,-52.34 64.05,-104.43 96.1,-156.63 1.81,-2.96 3.26,-6.14 5.42,-10.25 -4.38,-0.23 -7.48,-0.6 -10.57,-0.5 -62.05,1.67 -124.09,3.5 -186.16,4.94 -6.96,0.15 -10.84,2.59 -14.39,8.4 -32.3,53.01 -64.88,105.82 -97.35,158.71 -1.61,2.64 -2.87,5.48 -5.06,9.74zm-15.86 8.18c18.19,-29.6 35.26,-57.38 52.33,-85.18 20.47,-33.27 41.04,-66.52 61.34,-99.91 3.19,-5.25 6.58,-8.32 13.2,-8.48 70.89,-1.68 141.8,-3.63 212.69,-5.47 1.17,-0.02 2.33,0.32 4.7,0.67 -1.4,3.12 -2.36,6.01 -3.92,8.57 -36.03,58.7 -72.18,117.35 -108.12,176.13 -3.45,5.62 -7.19,8.41 -14.27,8.56 -69.69,1.68 -139.38,3.78 -209.04,5.71 -2.32,0.07 -4.63,-0.31 -8.91,-0.6z"/>
   <path class="fil0" d="M2584.59 1768.51c1.61,3.49 2.13,4.98 2.93,6.29 33.33,54.25 66.81,108.44 99.9,162.82 3.78,6.2 8.47,7.53 14.91,7.7 62.07,1.61 124.12,3.37 186.17,5.01 2.91,0.1 5.85,-0.5 9.65,-0.86 -1.52,-2.95 -2.3,-4.8 -3.33,-6.45 -33.12,-53.93 -66.37,-107.78 -99.22,-161.83 -3.77,-6.21 -8.32,-7.52 -14.8,-7.68 -61.64,-1.53 -123.3,-3.3 -184.97,-4.98 -3.16,-0.09 -6.35,-0.02 -11.24,-0.02zm328.98 189.95c-3.46,0.31 -5.73,0.72 -7.99,0.67 -69.68,-1.93 -139.38,-3.98 -209.07,-5.79 -6.14,-0.17 -10.24,-1.57 -13.73,-7.3 -36.7,-60.17 -73.73,-120.18 -110.62,-180.25 -0.81,-1.31 -1.29,-2.8 -2.43,-5.33 3.28,-0.41 5.82,-1.04 8.35,-0.99 69.28,1.81 138.56,3.71 207.86,5.47 6.02,0.16 10.41,1.47 13.93,7.23 36.93,60.53 74.15,120.87 111.28,181.27 0.76,1.25 1.29,2.65 2.42,5.01z"/>
   <path class="fil0" d="M1188.76 3083.2c-4.72,-0.29 -7.48,-0.65 -10.21,-0.55 -62.46,1.67 -124.92,3.54 -187.39,4.96 -7.1,0.15 -10.77,2.96 -14.25,8.63 -32.34,52.96 -64.91,105.78 -97.38,158.68 -1.61,2.63 -2.76,5.5 -4.58,9.15 3.52,0.2 5.84,0.51 8.14,0.44 62.86,-1.71 125.72,-3.56 188.58,-4.99 7.74,-0.17 11.39,-3.81 15,-9.71 30.45,-49.87 61.14,-99.61 91.74,-149.39 3.13,-5.1 6.14,-10.25 10.34,-17.22zm-329.58 189.37c2.16,-3.81 3.58,-6.54 5.2,-9.16 35.65,-58.02 71.41,-115.94 106.86,-174.08 4.16,-6.82 8.62,-10.25 17.07,-10.43 67.69,-1.47 135.36,-3.45 203.03,-5.24 3.52,-0.1 7.05,-0.02 12.06,-0.02 -1.88,4 -2.92,6.89 -4.48,9.44 -35.82,58.39 -71.81,116.66 -107.42,175.16 -4.05,6.61 -8.45,9.16 -16.31,9.34 -68.89,1.61 -137.75,3.71 -206.64,5.61 -2.65,0.07 -5.31,-0.34 -9.37,-0.63z"/>
   <path class="fil0" d="M1444.85 3083.39c1.63,3.08 2.6,5.2 3.8,7.16 32.9,53.55 65.92,107.06 98.62,160.75 3.62,5.97 7.93,8.01 14.66,8.17 62.86,1.54 125.71,3.35 188.58,5.04 2.2,0.07 4.43,-0.31 7.05,-0.5 -0.54,-2.12 -0.57,-3.38 -1.15,-4.32 -33.92,-55.32 -67.93,-110.57 -101.73,-165.95 -3,-4.95 -6.87,-5.88 -12.03,-6.02 -62.87,-1.62 -125.74,-3.42 -188.58,-5.1 -2.63,-0.07 -5.3,0.41 -9.21,0.78zm328.84 189.22c-3.49,0.28 -5.78,0.7 -8.05,0.62 -69.69,-1.93 -139.37,-3.98 -209.05,-5.76 -6.19,-0.16 -10.24,-1.63 -13.72,-7.33 -36.51,-59.83 -73.33,-119.49 -110.03,-179.21 -1.01,-1.64 -1.73,-3.47 -3.14,-6.39 3.44,-0.41 6,-1.01 8.54,-0.94 69.29,1.8 138.58,3.71 207.85,5.47 6.06,0.14 10.41,1.54 13.91,7.26 36.94,60.53 74.16,120.89 111.29,181.3 0.77,1.24 1.27,2.65 2.4,4.99z"/>
   <path class="fil0" d="M1757.76 1440.31c-3.03,-0.41 -4.88,-0.94 -6.73,-0.89 -64.05,1.71 -128.09,3.54 -192.13,5.06 -5.91,0.13 -8.54,3.02 -11.19,7.38 -33.07,53.9 -66.24,107.76 -99.3,161.69 -1.29,2.1 -1.85,4.66 -3.05,7.76 3.69,0 6.1,0.05 8.51,-0.02 62.43,-1.7 124.86,-3.52 187.31,-4.94 7.48,-0.19 11.47,-3.19 15.18,-9.28 32.09,-52.62 64.47,-105.08 96.74,-157.6 1.58,-2.6 2.79,-5.45 4.66,-9.15zm16.25 -9.5c-2.89,5.02 -4.78,8.49 -6.85,11.87 -35,56.97 -70.2,113.83 -104.82,171.02 -4.85,8.05 -10.25,10.5 -19.28,10.71 -67.67,1.55 -135.33,3.65 -203,5.56 -3.06,0.07 -6.12,-0.25 -10.6,-0.46 2.25,-4.2 3.74,-7.33 5.55,-10.27 35.62,-58.01 71.35,-115.96 106.81,-174.08 3.74,-6.13 7.88,-9.12 15.26,-9.31 69.68,-1.67 139.35,-3.64 209.04,-5.51 1.96,-0.05 3.93,0.2 7.88,0.46z"/>
   <path class="fil0" d="M2584.65 3082.69c1.53,3.37 2.03,4.87 2.82,6.18 33.33,54.24 66.81,108.43 99.91,162.82 3.77,6.18 8.4,7.6 14.87,7.77 62.06,1.59 124.12,3.35 186.19,5.01 2.94,0.07 5.89,-0.45 9.72,-0.78 -1.52,-2.98 -2.28,-4.81 -3.3,-6.45 -33.09,-53.93 -66.34,-107.77 -99.21,-161.83 -3.75,-6.17 -8.21,-7.59 -14.76,-7.74 -61.25,-1.52 -122.5,-3.29 -183.75,-4.94 -3.57,-0.1 -7.18,-0.02 -12.47,-0.02zm-15.25 -9.04c5.4,0 9.28,-0.1 13.16,0.02 67.26,1.79 134.54,3.63 201.82,5.35 6.72,0.19 11.84,1.1 15.99,7.98 36.6,60.25 73.68,120.22 110.6,180.28 0.79,1.28 1.29,2.75 2.43,5.21 -3.44,0.3 -6.07,0.78 -8.69,0.71 -68.87,-1.9 -137.75,-3.95 -206.63,-5.69 -6.97,-0.17 -11.79,-1.45 -15.79,-8.02 -36.05,-59.19 -72.47,-118.13 -108.73,-177.19 -1.38,-2.25 -2.32,-4.78 -4.17,-8.66z"/>
   <path class="fil0" d="M1444.66 454.41c1.68,3.56 2.23,5.06 3.05,6.36 33.34,54.26 66.76,108.46 99.95,162.8 3.4,5.61 7.48,7.45 13.72,7.61 62.87,1.56 125.73,3.38 188.59,5.04 2.48,0.06 4.99,-0.62 8.12,-1.06 -1.22,-2.53 -1.79,-4.03 -2.6,-5.35 -33.32,-54.28 -66.8,-108.46 -99.84,-162.87 -3.81,-6.27 -8.45,-7.4 -14.87,-7.56 -61.24,-1.54 -122.51,-3.28 -183.75,-4.97 -3.55,-0.08 -7.11,0 -12.37,0zm-14.95 -8.73c10.43,0 19.28,-0.2 28.11,0.02 61.62,1.66 123.26,3.59 184.9,4.87 9.67,0.19 15.04,3.66 19.99,11.79 35.13,57.86 70.75,115.42 106.2,173.07 1.46,2.39 2.79,4.85 4.77,8.32 -3.19,0.48 -5.73,1.27 -8.25,1.2 -69.69,-1.88 -139.38,-3.93 -209.06,-5.78 -5.58,-0.15 -9.66,-1.09 -12.95,-6.47 -36.94,-60.53 -74.14,-120.87 -111.26,-181.29 -0.79,-1.29 -1.2,-2.79 -2.44,-5.73z"/>
   <path class="fil0" d="M874.35 636.28c4.2,0 6.2,0.05 8.2,-0.02 62.87,-1.69 125.73,-3.53 188.59,-5 7.42,-0.19 11.55,-3.1 15.29,-9.22 31.89,-52.32 64.06,-104.42 96.14,-156.63 1.84,-2.96 3.46,-6.1 5.94,-10.48 -4.97,-0.22 -8.4,-0.59 -11.83,-0.51 -61.67,1.66 -123.31,3.52 -184.97,4.89 -7.53,0.17 -11.47,3.15 -15.17,9.22 -31.88,52.29 -64.04,104.43 -96.09,156.63 -1.84,2.99 -3.4,6.17 -6.11,11.12zm-15.53 8.72c2.65,-4.7 4.11,-7.45 5.74,-10.12 35.43,-57.65 71.04,-115.21 106.14,-173.07 4.76,-7.84 9.89,-11.02 19.13,-11.24 66.46,-1.4 132.92,-3.38 199.39,-5.14 4.29,-0.12 8.58,0 14.48,0 -2.37,4.54 -3.79,7.72 -5.58,10.66 -35.41,57.67 -70.96,115.26 -106.18,173.04 -4.18,6.85 -8.57,10.04 -17.03,10.22 -68.89,1.54 -137.76,3.68 -206.64,5.61 -2.38,0.07 -4.76,0.02 -9.47,0.02z"/>
   <path class="fil0" d="M304.78 454.41c1.68,3.56 2.23,5.04 3.03,6.36 33.34,54.26 66.77,108.44 99.95,162.8 3.4,5.59 7.48,7.45 13.72,7.61 62.86,1.56 125.73,3.38 188.6,5.04 2.48,0.06 4.99,-0.62 8.13,-1.03 -1.22,-2.53 -1.78,-4.03 -2.61,-5.38 -33.32,-54.26 -66.78,-108.44 -99.82,-162.87 -3.82,-6.27 -8.46,-7.38 -14.88,-7.56 -61.24,-1.54 -122.5,-3.28 -183.76,-4.94 -3.54,-0.08 -7.1,-0.02 -12.36,-0.02zm329.56 190.54c-28.41,-0.62 -54.56,-1.06 -80.69,-1.8 -45.53,-1.23 -91.03,-2.8 -136.55,-3.91 -6.72,-0.15 -10.94,-2.08 -14.57,-8.04 -36.07,-59.17 -72.47,-118.13 -108.73,-177.19 -1.4,-2.24 -2.32,-4.8 -4.14,-8.63 5.4,0 9.28,-0.07 13.16,0.02 67.26,1.79 134.54,3.69 201.82,5.31 7.51,0.17 12.41,2.2 16.58,9.07 36,59.22 72.43,118.18 108.71,177.21 1.21,1.95 2.24,4.05 4.41,7.95z"/>
   <path class="fil0" d="M305.17 2277.41c3.97,0.28 6.69,0.69 9.38,0.62 62.46,-1.67 124.91,-3.54 187.37,-4.99 7,-0.15 10.81,-2.75 14.32,-8.49 32.33,-52.99 64.91,-105.81 97.38,-158.69 1.61,-2.61 2.8,-5.48 4.71,-9.24 -3.51,-0.22 -5.79,-0.55 -8.07,-0.48 -62.85,1.7 -125.71,3.56 -188.57,4.99 -7.65,0.16 -11.41,3.63 -15.05,9.59 -31.94,52.27 -64.12,104.39 -96.19,156.59 -1.8,2.94 -3.21,6.14 -5.28,10.1zm-15.97 9.18c3.09,-5.38 4.99,-8.87 7.08,-12.27 35.02,-56.99 70.15,-113.88 104.97,-170.98 4.15,-6.81 8.45,-10.14 16.97,-10.32 68.5,-1.49 136.97,-3.59 205.47,-5.45 3.02,-0.1 6.06,0.32 10.38,0.55 -1.81,3.21 -2.87,5.24 -4.08,7.19 -36.29,59.03 -72.67,118.01 -108.76,177.18 -3.76,6.18 -7.95,8.99 -15.28,9.18 -68.91,1.62 -137.8,3.56 -206.68,5.37 -2.69,0.08 -5.4,-0.23 -10.06,-0.45z"/>
   <path class="fil0" d="M2898.67 2096.11c-4.21,0 -6.2,-0.05 -8.2,0 -62.84,1.7 -125.7,3.54 -188.56,5.01 -7.41,0.19 -11.55,3.06 -15.31,9.19 -32.29,52.99 -64.89,105.81 -97.37,158.69 -1.41,2.29 -2.65,4.68 -4.72,8.45 4.93,0.23 8.37,0.6 11.79,0.5 61.25,-1.62 122.49,-3.53 183.74,-4.8 8.53,-0.17 12.92,-3.52 17.05,-10.29 31.47,-51.61 63.22,-103.04 94.85,-154.55 2.06,-3.33 3.81,-6.87 6.74,-12.2zm15.54 -8.08c-22.77,37.11 -44.46,72.47 -66.16,107.79 -15.4,25.07 -31.06,49.98 -46.08,75.24 -4.39,7.35 -9.41,10.57 -18.16,10.69 -38.68,0.59 -77.35,1.86 -116.02,2.89 -28.2,0.75 -56.4,1.56 -84.61,2.32 -3.99,0.1 -7.98,0 -13.78,0 2.08,-4.12 3.4,-7.26 5.17,-10.13 35.82,-58.39 71.74,-116.7 107.47,-175.14 3.42,-5.63 7.14,-8.43 14.26,-8.6 69.69,-1.65 139.37,-3.72 209.08,-5.65 2.31,-0.07 4.65,0.29 8.85,0.58z"/>
   <path class="fil0" d="M746.43 2533.13c1.86,-2.67 2.9,-3.89 3.65,-5.26 30.54,-56.37 60.96,-112.8 91.7,-169.06 3.25,-5.97 1.94,-10.27 -0.94,-15.55 -29.66,-54.55 -59.13,-109.19 -88.69,-163.81 -1.52,-2.78 -3.38,-5.38 -5.7,-9.05 -2.5,4.32 -4.58,7.69 -6.47,11.19 -28.81,53.16 -57.38,106.48 -86.61,159.42 -4.55,8.24 -4.02,14.2 0.3,22.06 29.13,53.01 57.77,106.27 86.58,159.43 1.71,3.15 3.61,6.22 6.18,10.63zm0.34 17.8c-2.3,-3.69 -4.16,-6.3 -5.67,-9.07 -32.8,-60.57 -65.47,-121.21 -98.47,-181.68 -3.28,-6.02 -3.36,-10.57 -0.07,-16.61 33.18,-60.85 66.06,-121.83 99.06,-182.78 1.31,-2.41 3.01,-4.59 5.24,-7.94 2.48,4.32 4.55,7.69 6.42,11.17 32.04,59.14 63.91,118.4 96.26,177.39 4.21,7.65 4.08,13.35 -0.07,20.93 -32.34,58.99 -64.22,118.22 -96.27,177.39 -1.89,3.49 -3.95,6.87 -6.44,11.22z"/>
   <path class="fil0" d="M1886.61 2170.31c-1.95,3.04 -3.13,4.64 -4.07,6.37 -30.35,56.03 -60.6,112.08 -91.15,167.99 -3.23,5.88 -2.14,10.2 0.78,15.58 29.89,54.88 59.56,109.88 89.34,164.82 1.32,2.44 2.95,4.7 5.02,7.96 2.32,-3.79 4.3,-6.71 5.96,-9.81 29.2,-53.88 58.18,-107.88 87.7,-161.6 4.04,-7.33 3.73,-12.73 -0.18,-19.86 -29.26,-53.39 -58.1,-106.99 -87.1,-160.54 -1.7,-3.15 -3.59,-6.24 -6.3,-10.89zm-0.12 380.9c-2.64,-4.62 -4.71,-8 -6.59,-11.47 -32.05,-59.14 -63.93,-118.4 -96.27,-177.38 -4.13,-7.56 -4.32,-13.27 -0.11,-20.93 32.35,-58.99 64.24,-118.22 96.27,-177.39 1.88,-3.47 3.93,-6.85 6.69,-11.64 2.73,4.74 4.79,8.12 6.66,11.57 32.06,59.17 63.93,118.4 96.28,177.39 4.18,7.65 4.11,13.36 -0.05,20.93 -32.33,58.99 -64.21,118.25 -96.26,177.39 -1.88,3.49 -3.95,6.89 -6.64,11.54z"/>
   <path class="fil0" d="M303.87 1111.39c36.85,59.95 72.46,117.88 107.78,175.33 31.39,3.99 195.49,7.28 205.81,3.99 -1.77,-3.19 -3.35,-6.37 -5.2,-9.35 -31.63,-51.51 -63.46,-102.87 -94.74,-154.56 -4.8,-7.95 -10.17,-10.68 -19.27,-10.87 -56.8,-1.17 -113.6,-2.96 -170.4,-4.51 -7.17,-0.19 -14.34,-0.02 -23.98,-0.02zm330.34 190.55c-5.51,0 -9.37,0.09 -13.22,0 -67.27,-1.81 -134.55,-3.67 -201.81,-5.38 -7.24,-0.18 -12.59,-1.53 -16.89,-8.61 -36.2,-59.56 -72.84,-118.85 -109.31,-178.21 -1.03,-1.66 -1.82,-3.47 -3.33,-6.41 3.88,-0.38 6.85,-0.97 9.81,-0.91 68.47,1.89 136.95,3.95 205.42,5.61 7.63,0.19 12.34,2.14 16.52,9.01 35.35,58.2 71.14,116.11 106.78,174.12 1.84,2.96 3.42,6.09 6.04,10.78z"/>
   <path class="fil0" d="M2014.48 3264.46c4.93,0 8.4,0.07 11.88,-0.02 61.25,-1.66 122.51,-3.47 183.76,-4.87 7.76,-0.19 12.32,-2.84 16.38,-9.52 31.83,-52.34 64.05,-104.43 96.1,-156.63 1.81,-2.97 3.26,-6.14 5.41,-10.25 -4.35,-0.23 -7.46,-0.6 -10.56,-0.51 -62.06,1.67 -124.11,3.52 -186.17,4.94 -6.97,0.15 -10.83,2.61 -14.38,8.4 -32.3,53.01 -64.88,105.82 -97.36,158.71 -1.61,2.63 -2.86,5.49 -5.06,9.74zm328.78 -190.37c-1.87,3.78 -3,6.65 -4.6,9.21 -35.82,58.39 -71.76,116.68 -107.46,175.14 -3.68,6.05 -7.71,8.94 -15.19,9.13 -69.69,1.65 -139.36,3.76 -209.05,5.69 -1.98,0.07 -3.96,-0.16 -7.18,-0.29 1.35,-3.05 2.1,-5.57 3.42,-7.71 36.24,-59.04 72.61,-118.03 108.77,-177.15 3.41,-5.56 6.92,-8.91 14.08,-9.08 69.71,-1.63 139.38,-3.61 209.07,-5.45 2.29,-0.05 4.59,0.29 8.14,0.51z"/>
   <path class="fil0" d="M2584.5 963.22c3.55,0.42 5.14,0.79 6.71,0.74 64.07,-1.73 128.14,-3.59 192.21,-5.13 6.26,-0.15 9.26,-3.11 12.18,-7.88 32.83,-53.62 65.81,-107.14 98.69,-160.73 1.38,-2.22 2.1,-4.85 3.47,-8.06 -5.91,0 -10.72,-0.12 -15.52,0.02 -59.22,1.59 -118.44,3.42 -177.68,4.64 -9.22,0.21 -14.4,3.32 -19.16,11.19 -31.31,51.7 -63.17,103.08 -94.82,154.57 -1.85,3.01 -3.51,6.14 -6.07,10.63zm-15.03 9.18c2.21,-4.19 3.65,-7.35 5.45,-10.29 35.61,-58.05 71.3,-116.05 106.87,-174.1 3.29,-5.38 6.54,-8.89 13.99,-9.08 70.51,-1.58 141,-3.69 211.49,-5.65 1.56,-0.02 3.15,0.25 5.87,0.48 -1.35,2.96 -2.19,5.43 -3.5,7.57 -36.26,59.07 -72.63,118.06 -108.76,177.17 -3.45,5.66 -7.07,8.82 -14.15,8.99 -69.7,1.65 -139.4,3.6 -209.08,5.45 -2.26,0.06 -4.53,-0.28 -8.16,-0.53z"/>
   <path class="fil0" d="M618.38 3264.39c-1.31,-3.11 -1.72,-4.63 -2.53,-5.93 -33.52,-54.61 -67.12,-109.16 -100.52,-163.86 -3.13,-5.15 -6.95,-6.8 -12.75,-6.93 -62.86,-1.56 -125.72,-3.39 -188.58,-5.06 -2.6,-0.07 -5.22,0.46 -9.17,0.85 2,3.51 3.26,5.93 4.69,8.25 32.49,52.87 65.11,105.68 97.31,158.73 4.16,6.83 9.03,8.94 16.61,9.13 60.04,1.4 120.08,3.16 180.12,4.8 4.41,0.12 8.82,0.02 14.82,0.02zm-329.86 -190.74c6.38,0 10.24,-0.1 14.1,0.02 67.26,1.79 134.53,3.63 201.81,5.38 6.62,0.19 11.89,0.85 16.1,7.79 36.58,60.27 73.67,120.22 110.58,180.3 0.81,1.3 1.35,2.77 2.9,5.98 -76.29,-1.44 -151.29,-3.81 -226.67,-6.13 -39.31,-63.95 -78.44,-127.62 -118.83,-193.34z"/>
   <path class="fil0" d="M3026.42 2170.94c-1.47,1.95 -2.61,3.12 -3.34,4.5 -30.73,56.72 -61.34,113.51 -92.27,170.13 -3.13,5.73 -1.39,9.73 1.2,14.48 29.99,55.28 59.9,110.61 89.89,165.89 1.2,2.19 2.94,4.1 4.79,6.62 1.53,-2.27 2.53,-3.54 3.29,-4.92 30.34,-56.03 60.59,-112.08 91.1,-168.01 3.06,-5.61 3.14,-9.93 0.05,-15.58 -29.94,-54.88 -59.6,-109.88 -89.36,-164.82 -1.47,-2.71 -3.34,-5.2 -5.35,-8.29zm-0.26 379.89c-2.55,-4.44 -4.44,-7.49 -6.14,-10.67 -32.22,-59.51 -64.29,-119.09 -96.81,-178.44 -3.97,-7.26 -3.93,-12.66 0.01,-19.85 32.67,-59.72 64.93,-119.67 97.35,-179.55 1.51,-2.78 3.23,-5.43 5.54,-9.21 2.24,3.33 4.15,5.7 5.58,8.32 32.81,60.58 65.54,121.19 98.4,181.73 2.82,5.2 4.41,9.49 1.11,15.54 -33.97,62.22 -67.63,124.62 -101.39,186.96 -0.75,1.38 -1.82,2.6 -3.64,5.18z"/>
   <path class="fil0" d="M1443.95 2278c5.55,0 8.69,0.1 11.81,0 61.64,-1.67 123.29,-3.55 184.95,-4.87 8.03,-0.18 12.21,-3.19 16.16,-9.7 31.63,-51.97 63.61,-103.74 95.45,-155.61 2.02,-3.3 3.71,-6.8 6.09,-11.24 -3.78,-0.22 -6.09,-0.5 -8.39,-0.46 -62.84,1.7 -125.71,3.56 -188.56,4.99 -7.74,0.16 -11.39,3.79 -15,9.69 -30.46,49.87 -61.14,99.59 -91.74,149.39 -3.13,5.07 -6.19,10.22 -10.77,17.8zm-14.93 8.6c3.29,-5.64 5.41,-9.45 7.68,-13.14 34.81,-56.65 69.79,-113.2 104.28,-170.02 4.53,-7.44 9.45,-10.22 18.14,-10.42 68.08,-1.52 136.17,-3.59 204.25,-5.45 3.05,-0.1 6.13,0.25 10.76,0.48 -2.08,3.54 -3.39,5.86 -4.8,8.13 -36.07,58.68 -72.24,117.33 -108.13,176.15 -3.72,6.08 -7.79,9.14 -15.21,9.33 -68.88,1.61 -137.77,3.56 -206.65,5.37 -2.74,0.08 -5.47,-0.21 -10.33,-0.43z"/>
   <path class="fil0" d="M2014.26 636.28c4.25,0 6.25,0.05 8.25,-0.02 62.86,-1.69 125.72,-3.53 188.57,-5 7.47,-0.16 11.54,-3.2 15.26,-9.28 32.1,-52.65 64.48,-105.13 96.75,-157.68 1.62,-2.61 2.98,-5.4 5.08,-9.26 -4.39,-0.27 -7.43,-0.73 -10.49,-0.65 -62.07,1.66 -124.12,3.54 -186.17,4.92 -7.59,0.17 -11.46,3.27 -15.12,9.28 -31.89,52.3 -64.06,104.43 -96.08,156.64 -1.85,3.01 -3.39,6.15 -6.05,11.05zm-15.23 8.23c1.88,-3.44 2.92,-5.52 4.12,-7.47 36.28,-59.03 72.66,-118.01 108.75,-177.16 3.76,-6.18 7.96,-8.97 15.29,-9.14 68.89,-1.63 137.77,-3.59 206.66,-5.4 2.69,-0.07 5.4,0.22 9.36,0.44 -1.82,3.76 -2.92,6.63 -4.51,9.21 -35.83,58.39 -71.72,116.7 -107.54,175.07 -3.25,5.31 -6.29,9.1 -13.87,9.26 -70.51,1.59 -140.97,3.75 -211.47,5.73 -1.59,0.04 -3.16,-0.24 -6.8,-0.53z"/>
   <path class="fil0" d="M2327.92 963.19c-2.08,-3.98 -3.53,-7.2 -5.37,-10.16 -31.85,-51.84 -63.91,-103.56 -95.46,-155.58 -4.53,-7.47 -9.65,-10.36 -18.26,-10.55 -60.43,-1.35 -120.88,-3.14 -181.32,-4.78 -3.84,-0.12 -7.69,-0.02 -12.56,-0.02 1.01,2.77 1.32,4.34 2.09,5.62 33.72,54.94 67.53,109.86 101.14,164.87 2.96,4.85 6.68,6.07 11.93,6.2 63.27,1.64 126.53,3.45 189.79,5.15 2.28,0.07 4.57,-0.41 8.01,-0.75zm-328.55 -189.27c3.08,-0.28 5,-0.67 6.91,-0.62 70.5,1.95 141,3.95 211.51,5.79 5.32,0.14 8.82,1.63 11.74,6.41 36.99,60.51 74.16,120.88 111.26,181.32 0.8,1.28 1.25,2.78 2.4,5.4 -4.25,0.28 -7.65,0.74 -11.03,0.65 -68.08,-1.78 -136.15,-3.66 -204.25,-5.4 -6.31,-0.16 -11.21,-1.13 -15.03,-7.42 -37.09,-60.92 -74.53,-121.6 -111.86,-182.37 -0.41,-0.67 -0.65,-1.45 -1.64,-3.74z"/>
   <path class="fil0" d="M874.57 2096.28c1.91,3.81 2.8,5.98 4.02,7.98 32.9,53.55 65.95,107.02 98.62,160.75 3.68,6.03 7.93,7.86 14.6,8.01 62.05,1.52 124.11,3.32 186.15,4.99 3.01,0.07 6.02,-0.43 10.48,-0.78 -2.23,-3.91 -3.69,-6.69 -5.34,-9.35 -32.07,-52.16 -64.33,-104.22 -96.09,-156.62 -4.62,-7.62 -9.95,-10.03 -18.43,-10.22 -59.64,-1.33 -119.28,-3.12 -178.9,-4.73 -4.41,-0.12 -8.82,-0.02 -15.12,-0.02zm-15.68 -8.82c29.15,0.65 56.1,1.13 83.05,1.86 44.31,1.22 88.63,2.8 132.94,3.77 7.67,0.16 12.35,2.28 16.49,9.06 35.36,58.18 71.12,116.13 106.73,174.18 1.8,2.94 3.21,6.1 5.6,10.68 -5.49,0 -9.38,0.09 -13.26,-0.02 -67.27,-1.79 -134.55,-3.63 -201.83,-5.38 -6.69,-0.16 -11.83,-1.01 -16.01,-7.9 -36.58,-60.29 -73.67,-120.24 -110.59,-180.3 -0.79,-1.28 -1.41,-2.69 -3.12,-5.93z"/>
   <path class="fil0" d="M1758.68 782.42c-3.81,-0.2 -5.77,-0.48 -7.72,-0.41 -63.26,1.71 -126.51,3.54 -189.78,5.01 -7.11,0.17 -10.79,3.21 -14.25,8.87 -32.56,53.31 -65.35,106.46 -98.02,159.69 -1.37,2.22 -2.13,4.8 -3.61,8.22 5.19,0 9.19,0.09 13.16,-0.02 60.03,-1.62 120.06,-3.52 180.1,-4.71 9.22,-0.19 14.4,-3.15 19.14,-11.01 31.1,-51.35 62.74,-102.39 94.17,-153.53 2.07,-3.39 3.9,-6.92 6.8,-12.12zm-329.38 190.09c2.76,-5 4.51,-8.52 6.55,-11.85 35.22,-57.33 70.6,-114.57 105.55,-172.06 4.33,-7.13 9.22,-9.49 17.34,-9.68 68.09,-1.58 136.15,-3.6 204.23,-5.48 3.13,-0.09 6.26,0 11.03,0 -1.99,3.67 -3.12,6.04 -4.48,8.29 -36.06,58.68 -72.22,117.34 -108.13,176.12 -3.63,5.95 -7.4,9.49 -15.01,9.68 -69.69,1.58 -139.37,3.55 -209.06,5.4 -2,0.06 -4,-0.19 -8.02,-0.42z"/>
   <path class="fil0" d="M1188.54 1769.07c-3.69,-0.36 -5.3,-0.68 -6.87,-0.66 -64.07,1.74 -128.14,3.62 -192.23,5.1 -7.07,0.16 -9.73,4.19 -12.71,9.06 -32.25,52.55 -64.57,105.08 -96.82,157.65 -1.77,2.87 -3.11,6.02 -5.03,9.74 3.12,0.23 4.73,0.48 6.32,0.45 63.67,-1.73 127.33,-3.59 191.01,-5.04 7.24,-0.17 10.72,-3.56 14.11,-9.11 32.36,-52.96 64.91,-105.81 97.39,-158.68 1.41,-2.29 2.68,-4.71 4.84,-8.51zm15.88 -9.07c-40.12,65.26 -79.25,128.93 -118.63,193.01 -75.14,2.09 -149.95,4.17 -226.38,6.29 1.98,-4.06 3.08,-6.87 4.64,-9.41 35.82,-58.36 71.8,-116.63 107.47,-175.12 3.93,-6.46 8.1,-9.79 16.09,-9.98 68.49,-1.54 136.96,-3.51 205.43,-5.31 3.06,-0.09 6.13,0.26 11.38,0.51z"/>
   <path class="fil0" d="M1886.49 1218.86c1.72,-2.62 2.94,-4.19 3.88,-5.91 30.35,-56.02 60.59,-112.08 91.13,-167.99 3.19,-5.83 2.36,-10.16 -0.59,-15.59 -29.9,-54.87 -59.55,-109.87 -89.33,-164.83 -1.39,-2.53 -3.33,-4.79 -5.5,-7.83 -2.29,3.88 -4.01,6.56 -5.53,9.37 -29.19,53.91 -58.2,107.88 -87.66,161.62 -3.94,7.21 -4.03,12.61 -0.04,19.87 29.48,53.73 58.48,107.73 87.69,161.61 1.65,3.04 3.62,5.93 5.93,9.67zm-0.21 17.83c-2.55,-4.41 -4.44,-7.47 -6.14,-10.62 -32.22,-59.51 -64.28,-119.12 -96.8,-178.47 -3.97,-7.24 -3.98,-12.64 -0.02,-19.85 32.67,-59.72 64.94,-119.67 97.35,-179.55 1.51,-2.77 3.25,-5.45 5.54,-9.26 2.26,3.35 4.18,5.69 5.59,8.32 32.81,60.56 65.53,121.19 98.39,181.73 2.81,5.2 4.44,9.49 1.15,15.54 -33.99,62.22 -67.63,124.62 -101.41,186.96 -0.75,1.38 -1.81,2.6 -3.64,5.2z"/>
   <path class="fil0" d="M3026.52 856.27c-1.87,2.85 -3.1,4.41 -4.04,6.15 -30.36,56 -60.6,112.06 -91.16,167.96 -3.19,5.86 -2.29,10.19 0.65,15.59 30.09,55.23 59.96,110.59 89.95,165.87 1.2,2.21 2.95,4.07 4.89,6.72 2.09,-3.49 3.62,-5.85 4.95,-8.3 29.35,-54.25 58.57,-108.59 88.22,-162.68 3.98,-7.23 3.93,-12.63 -0.02,-19.85 -29.46,-53.75 -58.48,-107.74 -87.65,-161.62 -1.53,-2.81 -3.23,-5.52 -5.8,-9.83zm-0.34 380.42c-2.55,-4.39 -4.44,-7.45 -6.14,-10.62 -32.23,-59.51 -64.31,-119.09 -96.8,-178.47 -3.96,-7.21 -4,-12.61 -0.05,-19.83 32.67,-59.72 64.93,-119.69 97.35,-179.55 1.51,-2.77 3.23,-5.45 5.54,-9.28 2.26,3.33 4.16,5.67 5.58,8.29 32.81,60.56 65.54,121.19 98.4,181.73 2.8,5.2 4.46,9.49 1.15,15.54 -33.97,62.22 -67.63,124.62 -101.4,186.96 -0.74,1.4 -1.8,2.62 -3.63,5.22z"/>
   <path class="fil0" d="M2014.51 2096.37c1.84,3.67 2.73,5.86 3.94,7.84 32.89,53.56 65.94,107.04 98.62,160.75 3.67,6 7.87,7.91 14.58,8.06 62.06,1.49 124.1,3.32 186.16,4.99 3,0.07 6.02,-0.41 10.52,-0.73 -2.45,-4.28 -4.1,-7.37 -5.93,-10.36 -31.65,-51.49 -63.57,-102.85 -94.78,-154.6 -5.12,-8.49 -10.95,-11.12 -20.31,-11.33 -57.62,-1.26 -115.23,-3.02 -172.85,-4.59 -6.03,-0.16 -12.05,-0.02 -19.95,-0.02zm328.92 190.24c-12,0 -22.4,0.25 -32.76,-0.02 -60.02,-1.61 -120.05,-3.5 -180.07,-4.8 -9.44,-0.21 -15.15,-3.08 -20.2,-11.45 -34.61,-57.23 -69.83,-114.1 -104.82,-171.09 -2.05,-3.3 -4,-6.66 -6.59,-11.01 3.26,-0.39 5.14,-0.85 7.01,-0.8 70.49,1.93 140.99,3.98 211.49,5.74 5.93,0.16 9.43,2.21 12.53,7.25 36.76,60.17 73.73,120.18 110.63,180.28 0.8,1.3 1.33,2.8 2.78,5.91z"/>
   <path class="fil0" d="M1218.48 1365.41c10.65,24.9 92.49,173.71 99.4,180.35 32.45,-59.98 64.8,-119.76 97.15,-179.6 -32.65,-60.32 -64.97,-120.01 -98.48,-181.91 -33.59,62.06 -65.92,121.8 -98.07,181.15zm98.46 199.76c-3.05,-4.98 -5.02,-7.87 -6.69,-10.93 -32.25,-59.54 -64.4,-119.14 -96.79,-178.58 -3.36,-6.13 -4.4,-11 -0.73,-17.69 33.08,-60.46 65.78,-121.14 98.6,-181.73 1.29,-2.39 2.86,-4.65 5.58,-9.01 36.38,67.21 71.94,132.88 107.71,198.96 -35.59,65.76 -71.04,131.3 -107.67,198.99z"/>
   <path class="fil0" d="M2456.45 1548.15c33.68,-62.27 66.15,-122.24 98.2,-181.48 -20.86,-43.63 -91.8,-172.35 -99.47,-180.14 -32.47,60.01 -64.81,119.8 -97.22,179.7 32.6,60.22 64.92,119.93 98.49,181.92zm-108.07 -181.92c35.6,-65.79 71.05,-131.32 107.17,-198.09 2.29,2.86 4.25,4.65 5.44,6.82 33.23,61.3 66.36,122.66 99.61,183.94 2.45,4.51 3.54,8.21 0.74,13.35 -34.15,62.63 -68.03,125.41 -102.05,188.11 -0.53,0.97 -1.5,1.71 -3.62,4.03 -35.97,-66.42 -71.53,-132.12 -107.3,-198.16z"/>
   <path class="fil0" d="M275.16 1366.19c-32.64,-60.29 -64.96,-119.99 -98.49,-181.93 -33.58,62.03 -65.91,121.75 -98.04,181.13 10,23.62 92.4,173.6 99.33,180.42 32.29,-59.67 64.48,-119.14 97.2,-179.62zm-98.49 -199.62c36.69,67.78 72.09,133.18 108.05,199.6 -35.45,65.54 -71.05,131.33 -106.76,197.34 -7.16,-7.19 -96.2,-169.31 -108.96,-197.98 35.28,-65.19 70.85,-130.9 107.67,-198.96z"/>
   <path class="fil0" d="M2456.44 2862.3c33.7,-62.27 66.05,-122.03 98.15,-181.37 -16.27,-35.95 -92.71,-174.18 -99.66,-179.86 -32.39,59.9 -64.73,119.69 -96.96,179.29 32.67,60.39 64.86,119.86 98.47,181.94zm0.46 -380.8c36.56,67.57 72.02,133.11 107.58,198.85 -35.67,65.93 -71.12,131.43 -107.37,198.4 -2.53,-3.61 -4.5,-5.91 -5.92,-8.51 -32.85,-60.59 -65.6,-121.23 -98.55,-181.75 -2.94,-5.42 -3.63,-9.69 -0.46,-15.53 33.42,-61.22 66.5,-122.59 99.7,-183.89 1.09,-2.02 2.52,-3.84 5.01,-7.56z"/>
   <path class="fil0" d="M1218.43 2679.63c12.6,28.67 92.49,173.71 99.47,180.21 32.45,-59.96 64.8,-119.77 97.13,-179.54 -32.67,-60.36 -65,-120.07 -98.48,-181.91 -33.61,62.1 -65.97,121.84 -98.12,181.24zm98.9 -197.56c36.14,66.82 71.6,132.33 107.26,198.26 -35.58,65.75 -71.03,131.27 -107.15,198.04 -2.31,-2.85 -4.25,-4.62 -5.45,-6.82 -33.23,-61.28 -66.37,-122.62 -99.62,-183.91 -2.43,-4.5 -3.53,-8.21 -0.72,-13.35 34.17,-62.63 68.03,-125.41 102.03,-188.11 0.53,-0.99 1.51,-1.73 3.65,-4.1z"/>
   <path class="fil0" d="M176.69 2862.3c33.83,-62.54 66.18,-122.35 98.47,-182.02 -32.75,-60.48 -65.05,-120.13 -98.5,-181.89 -33.66,62.2 -66.01,121.96 -98.47,181.95 32.52,60.09 64.87,119.83 98.5,181.96zm-0.59 16.66c-36.38,-67.23 -71.83,-132.76 -107.47,-198.62 35.59,-65.78 71.05,-131.34 107.07,-197.93 2.14,2.39 3.95,3.8 4.96,5.66 33.44,61.64 66.75,123.36 100.19,185.01 2.46,4.51 3.49,8.21 0.7,13.33 -33.95,62.29 -67.62,124.73 -101.4,187.1 -0.72,1.34 -1.81,2.46 -4.06,5.45z"/>
   <path class="fil0" d="M177 3139.05c2.66,4.59 4.55,7.65 6.26,10.82 32.04,59.19 63.94,118.45 96.24,177.48 3.93,7.19 4.46,12.77 0.09,19.92 -7.15,11.67 -13.3,23.94 -19.74,36.05 -2.39,4.53 -5.22,7.08 -11.31,3.44 6.86,-12.75 13.22,-25.75 20.71,-38.07 4.74,-7.77 4.87,-13.84 0.35,-22.06 -29.18,-52.94 -57.72,-106.22 -86.51,-159.4 -1.66,-3.08 -3.64,-6.02 -6.2,-10.22 -2.33,3.49 -4.22,5.88 -5.65,8.53 -29.4,54.2 -58.62,108.49 -88.27,162.56 -3.8,6.92 -3.9,12.23 0.17,18.87 6.09,9.94 11.32,20.45 16.82,30.74 1.63,3.06 2.96,6.27 4.48,9.48 -5.41,2.65 -8.32,1.06 -10.59,-3.21 -7.4,-13.88 -14.72,-27.78 -22.54,-41.41 -3.4,-5.9 -0.07,-9.99 2.34,-14.47 21.63,-40.07 43.31,-80.13 65,-120.17 10.74,-19.83 21.47,-39.71 32.28,-59.51 1.6,-2.94 3.64,-5.63 6.08,-9.37z"/>
   <path class="fil0" d="M1316.8 3156.33c-3,4.88 -4.98,7.8 -6.66,10.89 -28.78,53.15 -57.33,106.43 -86.49,159.4 -4.52,8.2 -4.43,14.25 0.3,22.06 7.5,12.29 13.84,25.31 20.7,38.14 -5.19,3.04 -8.32,1.95 -10.66,-2.38 -7.66,-14.2 -15.25,-28.42 -23.11,-42.48 -2.72,-4.85 -0.28,-8.46 1.82,-12.34 9.77,-18.08 19.57,-36.14 29.33,-54.22 22.45,-41.49 44.89,-82.95 67.35,-124.41 1.91,-3.5 3.95,-6.95 6.54,-11.51 2.12,2.7 4.02,4.58 5.22,6.8 33.04,60.94 65.94,121.96 99.14,182.81 3.29,6.05 3.46,10.75 -0.03,16.7 -7.14,12.13 -13.66,24.68 -20.26,37.13 -2.32,4.37 -4.92,7.4 -11.56,4.17 5.46,-10.29 10.94,-20.42 16.22,-30.61 12.45,-24.04 12.67,-14.34 0.15,-37.73 -26.61,-49.77 -53.62,-99.28 -80.49,-148.92 -2.08,-3.86 -4.3,-7.67 -7.54,-13.49z"/>
   <path class="fil0" d="M2456.59 3138.57c2.75,4.82 4.41,7.55 5.92,10.38 32.25,59.54 64.32,119.16 96.85,178.54 3.99,7.28 4.21,12.87 -0.08,19.93 -6.9,11.34 -12.85,23.27 -19.12,35.01 -2.2,4.12 -4.41,7.93 -11.05,5.08 0.85,-2.34 1.42,-4.89 2.59,-7.13 6.42,-12.11 12.91,-24.19 19.55,-36.16 2.31,-4.11 3.33,-7.65 0.79,-12.32 -31.05,-56.98 -61.89,-114.06 -92.79,-171.11 -0.58,-1.05 -1.08,-2.11 -2.29,-4.5 -2.76,4.27 -4.6,6.73 -6.04,9.39 -29.4,54.21 -58.6,108.51 -88.27,162.58 -3.84,6.98 -3.56,12.25 0.33,18.86 7.54,12.8 14.28,26.06 21.64,39.66 -4.8,2.84 -8.06,2.56 -10.46,-1.85 -7.89,-14.52 -15.94,-28.96 -23.44,-43.69 -1.16,-2.31 -0.48,-6.27 0.62,-8.91 2.16,-5.19 5.23,-9.99 7.91,-14.95 30.11,-55.66 60.18,-111.31 90.3,-166.95 1.86,-3.45 4,-6.74 7.04,-11.84z"/>
  </g>
 </g>
</svg>
